<svg width="32" height="32" viewBox="0 0 32 32" fill="none" xmlns="http://www.w3.org/2000/svg">
<path d="M9.11765 13.3458C9.11765 15.0211 7.74817 16.3792 6.05883 16.3792C4.36948 16.3792 3 15.0211 3 13.3458C3 11.6706 4.36948 10.3125 6.05883 10.3125C7.74817 10.3125 9.11765 11.6706 9.11765 13.3458Z" fill="black" style="fill:black;fill-opacity:1;"/>
<path d="M13.8412 11.3303C15.2098 9.97322 17.4285 9.97322 18.7971 11.3303C19.6889 12.2146 19.9995 13.457 19.7291 14.5908L23.0169 11.3305C24.3856 9.97317 26.6047 9.97317 27.9735 11.3305C29.3421 12.6878 29.3421 14.8884 27.9735 16.2458L23.5125 20.6695C22.1438 22.0268 19.9247 22.0268 18.556 20.6695C17.6641 19.785 17.3534 18.5425 17.6238 17.4086L14.3353 20.6697C12.9668 22.0268 10.7479 22.0268 9.37935 20.6697C8.0108 19.3125 8.0108 17.1122 9.37935 15.755L13.8412 11.3303Z" fill="black" style="fill:black;fill-opacity:1;"/>
</svg>
