<svg width="32" height="32" viewBox="0 0 32 32" fill="none" xmlns="http://www.w3.org/2000/svg">
<path d="M7.52941 12.7146C7.52941 14.7883 5.8439 16.4694 3.7647 16.4694C1.68552 16.4694 0 14.7883 0 12.7146C0 10.641 1.68552 8.96 3.7647 8.96C5.8439 8.96 7.52941 10.641 7.52941 12.7146Z" fill="#060606" style="fill:#060606;fill:color(display-p3 0.0235 0.0235 0.0235);fill-opacity:1;"/>
<path d="M13.343 10.2199C15.0274 8.54 17.7583 8.54 19.4427 10.2199C20.5402 11.3145 20.9226 12.8523 20.5898 14.2557L24.6362 10.2201C26.3207 8.54 29.052 8.54 30.7366 10.2201C32.4211 11.9002 32.4211 14.6241 30.7366 16.3042L25.2462 21.7799C23.5616 23.46 20.8304 23.46 19.1458 21.7799C18.0481 20.6851 17.6657 19.1471 17.9986 17.7434L13.9511 21.7801C12.2667 23.46 9.53586 23.46 7.85153 21.7801C6.16717 20.1002 6.16717 17.3766 7.85153 15.6967L13.343 10.2199Z" fill="#060606" style="fill:#060606;fill:color(display-p3 0.0235 0.0235 0.0235);fill-opacity:1;"/>
</svg>
