<svg fill="none" height="18" viewBox="0 0 18 18" width="18" xmlns="http://www.w3.org/2000/svg" xmlns:xlink="http://www.w3.org/1999/xlink"><clipPath id="a"><path d="m0 0h18v18h-18z"/></clipPath><g clip-path="url(#a)"><path d="m5.0873 17.107c1.18322.5721 2.51061.893 3.91303.893 1.40237 0 2.72977-.3209 3.91307-.893l.7826-8.107-.7826-8.106961c-1.1833-.572133-2.5107-.893039-3.91307-.893039-1.40242 0-2.72981.320906-3.91303.893039l-.78261 8.106961z" fill="#ffda44"/><path d="m12.9121 17.1068c3.0105-1.4557 5.087-4.5385 5.087-8.10666 0-3.56812-2.0765-6.65097-5.087-8.106646z" fill="#d80027"/><path d="m5.08697 17.1068v-16.213306c-3.01047 1.455676-5.08697 4.538496-5.08697 8.106646 0 3.56816 2.0765 6.65096 5.08697 8.10666z" fill="#0052b4"/><path d="m9 12.1301c0-1.4362 0-3.13047 0-3.13047h2.3478v1.17387c0 .204-.3913.9513-1.3571 1.5653-.3658.2326-.74447.3074-.9907.3913z" fill="#d80027"/><path d="m8.9992 6.65161h-2.34783v2.34784h2.34783z" fill="#d80027"/><path d="m10.1735 5.86965c0-.43225-.35044-.78261-.78265-.78261-.14274 0-.27612.03881-.39129.10554-.11521-.06673-.24856-.10554-.39129-.10554-.43221 0-.78261.35036-.78261.78261h-1.95652v3.913c0 1.45675 1.15685 2.29915 2.06406 2.73585-.06789.116-.10754.2505-.10754.3946 0 .4323.3504.7827.78261.7827.14273 0 .27612-.0389.39129-.1056.11521.0667.24855.1056.39129.1056.43221 0 .78265-.3504.78265-.7827 0-.1441-.0397-.2786-.1076-.3946.9072-.4367 2.0641-1.2791 2.0641-2.73585v-3.913zm.7826 3.913c0 .20394 0 .82445-.96584 1.43855-.36583.2326-.74447.3834-.9907.4672-.24624-.0838-.62487-.2346-.9907-.4672-.96582-.6141-.96582-1.23461-.96582-1.43855v-2.7391h3.91306z" fill="#ff9811"/></g></svg>