<svg fill="none" height="18" viewBox="0 0 18 18" width="18" xmlns="http://www.w3.org/2000/svg" xmlns:xlink="http://www.w3.org/1999/xlink"><clipPath id="a"><path d="m0 0h18v18h-18z"/></clipPath><g clip-path="url(#a)"><path d="m9 18c4.9706 0 9-4.0294 9-9 0-4.97056-4.0294-9-9-9-4.97056 0-9 4.02944-9 9 0 4.9706 4.02944 9 9 9z" fill="#f0f0f0"/><path d="m5.08691 12.1296.78262 5.3099c.97495.3618 2.02953.5597 3.13041.5597 3.86966 0 7.16856-2.4424 8.44016-5.8696z" fill="#000"/><path d="m5.08691 5.86995.78262-5.309861c.97495-.361793 2.02953-.55972279 3.13041-.55972279 3.86966 0 7.16856 2.44237379 8.44016 5.86958379z" fill="#6da544"/><path d="m0 9.00002c0 3.86968 2.44241 7.16858 5.86958 8.44018v-16.880386c-3.42717 1.271636-5.86958 4.570526-5.86958 8.440206z" fill="#a2001d"/></g></svg>