<svg fill="none" height="18" viewBox="0 0 18 18" width="18" xmlns="http://www.w3.org/2000/svg" xmlns:xlink="http://www.w3.org/1999/xlink"><clipPath id="a"><path d="m0 0h18v18h-18z"/></clipPath><g clip-path="url(#a)"><path d="m12.9134.893039c-1.1833-.572133-2.5107-.893039-3.91307-.893039-1.40238 0-2.72981.320906-3.91303.893039l-.78261 8.106961.78261 8.107c1.18322.5721 2.51065.893 3.91303.893 1.40237 0 2.72977-.3209 3.91307-.893l.7826-8.107z" fill="#d80027"/><path d="m5.08697.893494c-3.01043 1.455716-5.08697 4.538526-5.08697 8.106646 0 3.56816 2.07654 6.65096 5.08697 8.10666z" fill="#000"/><path d="m12.9131.893494v16.213306c3.0104-1.4557 5.087-4.5385 5.087-8.10666 0-3.56812-2.0766-6.65093-5.087-8.106646z" fill="#496e2d"/><g fill="#ffda44"><path d="m9.00054 5.87c-1.72892 0-3.13042 1.40153-3.13042 3.13041 0 1.72889 1.40154 3.13039 3.13042 3.13039 1.72886 0 3.13046-1.4015 3.13046-3.13039 0-1.72888-1.4016-3.13041-3.13046-3.13041zm0 5.0869c-1.08057 0-1.95652-.876-1.95652-1.95649 0-1.08052.87599-1.95651 1.95652-1.95651 1.08056 0 1.95656.87599 1.95656 1.95651 0 1.08049-.876 1.95649-1.95656 1.95649z"/><path d="m9.00137 7.82715c-.43225 0-.78262.35037-.78262.78261v1.17391h1.56523v-1.17391c0-.43224-.35037-.78261-.78261-.78261z"/></g></g></svg>