<svg fill="none" height="18" viewBox="0 0 18 18" width="18" xmlns="http://www.w3.org/2000/svg" xmlns:xlink="http://www.w3.org/1999/xlink"><clipPath id="a"><path d="m0 0h18v18h-18z"/></clipPath><g clip-path="url(#a)"><path d="m0 8.99945c0 .61647.0621562 1.21845.180246 1.80005l8.819754.5478 8.8198-.5478c.1181-.5816.1802-1.18358.1802-1.80005 0-.61646-.0622-1.21841-.1802-1.8l-8.8198-.54784-8.819754.54784c-.1180898.58159-.180246 1.18354-.180246 1.8z" fill="#0052b4"/><path d="m17.8192 10.7993h-17.639512c.833872 4.108 4.465692 7.2 8.819752 7.2s7.98586-3.092 8.81976-7.2z" fill="#f0f0f0"/><path d="m.179688 7.2h17.639612c-.834-4.10801-4.4657-7.2-8.81986-7.2-4.35413 0-7.98588 3.09199-8.819752 7.2z" fill="#000"/><path d="m12.914 7.1995h-7.82611l1.59891-.75213-.85145-1.54846 1.73619.33205.22008-1.75391 1.20931 1.29002 1.20937-1.29002.2199 1.75391 1.7363-.33205-.8514 1.54853z" fill="#ffda44"/><g fill="#a2001d"><path d="m0 9.00066c0 4.97054 4.02947 9.00004 9 9.00004l-7.20014-14.40036c-1.130063 1.5043-1.79986 3.37402-1.79986 5.40032z"/><path d="m9 17.9999c4.9705 0 9-4.0294 9-8.99997 0-2.0263-.6698-3.89602-1.7999-5.40032z"/></g></g></svg>