<svg fill="none" height="18" viewBox="0 0 18 18" width="18" xmlns="http://www.w3.org/2000/svg" xmlns:xlink="http://www.w3.org/1999/xlink"><clipPath id="a"><path d="m0 0h18v18h-18z"/></clipPath><g clip-path="url(#a)"><path d="m18 9c0 4.9705-4.0295 9-9 9-4.97053 0-9-4.0295-9-9 0 .00214 9-8.99901562 9-9 4.9705 0 9 4.02947 9 9z" fill="#0052b4"/><path d="m8.97559 9.00044h.02412c0-.0081 0-.01599 0-.02412-.00803.00806-.01606.01609-.02412.02412z" fill="#f0f0f0"/><path d="m9 4.69564c0-1.58361 0-2.62125 0-4.69564h-.00152c-4.96989.00084375-8.99848 4.02993-8.99848 9h4.69564v-2.64414l2.64414 2.64414h1.63617c.00801-.00802.01603-.01603.02408-.02408 0-.60634 0-1.14736 0-1.63607l-2.64421-2.64421z" fill="#f0f0f0"/><path d="m4.55221 1.17383c-1.40762.80153-2.57787 1.97174-3.37936 3.37936v4.44674h2.34784v-5.47819-.00007h5.47826c0-.7405 0-1.44594 0-2.34784z" fill="#d80027"/><path d="m8.99869 7.89361-3.19764-3.19757h-1.10671v.00008l4.30428 4.30425h.00007s0-.76314 0-1.10676z" fill="#d80027"/><path d="m15.2204 10.318c.2588-.35604.4317-.79085.4317-1.31742v-3.91304c-.327.24568-.7334.39129-1.1739.39129-.6401 0-1.2083-.30737-1.5652-.78254-.357.47517-.9253.78254-1.5653.78254-.4405 0-.8469-.14565-1.1739-.39122v3.91297c0 .52657.1729.96138.4317 1.31742z" fill="#f3f3f3"/><g fill="#ff9811"><path d="m14.405 8.27417c.1246-.30396.2215-.74823.2215-.96933 0-.35525-.4631-.64322-.4631-.64322s-.4632.28797-.4632.64322c0 .22113.0969.6654.2215.96933l-.2674.60366c.1571.06392.3289.09943.5091.09943s.3519-.03555.5091-.09943z"/><path d="m12.5959 6.3201c-.3254.04408-.7586.18242-.9501.29296-.3076.17764-.3255.72267-.3255.72267s.481.2571.7886.07949c.1916-.11057.5278-.41657.7287-.67645l.6565-.07031c-.0232-.16797-.0785-.33451-.1684-.4905-.0902-.15599-.2067-.28705-.3407-.39122z"/><path d="m11.8079 8.86552c.2009.25973.5372.5657.7287.6763.3077.17761.7887-.07942.7887-.07942s-.018-.5451-.3256-.72274c-.1915-.11057-.6247-.24877-.9502-.29278l-.389-.53343c-.1339.10414-.2505.23527-.3406.39112-.0901.15605-.1452.32252-.1685.4906z"/></g><path d="m10.5088 10.1743c.7308 1.1727 2.4043 1.5652 2.4043 1.5652s1.6734-.3925 2.4043-1.5652z" fill="#338af3"/></g></svg>