<svg fill="none" height="18" viewBox="0 0 18 18" width="18" xmlns="http://www.w3.org/2000/svg" xmlns:xlink="http://www.w3.org/1999/xlink"><clipPath id="a"><path d="m0 0h18v18h-18z"/></clipPath><g clip-path="url(#a)"><path d="m9 18c4.9706 0 9-4.0294 9-9 0-4.97056-4.0294-9-9-9-4.97056 0-9 4.02944-9 9 0 4.9706 4.02944 9 9 9z" fill="#d80027"/><path d="m14.087 6.68055h-3.2599c.2012-.21072.3251-.49602.3251-.81042 0-.64832-.5256-1.1739-1.17392-1.1739-.40845 0-.76799.20869-.97826.52513-.21027-.31644-.56985-.52513-.97826-.52513-.64832 0-1.1739.52558-1.1739 1.1739 0 .3144.12385.59973.32509.81042h-3.25986c0 .86446.75294 1.56519 1.61732 1.56519h-.05217c0 .8645.70077 1.56527 1.56526 1.56527 0 .27999.0738.54249.20261.76969l-1.29832 1.2984.99612.996 1.413-1.4129c.05533.0202.1126.0365.17173.0476l-.85384 1.9278 1.32522 1.4325 1.32518-1.4326-.85381-1.9278c.05917-.0111.11641-.0273.17174-.0476l1.41297 1.413.9961-.9961-1.2983-1.2984c.1288-.2272.2026-.4897.2026-.7697.8645 0 1.5653-.70073 1.5653-1.56526h-.0522c.8644.00007 1.6174-.70063 1.6174-1.56509z" fill="#000"/></g></svg>