<svg fill="none" height="18" viewBox="0 0 18 18" width="18" xmlns="http://www.w3.org/2000/svg" xmlns:xlink="http://www.w3.org/1999/xlink"><clipPath id="a"><path d="m0 0h18v18h-18z"/></clipPath><g clip-path="url(#a)"><path d="m18 9.00001c0-1.10088-.198-2.15546-.5598-3.13041l-8.4402-.39133-8.440207.39129c-.361758.97499-.559793 2.02957-.559793 3.13045 0 1.10089.198035 2.15549.559793 3.13039l8.440207.3914 8.4402-.3913c.3618-.975.5598-2.0296.5598-3.13049z" fill="#0052b4"/><path d="m8.99978 17.9997c3.86972 0 7.16852-2.4424 8.44022-5.8696h-16.88043c1.27164 3.4272 4.57052 5.8696 8.44021 5.8696z" fill="#ff9811"/><path d="m.55957 5.86958h16.88043c-1.2717-3.4272-4.5705-5.86958-8.44022-5.86958-3.86969 0-7.16857 2.44238-8.44021 5.86958z" fill="#d80027"/></g></svg>