<svg fill="none" height="18" viewBox="0 0 18 18" width="18" xmlns="http://www.w3.org/2000/svg" xmlns:xlink="http://www.w3.org/1999/xlink"><clipPath id="a"><path d="m0 0h18v18h-18z"/></clipPath><g clip-path="url(#a)"><path d="m0 9c0-4.97053 4.02947-9 9-9 4.9705 0 9 4.02947 9 9-.3913 0-9 1.1739-9 1.1739z" fill="#d80027"/><path d="m18 9.00024c0 4.97056-4.0295 8.99996-9 8.99996-4.97053 0-9-4.0294-9-8.99996" fill="#000"/><g fill="#ffda44"><path d="m7.76465 7.15768.76296.55371-.29074.89677.76239-.55463.76303.55371-.29186-.89648.76237-.55456-.94276.00056-.2919-.89645-.29078.89677z"/><path d="m11.2488 5.10249c-.7092-.40947-1.48462-.60272-2.24997-.60138v1.17365c.5657-.00102 1.13877.14172 1.66307.44441 1.5882.91702 2.1344 2.95524 1.2174 4.54353-.917 1.5883-2.95521 2.1344-4.54354 1.2174-.46272-.2671-.83626-.6299-1.1116-1.0485l-.98002.647c.37255.5664.87866 1.0567 1.50469 1.4181 2.14889 1.2407 4.90647.5018 6.14707-1.6471 1.2407-2.1489.5018-4.90645-1.6471-6.14711z"/><path d="m6.40399 8.21698c-.31113.56879-.10223 1.28215.46653 1.59328l3.81268 2.08334c-.2593.474-.1216 1.0508.3523 1.3101l1.0299.5634c.474.2593 1.0685.0852 1.3278-.3888l.5634-1.0298z"/></g></g></svg>