<svg fill="none" height="18" viewBox="0 0 18 18" width="18" xmlns="http://www.w3.org/2000/svg" xmlns:xlink="http://www.w3.org/1999/xlink"><clipPath id="a"><path d="m0 0h18v18h-18z"/></clipPath><g clip-path="url(#a)"><path d="m9 18c4.9706 0 9-4.0294 9-9 0-4.97056-4.0294-9-9-9-4.97056 0-9 4.02944-9 9 0 4.9706 4.02944 9 9 9z" fill="#f0f0f0"/><path d="m9.00052-.00073242c-3.56815 0-6.65122 2.07650242-8.106965 5.08697242h16.213845c-1.4557-3.01047-4.5388-5.08697242-8.10688-5.08697242z" fill="#338af3"/><path d="m9.00052 17.9991c3.56808 0 6.65118-2.0765 8.10698-5.087h-16.213945c1.455745 3.0105 4.538815 5.087 8.106965 5.087z" fill="#338af3"/><path d="m11.6895 9.00008-1.0991.51704.5853 1.06448-1.19357-.2283-.15124 1.2057-.83134-.8868-.83137.8868-.15121-1.2057-1.19356.2283.58529-1.06452-1.09913-.517 1.09916-.51704-.58532-1.06446 1.19352.2283.15128-1.20572.83134.88678.83138-.88678.1512 1.20572 1.19357-.2283-.5853 1.06449z" fill="#ffda44"/></g></svg>