<svg fill="none" height="18" viewBox="0 0 18 18" width="18" xmlns="http://www.w3.org/2000/svg" xmlns:xlink="http://www.w3.org/1999/xlink"><clipPath id="a"><path d="m0 0h18v18h-18z"/></clipPath><g clip-path="url(#a)"><path d="m9 18c4.9706 0 9-4.0294 9-9 0-4.97056-4.0294-9-9-9-4.97056 0-9 4.02944-9 9 0 4.9706 4.02944 9 9 9z" fill="#f0f0f0"/><path d="m13.3663 1.12894c-1.2932-.718878-2.7818-1.12894-4.3663-1.12894-4.97018 0-8.99936719 4.02884-9 8.99895l6.26087-3.12937z" fill="#0052b4"/><path d="m0 9.0014c.00063281 4.9701 4.02982 8.9989 9 8.9989 1.5845 0 3.0731-.41 4.3663-1.1289l-7.10543-4.7406z" fill="#0052b4"/><path d="m14.1163 1.59529c-.2417-.16731-.4922-.32291-.7504-.46638l-13.3659 7.86986v.00106.00105l13.366 7.86982c.2581-.1435.5086-.2991.7503-.4664l-12.57568-7.40447z" fill="#d80027"/><path d="m15.6519 8.66448h-1.0721c.2788-.33469.2616-.83261-.0524-1.14659.3326-.33261.3326-.87194 0-1.20463l-.0201.02011c.3326-.33261.3527-.89205.0201-1.22467l-4.81842 4.81838c.33262.33272.86252.32872 1.19512-.00394l.0928-.08476 2.3072-.20974v.99236h.7826v-1.06352l1.1739-.1067z" fill="#a2001d"/><path d="m9.7829 10.9567-.7829-.3913.7829-.3913h5.0869v.7826z" fill="#ffda44"/></g></svg>