<svg fill="none" height="18" viewBox="0 0 18 18" width="18" xmlns="http://www.w3.org/2000/svg" xmlns:xlink="http://www.w3.org/1999/xlink"><clipPath id="a"><path d="m0 0h18v18h-18z"/></clipPath><g clip-path="url(#a)"><path d="m17.4402 12.1297c.3618-.9749.5598-2.0295.5598-3.13037 0-1.10088-.198-2.15539-.5598-3.13041l-8.4402-.78262-8.440207.78262c-.361758.97502-.559793 2.02953-.559793 3.13041 0 1.10087.198035 2.15547.559793 3.13037l8.440207.7827z" fill="#f0f0f0"/><g fill="#d80027"><path d="m8.99981 17.9997c3.86969 0 7.16859-2.4424 8.44019-5.8696h-16.88043c1.27167 3.4272 4.57052 5.8696 8.44024 5.8696z"/><path d="m8.99981 0c-3.86972 0-7.16857 2.44238-8.44024 5.86958h16.88043c-1.2716-3.4272-4.5705-5.86958-8.44019-5.86958z"/></g></g></svg>