<svg fill="none" height="18" viewBox="0 0 18 18" width="18" xmlns="http://www.w3.org/2000/svg" xmlns:xlink="http://www.w3.org/1999/xlink"><clipPath id="a"><path d="m0 0h18v18h-18z"/></clipPath><g clip-path="url(#a)"><path d="m18 9c0 4.9705-4.0295 9-9 9-4.97053 0-9-4.0295-9-9 0 .00211 9-8.99898047 9-9 4.9705 0 9 4.02947 9 9z" fill="#0052b4"/><path d="m8.97559 9.00032h.02413c0-.00817 0-.01599 0-.02412-.00804.00806-.01607.01609-.02413.02412z" fill="#f0f0f0"/><path d="m9 4.6965c0-1.58361 0-2.62132 0-4.69564551h-.00152c-4.96986.0008086-8.99848 4.02988551-8.99848 8.99996551h4.69564v-2.64417l2.64417 2.64417h1.63614c.00805-.00802.01607-.01603.02408-.02408 0-.60634 0-1.14736 0-1.63603l-2.64421-2.64421z" fill="#f0f0f0"/><path d="m4.55319 1.17419c-1.40762.80153-2.57783 1.97174-3.37936 3.37936v4.44674h2.34784v-5.47822-.00004h5.47826c0-.74049 0-1.44594 0-2.34784z" fill="#d80027"/><path d="m9.0006 7.89359-3.19756-3.19753h-1.10675c0-.00003 0 0 0 0l4.30428 4.30429h.00003s0-.76307 0-1.10676z" fill="#d80027"/><g fill="#f0f0f0"><path d="m5.4287 10.5649.49394 1.0329 1.11541-.2578-.4995 1.0301.89697.7113-1.11681.2517.00313 1.1449-.89314-.7163-.89311.7163.00313-1.1449-1.11684-.2517.89701-.7113-.49957-1.0301 1.11547.2578z"/><path d="m13.476 12.5217.247.5164.5577-.1289-.2497.5151.4485.3557-.5584.1258.0015.5724-.4466-.3581-.4465.3581.0015-.5724-.5583-.1258.4484-.3557-.2497-.5151.5577.1289z"/><path d="m11.1782 7.0437.247.51645.5577-.12896-.2498.51508.4485.35567-.5584.12586.0016.57242-.4466-.35814-.4465.35814.0015-.57242-.5584-.12586.4485-.35567-.2498-.51508.5578.12896z"/><path d="m13.476 3.91333.247.51645.5577-.12892-.2497.51507.4484.35564-.5583.1259.0015.57241-.4466-.35813-.4465.35813.0015-.57241-.5583-.1259.4484-.35564-.2497-.51507.5577.12892z"/><path d="m15.4819 6.26099.247.51644.5577-.12895-.2498.51507.4485.35568-.5584.12589.0016.57238-.4466-.3581-.4465.3581.0015-.57238-.5584-.12589.4485-.35568-.2497-.51507.5576.12895z"/><path d="m14.0475 9.00037.1943.59786h.6286l-.5086.36953.1943.59784-.5086-.3695-.5086.3695.1943-.59784-.5086-.36953h.6286z"/></g></g></svg>