<svg fill="none" height="18" viewBox="0 0 18 18" width="18" xmlns="http://www.w3.org/2000/svg" xmlns:xlink="http://www.w3.org/1999/xlink"><clipPath id="a"><path d="m0 0h18v18h-18z"/></clipPath><g clip-path="url(#a)"><path d="m9 18c4.9706 0 9-4.0294 9-9 0-4.97056-4.0294-9-9-9-4.97056 0-9 4.02944-9 9 0 4.9706 4.02944 9 9 9z" fill="#ffda44"/><g fill="#338af3"><path d="m9.00019 18.0003c2.72781 0 5.17201-1.2138 6.82241-3.1304h-13.64487c1.65048 1.9166 4.09465 3.1304 6.82246 3.1304z"/><path d="m18 9c0-4.97053-4.0295-9-9-9-4.97053 0-9 4.02947-9 9 0 .81236.108281 1.5992.310043 2.3478h17.379957c.2017-.7486.31-1.53544.31-2.3478z"/><path d="m.71582 12.5221c.173496.4077.37631.7997.60557 1.1739h15.35811c.2292-.3742.432-.7663.6056-1.1739z"/></g><path d="m4.12361 5.67675-1.75838-.77604 1.75838-.77604.776-1.75834.77601 1.75834 1.75834.77604-1.75834.77604-.77601 1.75834z" fill="#f0f0f0"/><path d="m4.90019 3.33557.47921 1.08594 1.08598.47929-1.08598.47925-.47921 1.08594-.47929-1.08594-1.08594-.47925 1.08594-.47929z" fill="#d80027"/></g></svg>