<svg fill="none" height="18" viewBox="0 0 18 18" width="18" xmlns="http://www.w3.org/2000/svg" xmlns:xlink="http://www.w3.org/1999/xlink"><clipPath id="a"><path d="m0 0h18v18h-18z"/></clipPath><g clip-path="url(#a)"><path d="m17.69 11.3474c.2017-.7486.31-1.53547.31-2.34783s-.1083-1.59922-.31-2.34784l-9.47261-6.6179165c-1.75855.1515235-3.37233.8085935-4.69565 1.8253465l-3.211697 4.79257c-.201762.74862-.310043 1.53548-.310043 2.34784 0 .80761.10698 1.59013.306492 2.33483l3.215218 4.8056c1.32331 1.0167 2.93709 1.6738 4.69564 1.8253z" fill="#ffda44"/><g fill="#0052b4"><path d="m.310547 11.3479c.520734 1.9322 1.668413 3.6068 3.211703 4.7926v-4.7926z"/><path d="m8.21777 17.9658c.25798.0222.51887.0343.78262.0343 4.15821 0 7.65721-2.8203 8.68991-6.6522h-9.47253z"/><path d="m17.6903 6.65216c-1.0327-3.83189-4.5317-6.65216-8.68991-6.65216-.26375 0-.52464.0120234-.78262.0342422v6.6179178z"/><path d="m3.52225 1.85986c-1.54329 1.18582-2.690969 2.86042-3.211703 4.79257h3.211703z"/></g><path d="m17.9238 7.82573h-10.88028-.00004v-7.612168c-.83172.18443-1.62024.483363-2.34784.880378v6.73176h-4.6194564c-.0500977.38429-.0761836.77607-.0761836 1.17394 0 .39786.0260859.78964.0761836 1.17386h4.6194264.00003v6.7318c.7276.397 1.51612.696 2.34784.8804v-7.6121h10.88032c.05-.38432.0762-.7761.0762-1.17396 0-.39787-.0262-.78965-.0762-1.17391z" fill="#d80027"/></g></svg>