<svg fill="none" height="18" viewBox="0 0 18 18" width="18" xmlns="http://www.w3.org/2000/svg" xmlns:xlink="http://www.w3.org/1999/xlink"><clipPath id="a"><path d="m0 0h18v18h-18z"/></clipPath><g clip-path="url(#a)"><path d="m18 9.00001c0-1.10088-.198-2.15546-.5598-3.13041l-8.4402-.39133-8.440207.39129c-.361758.97499-.559793 2.02957-.559793 3.13045 0 1.10089.198035 2.15549.559793 3.13039l8.440207.3914 8.4402-.3913c.3618-.975.5598-2.0296.5598-3.13049z" fill="#d80027"/><path d="m9.00075 17.9997c3.86965 0 7.16855-2.4424 8.44025-5.8696h-16.880453c1.271633 3.4272 4.570523 5.8696 8.440203 5.8696z" fill="#6da544"/><path d="m.560547 5.86885h16.880453c-1.2717-3.42721-4.5706-5.86958242-8.44025-5.86958242-3.86968 0-7.16857 2.44237242-8.440203 5.86958242z" fill="#338af3"/><g fill="#f0f0f0"><path d="m9.19461 11.5433c-1.4047 0-2.54348-1.1388-2.54348-2.54346 0-1.4047 1.13878-2.54349 2.54348-2.54349.43798 0 .85009.11075 1.20989.30572-.56446-.55199-1.33635-.89269-2.18815-.89269-1.72891 0-3.13041 1.40154-3.13041 3.13042 0 1.7289 1.40154 3.1304 3.13041 3.1304.85184 0 1.62373-.3407 2.18815-.8927-.3598.1951-.77191.3058-1.20989.3058z"/><path d="m11.1515 7.23804.3369.94749.9082-.43179-.4317.90823.9475.33694-.9475.33694.4317.90825-.9082-.43182-.3369.94752-.3369-.94752-.90823.43182.43183-.90825-.94758-.33694.94758-.33694-.43183-.90823.90823.43179z"/></g></g></svg>