<svg fill="none" height="18" viewBox="0 0 18 18" width="18" xmlns="http://www.w3.org/2000/svg" xmlns:xlink="http://www.w3.org/1999/xlink"><clipPath id="a"><path d="m0 0h18v18h-18z"/></clipPath><g clip-path="url(#a)"><path d="m9 18c4.9706 0 9-4.0294 9-9 0-4.97056-4.0294-9-9-9-4.97056 0-9 4.02944-9 9 0 4.9706 4.02944 9 9 9z" fill="#f0f0f0"/><path d="m9.00041-.00054932c-3.19114 0-5.99414 1.66088932-7.59221 4.16527932l12.2048 12.56377c2.6277-1.5715 4.3874-4.4446 4.3874-7.72905 0-4.97053-4.0295-8.99999932-8.99999-8.99999932z" fill="#ffda44"/><g fill="#0052b4"><path d="m18.0002 8.99936c0-2.33515-.8894-4.46238-2.3479-6.06192v12.12386c1.4585-1.5996 2.3479-3.7268 2.3479-6.06194z"/><path d="m11.2426 16.9402.9427-.0006.2908-.8968.2919.8965.4728-.0003c.29-.1552.5704-.3258.8403-.5108l-12.51-12.50993c-.20616.3008-.39417.61489-.56324.94043l.11116.34144.94272-.0006-.76233.55459.29187.89645-.763034-.55364-.455098.33103c-.242613.81478-.373148 1.67784-.373148 2.5714 0 4.97053 4.02947 9.00003 9 9.00003 1.0509 0 2.0596-.1804 2.9971-.5116zm-9.23521-8.33212.29074-.89676-.76296-.55371.94271-.0006.29078-.8968.29187.89645.94271-.0006-.76236.55459.29187.89645-.76304-.55364zm1.9415 1.95652.29074-.89677-.76296-.55371.94272-.0006.29077-.8968.29187.89645.94272-.00059-.76233.55458.29187.89644-.76304-.5536zm1.94147 1.9565.29074-.8968-.76296-.5537.94272-.0006.29077-.8968.29187.8965.94271-.0006-.76232.5546.29186.8964-.76303-.5537zm2.70383 1.4019-.76236.5546.29074-.8967-.76296-.5537.94271-.0006.29082-.8968.29186.8964.94272-.0006-.76233.5546.29187.8964zm1.17914 2.5111.29077-.8967-.76299-.5537.94269-.0006.2908-.8968.2919.8964.9427-.0006-.7623.5546.2918.8965-.763-.5537z"/></g></g></svg>