<svg fill="none" height="18" viewBox="0 0 18 18" width="18" xmlns="http://www.w3.org/2000/svg" xmlns:xlink="http://www.w3.org/1999/xlink"><clipPath id="a"><path d="m0 0h18v18h-18z"/></clipPath><g clip-path="url(#a)"><path d="m12.9134.893161c-1.1833-.572133-2.5107-.89303893-3.91307-.89303893-1.40238 0-2.72981.32090593-3.91303.89303893l-.78261 8.106959.78261 8.10698c1.18322.5721 2.51065.893 3.91303.893 1.40237 0 2.72977-.3209 3.91307-.893l.7826-8.10698z" fill="#ffda44"/><path d="m5.08697.893433c-3.01043 1.455677-5.08697 4.538497-5.08697 8.106647 0 3.56812 2.07654 6.65092 5.08697 8.10662z" fill="#0052b4"/><path d="m12.9131.893799v16.213301c3.0104-1.4557 5.087-4.5385 5.087-8.10666 0-3.56811-2.0766-6.65096-5.087-8.106641z" fill="#0052b4"/><path d="m11.7386 5.47756.525.26248-.525-.26248-.525-.26248c-.0317.06332-.7172 1.45807-.8292 3.58858h-.79796v-3.3261l-.58697-.78261-.58697.78261v3.3261h-.79801c-.11201-2.13051-.79749-3.52526-.82916-3.58858l-1.04998.52499c.00724.01442.72067 1.46655.72067 3.65056v.58697h1.95651v3.3261h1.17391v-3.3261h1.95656v-.58701c0-1.12915.1953-2.06023.3592-2.64248.1787-.63493.3603-1.00572.3621-1.00941z" fill="#000"/></g></svg>