<svg fill="none" height="18" viewBox="0 0 18 18" width="18" xmlns="http://www.w3.org/2000/svg" xmlns:xlink="http://www.w3.org/1999/xlink"><clipPath id="a"><path d="m0 0h18v18h-18z"/></clipPath><g clip-path="url(#a)"><path d="m12.1304.559915c-.975-.361758-2.0296-.55979293-3.13045-.55979293-1.10089 0-2.15543.19803493-3.13042.55979293l-.78262 8.440205.78262 8.44018c.97499.3618 2.02953.5598 3.13042.5598 1.10085 0 2.15545-.198 3.13045-.5598l.7826-8.44018z" fill="#ffda44"/><path d="m18.0004 8.9995c0-3.86965-2.4423-7.16857-5.8695-8.440174v16.880474c3.4272-1.2717 5.8695-4.5706 5.8695-8.4403z" fill="#d80027"/><path d="m0 8.99999c0 3.86971 2.44238 7.16861 5.86958 8.44021v-16.880386c-3.4272 1.271606-5.86958 4.570526-5.86958 8.440176z" fill="#000"/></g></svg>