<svg fill="none" height="18" viewBox="0 0 18 18" width="18" xmlns="http://www.w3.org/2000/svg" xmlns:xlink="http://www.w3.org/1999/xlink"><clipPath id="a"><path d="m0 0h18v18h-18z"/></clipPath><g clip-path="url(#a)"><path d="m9 18c4.9706 0 9-4.0294 9-9 0-4.97056-4.0294-9-9-9-4.97056 0-9 4.02944-9 9 0 4.9706 4.02944 9 9 9z" fill="#f0f0f0"/><path d="m8.99974-.00073242c-1.80619 0-3.48778.53244142-4.89726 1.44836242l2.31465 1.55142-2.89565 1.49997 2.89565 1.49998-2.89565 1.49997 2.89565 1.49981-2.89565 1.49992 2.89565 1.5-2.89565 1.5001 2.89565 1.5-2.31493 1.5519c1.40955.9161 3.09125 1.4486 4.89754 1.4486 4.97056 0 8.99996-4.0295 8.99996-9.00003s-4.0294-9.00000242-8.99996-9.00000242z" fill="#d80027"/></g></svg>