<svg fill="none" height="18" viewBox="0 0 18 18" width="18" xmlns="http://www.w3.org/2000/svg" xmlns:xlink="http://www.w3.org/1999/xlink"><clipPath id="a"><path d="m0 0h18v18h-18z"/></clipPath><g clip-path="url(#a)"><path d="m9 18c4.9706 0 9-4.0294 9-9 0-4.97056-4.0294-9-9-9-4.97056 0-9 4.02944-9 9 0 4.9706 4.02944 9 9 9z" fill="#f0f0f0"/><path d="m14.4805 1.86006c-3.2221-2.479425-7.73785-2.479425-10.95999-.00003l5.48001 5.48002z" fill="#d80027"/><path d="m9.00045 10.6605-5.47994 5.4799c3.22214 2.4795 7.73789 2.4795 10.95999 0l-5.47998-5.48z" fill="#d80027"/><path d="m7.33955 9.00016-5.47998-5.48002c-2.479427 3.22214-2.479427 7.73786 0 10.96006z" fill="#6da544"/><path d="m10.6602 9.00016 5.4799 5.48004c2.4794-3.2222 2.4794-7.73792 0-10.96006z" fill="#6da544"/><path d="m9.00093 12.9133c2.16107 0 3.91307-1.7519 3.91307-3.91299 0-2.16111-1.752-3.91303-3.91307-3.91303-2.16111 0-3.91304 1.75192-3.91304 3.91303 0 2.16109 1.75193 3.91299 3.91304 3.91299z" fill="#f0f0f0"/><g fill="#d80027"><path d="m9.00001 6.26123.33887.58697h.67782l-.33895.58693.33895.58697h-.67782l-.33887.58697-.33887-.58697h-.67774l.33887-.58697-.33887-.58693h.67774z"/><path d="m7.27739 9.00073.33887.58697h.67774l-.33887.5869.33887.587h-.67774l-.33887.587-.33891-.587h-.67774l.33887-.587-.33887-.5869h.67774z"/><path d="m10.7227 9.00073.3389.58697h.6777l-.3389.5869.3389.587h-.6777l-.3389.587-.3389-.587h-.67775l.33885-.587-.33885-.5869h.67775z"/></g></g></svg>