<svg fill="none" height="18" viewBox="0 0 18 18" width="18" xmlns="http://www.w3.org/2000/svg" xmlns:xlink="http://www.w3.org/1999/xlink"><clipPath id="a"><path d="m0 0h18v18h-18z"/></clipPath><g clip-path="url(#a)"><path d="m9 18c4.9706 0 9-4.0294 9-9 0-4.97056-4.0294-9-9-9-4.97056 0-9 4.02944-9 9 0 4.9706 4.02944 9 9 9z" fill="#f0f0f0"/><path d="m16.0694 7.23924h-2.9609c0-.54027-.438-.97825-.9782-.97825l-.7826 1.56521s.8348 2.3478.8087 2.3478h.9782c.5403 0 .9783-.43792.9783-.97822.5403 0 .9782-.43795.9782-.97826h-.0326c.5403-.00003 1.0109-.43798 1.0109-.97828z" fill="#acabb1"/><path d="m1.93066 7.23924h2.96087c0-.54027.43798-.97825.97825-.97825l.78262 1.56521s-.8348 2.3478-.80869 2.3478h-.97826c-.5403 0-.97825-.43792-.97825-.97822-.5403 0-.97825-.43795-.97825-.97826h.03258c-.5403-.00003-1.01087-.43798-1.01087-.97828z" fill="#acabb1"/><path d="m12.1308 12.5217v.3913h-6.2609v-.3913h-1.56521v1.5652h1.56521v.3913h6.2609v-.3913h1.5652v-1.5652z" fill="#ffda44"/><path d="m5.86914 6.26141v3.91299c0 2.3962 3.13042 3.1305 3.13042 3.1305s3.13044-.7343 3.13044-3.1305v-3.91299l-3.13044-.39129z" fill="#0052b4"/><path d="m12.13 7.82568h-6.26086v2.34782h6.26086z" fill="#d80027"/><path d="m10.5648 4.30411v.58696l-.3913.19566-.39132-.39133v-1.17392h-1.56521v1.17392l-.39129.39133-.39133-.19566v-.58696h-1.56521v1.9565h6.26086v-1.9565z" fill="#ffda44"/></g></svg>