<svg fill="none" height="18" viewBox="0 0 18 18" width="18" xmlns="http://www.w3.org/2000/svg" xmlns:xlink="http://www.w3.org/1999/xlink"><clipPath id="a"><path d="m0 0h18v18h-18z"/></clipPath><g clip-path="url(#a)"><path d="m18 9c0 4.9705-4.0295 9-9 9-4.97053 0-9-4.0295-9-9 0 .00214 9-8.99901562 9-9 4.9705 0 9 4.02947 9 9z" fill="#d80027"/><path d="m9.00053 4.3042v3.0355l-3.13041-3.0355z" fill="#0052b4"/><path d="m4.69598 8.99977h2.64413l-2.64413-3.52174-.39129 2.73913z" fill="#0052b4"/><path d="m8.97656 9.00093h.02413c0-.0081 0-.01599 0-.02412-.00803.00806-.01606.01609-.02413.02412z" fill="#f0f0f0"/><path d="m8.99902 4.69601c0-1.58361 0-2.62125 0-4.69564379h-.00151c-4.9699.00084375-8.99848656 4.02992379-8.99848656 9.00000379h4.69564656v-2.64414l2.64414 2.64414h1.63617c.00801-.00802.01603-.01603.02408-.02409 0-.60634 0-1.14736 0-1.63606l-2.64421-2.64421z" fill="#f0f0f0"/><path d="m4.55221 1.17395c-1.40762.80153-2.57787 1.97174-3.37936 3.37936v4.83803h2.34784v-5.86948-.00007h5.86955c0-.74049 0-1.44594 0-2.34784z" fill="#d80027"/><path d="m9.35648 8.25014-3.55543-3.55532h-1.10671v.00007l4.66203 4.66204h.00007c.00004.00003.00004-.7631.00004-1.10679z" fill="#d80027"/><path d="m10.1738 4.69495v4.30432c0 2.09673 5.4783 2.09673 5.4783 0v-4.30432z" fill="#f3f3f3"/><path d="m10.1738 9.0004v-.00003c0 2.09673 2.7392 2.73913 2.7392 2.73913s2.7391-.6424 2.7391-2.73913v.00003z" fill="#6da544"/><path d="m12.9124 7.27832-1.2718.54784v1.1739l1.2718.78261 1.2717-.78261v-1.1739z" fill="#a2001d"/><path d="m14.1841 6.65149h-2.5435v1.1739h2.5435z" fill="#338af3"/></g></svg>