<svg fill="none" height="18" viewBox="0 0 18 18" width="18" xmlns="http://www.w3.org/2000/svg" xmlns:xlink="http://www.w3.org/1999/xlink"><clipPath id="a"><path d="m0 0h18v18h-18z"/></clipPath><g clip-path="url(#a)"><path d="m9.00063 17.9983c4.96987 0 8.99867-4.0288 8.99867-8.99864s-4.0288-8.99868344-8.99867-8.99868344c-4.96983 0-8.99867688 4.02884344-8.99867688 8.99868344s4.02884688 8.99864 8.99867688 8.99864z" fill="#f0f0f0"/><path d="m1.20705 4.50098c-.406168.70342-.705776 1.43883-.905292 2.18792l15.049242 8.6887c.549-.5473 1.0361-1.1746 1.4422-1.8779z" fill="#000"/><path d="m13.4987 1.2069c-3.60064-2.078795-8.04027-1.385956-10.85026 1.41578l15.04926 8.68862c1.0214-3.83425-.5984-8.02556-4.199-10.1044z" fill="#ffda44"/><path d="m4.50023 16.7925c3.60057 2.0788 8.04027 1.386 10.85027-1.4157l-15.04932-8.68881c-1.021346 3.83441.598407 8.02571 4.19905 10.10451z" fill="#ffda44"/><g fill="#d80027"><path d="m11.5423 8.02225c0 1.40449-1.1386 2.54315-2.54317 2.54315-1.40452 0-2.54311-1.13863-2.54311-2.54315 0-.43791.11071-.84999.30569-1.20975-.55186.56437-.89257 1.33614-.89257 2.18785 0 1.72865 1.40132 3.12995 3.12999 3.12995s3.12997-1.4013 3.12997-3.12995c0-.85171-.3406-1.62348-.8925-2.18785.1949.35983.3057.77184.3057 1.20975z"/><path d="m9.58683 5.08765h-1.17374v5.86875h1.17374z"/><path d="m10.9564 6.26123h-3.91245c0 .27011.2353.48907.50538.48907h-.01631c0 .27011.21899.48907.48907.48907 0 .27011.21899.48907.48907.48907h.9781c.27011 0 .48907-.21896.48907-.48907.27007 0 .48907-.21896.48907-.48907h-.0163c.27-.00004.5053-.21892.5053-.48907z"/><path d="m11.7392 11.3475h-5.47748v1.1738h5.47748z"/><path d="m12.5213 11.7383h-2.3475v1.1737h2.3475z"/><path d="m7.82598 11.7383h-2.34746v1.1737h2.34746z"/></g></g></svg>