<svg fill="none" height="18" viewBox="0 0 18 18" width="18" xmlns="http://www.w3.org/2000/svg" xmlns:xlink="http://www.w3.org/1999/xlink"><clipPath id="a"><path d="m0 0h18v18h-18z"/></clipPath><g clip-path="url(#a)"><path d="m18 9.0005c0-1.10088-.198-2.15546-.5598-3.13042l-8.4402-.39132-8.440207.39129c-.361793.97499-.559793 2.02957-.559793 3.13045 0 1.1009.198 2.1555.559793 3.1304l8.440207.3913 8.4402-.3912c.3618-.975.5598-2.0296.5598-3.1305z" fill="#ffda44"/><path d="m8.99978 17.9999c3.86972 0 7.16852-2.4423 8.44022-5.8695h-16.88043c1.27164 3.4272 4.57052 5.8695 8.44021 5.8695z" fill="#6da544"/><path d="m.55957 5.86983h16.88043c-1.2717-3.42721-4.5705-5.86958586-8.44022-5.86958586-3.86969 0-7.16857 2.44237586-8.44021 5.86958586z" fill="#d80027"/></g></svg>