<svg fill="none" height="18" viewBox="0 0 18 18" width="18" xmlns="http://www.w3.org/2000/svg" xmlns:xlink="http://www.w3.org/1999/xlink"><clipPath id="a"><path d="m0 0h18v18h-18z"/></clipPath><g clip-path="url(#a)"><path d="m9 18c4.9706 0 9-4.0294 9-9 0-4.97056-4.0294-9-9-9-4.97056 0-9 4.02944-9 9 0 4.9706 4.02944 9 9 9z" fill="#f0f0f0"/><path d="m9 .0009799c-.0084-.00632813-9.00239015 8.9976401-8.99999952 9.0000001 0-4.97053 4.02946952-9.0000001 8.99999952-9.0000001z" fill="#d80027"/><path d="m9 .00000333c.0084-.00632812 9.0024 8.99760667 9 8.99999667 0-4.97053-4.0295-8.99999667-9-8.99999667z" fill="#d80027"/><path d="m9 17.9996c-.0084.0064-9.00239015-8.99758-8.99999952-8.99997 0 4.97057 4.02946952 8.99997 8.99999952 8.99997z" fill="#0052b4"/><path d="m9 17.9991c.0084.0064 9.0024-8.99756 9-8.99995 0 4.97055-4.0295 8.99995-9 8.99995z" fill="#0052b4"/><path d="m8.99917 4.69556.9713 2.9893h3.14313l-2.5429 1.84746.9713 2.98938-2.54283-1.8475-2.54285 1.8475.9713-2.98938-2.54285-1.84746h3.1431z" fill="#ffda44"/></g></svg>