<svg fill="none" height="18" viewBox="0 0 18 18" width="18" xmlns="http://www.w3.org/2000/svg" xmlns:xlink="http://www.w3.org/1999/xlink"><clipPath id="a"><path d="m0 0h18v18h-18z"/></clipPath><g clip-path="url(#a)"><g fill="#d80027"><path d="m3.92773 16.4346c1.44443.9874 3.19089 1.5652 5.07259 1.5652 1.88168 0 3.62818-.5778 5.07258-1.5652l-5.07258-.7826z"/><path d="m14.0729 1.56535c-1.4444-.987365-3.1909-1.56522793-5.07258-1.56522793-1.8817 0-3.62823.57786293-5.07259 1.56522793l5.07259.78261z"/><path d="m3.92773 16.4345c1.44443.9873 3.19089 1.5652 5.07259 1.5652 1.88168 0 3.62818-.5779 5.07258-1.5652l-5.07258-.7826z"/><path d="m14.0729 1.56523c-1.4444-.987367-3.1909-1.56523-5.07258-1.56523-1.8817 0-3.62823.577863-5.07259 1.56523l5.07259.78261z"/></g><path d="m17.9777 8.4123c-.2132-2.7777-1.901-5.47826-3.9045-6.84785h-10.14517c-2.21963 1.51738-3.725264 4.00251-3.9084988 6.84785l8.9810888.58697z" fill="#0052b4"/><path d="m.0185547 9.5866c.1832343 2.8454 1.6888353 5.3305 3.9084653 6.8478h10.14518c2.2197-1.5173 3.7253-4.0024 3.9085-6.8478l-8.98106-.58697z" fill="#0052b4"/><path d="m17.9771 8.41292h-8.39013v-7.23909h-1.1739v7.23909h-8.3941208c-.01248045.19407-.0189492.38978-.0189492.58701 0 .19719.00643359.39287.0189141.58693h8.3941559v7.23914h1.1739v-7.23914h8.39413c.0125-.19406.0189-.38974.0189-.58693 0-.19579-.0079-.39157-.0229-.58701z" fill="#d80027"/><path d="m3.52246 8.99943 5.47822-3.44328 5.47832 3.44328-5.47832 3.44327z" fill="#f0f0f0"/><path d="m5.86914 10.5654h7.04346l-1.5652-2.34787-.7826.78261-.78263-.39129-.78261 1.17391h-1.56523l-.78261-.78262z" fill="#6da544"/><path d="m9.00056 6.65161.19427.59783h.62856l-.50853.36953.19427.59787-.50857-.36949-.50857.36949.19428-.59787-.50854-.36953h.62856z" fill="#ffda44"/><path d="m9.00048 4.57239-7.04345 4.42708 7.04345 4.42713 7.04352-4.42713zm-4.83746 4.42708 4.83746-3.04056 4.83752 3.04056-4.83752 3.04053z" fill="#d80027"/></g></svg>