<svg fill="none" height="18" viewBox="0 0 18 18" width="18" xmlns="http://www.w3.org/2000/svg" xmlns:xlink="http://www.w3.org/1999/xlink"><clipPath id="a"><path d="m0 0h18v18h-18z"/></clipPath><g clip-path="url(#a)"><path d="m9 18c4.9706 0 9-4.0294 9-9 0-4.97056-4.0294-9-9-9-4.97056 0-9 4.02944-9 9 0 4.9706 4.02944 9 9 9z" fill="#f0f0f0"/><path d="m2.63675 2.63574c-1.928852 1.92885-2.798864 4.51544-2.6106728 7.03776l9.6483928-9.6483908c-2.52233-.1882262-5.10888.6817848-7.03772 2.6106308z" fill="#ffda44"/><path d="m3.21387 15.8924c3.53605 2.975 8.82213 2.799 12.15033-.5292 3.3283-3.3282 3.5042-8.61429.5292-12.15031z" fill="#0052b4"/><path d="m8.96803 8.63757.77558-.42012-.77558-.42012c-.18109-1.17636-1.11055-2.10586-2.28691-2.28691l-.42015-.77562-.42012.77558c-1.17633.18106-2.10579 1.11056-2.28691 2.28692l-.77562.42015.77558.42012c.18109 1.17636 1.11055 2.10583 2.28691 2.28693l.42016.7756.42011-.7756c1.1764-.1811 2.10586-1.11057 2.28695-2.28693zm-2.70703 1.14511c-.86445 0-1.56522-.70074-1.56522-1.56523s.70073-1.56523 1.56522-1.56523 1.56523.70074 1.56523 1.56523-.70077 1.56523-1.56523 1.56523z" fill="#000"/><path d="m6.26075 7.04321.33887.58694h.67778l-.3389.58696.3389.58697h-.67778l-.33887.58693-.33887-.58693h-.67774l.33887-.58697-.33887-.58696h.67774z" fill="#d80027"/></g></svg>