<svg fill="none" height="18" viewBox="0 0 18 18" width="18" xmlns="http://www.w3.org/2000/svg" xmlns:xlink="http://www.w3.org/1999/xlink"><clipPath id="a"><path d="m0 0h18v18h-18z"/></clipPath><g clip-path="url(#a)"><path d="m9 18c4.9706 0 9-4.0294 9-9 0-4.97056-4.0294-9-9-9-4.97056 0-9 4.02944-9 9 0 4.9706 4.02944 9 9 9z" fill="#6da544"/><path d="m9.0002 3.52209 7.4348 5.47826-7.4348 5.47825-7.43477-5.47825z" fill="#ffda44"/><path d="m8.99956 12.1303c1.72884 0 3.13044-1.4015 3.13044-3.13037 0-1.72889-1.4016-3.13042-3.13044-3.13042-1.72888 0-3.13042 1.40153-3.13042 3.13042 0 1.72887 1.40154 3.13037 3.13042 3.13037z" fill="#f0f0f0"/><g fill="#0052b4"><path d="m7.4353 8.80457c-.54436 0-1.0697.08279-1.56421.23642.02191 1.71001 1.41423 3.08971 3.12943 3.08971 1.06058 0 1.99728-.528 2.56358-1.3349-.9688-1.21274-2.45948-1.99123-4.1288-1.99123z"/><path d="m12.0731 9.59982c.0377-.19421.058-.39456.058-.59977 0-1.72892-1.4015-3.13042-3.13038-3.13042-1.29003 0-2.39745.7805-2.8767 1.89489.42364-.08779.86224-.13402 1.31151-.13402 1.81817-.00003 3.46297.75576 4.63757 1.96932z"/></g></g></svg>