<svg fill="none" height="18" viewBox="0 0 18 18" width="18" xmlns="http://www.w3.org/2000/svg" xmlns:xlink="http://www.w3.org/1999/xlink"><clipPath id="a"><path d="m0 0h18v18h-18z"/></clipPath><g clip-path="url(#a)"><path d="m9 18c4.9706 0 9-4.0294 9-9 0-4.97056-4.0294-9-9-9-4.97056 0-9 4.02944-9 9 0 4.9706 4.02944 9 9 9z" fill="#ffda44"/><path d="m5.47962 5.86885h11.96188c-1.2716-3.42721-4.5705-5.86958242-8.44014-5.86958242-2.48533 0-4.73509 1.00754242-6.36366 2.63633242z" fill="#338af3"/><path d="m5.47864 12.1294h11.96196c-1.2716 3.4272-4.5706 5.8696-8.44021 5.8696-2.48534 0-4.73509-1.0076-6.36367-2.6364z" fill="#338af3"/><path d="m2.63603 2.63574c-3.514708 3.51471-3.514708 9.21326 0 12.72796 1.45241-1.4524 2.84928-2.8493 6.36399-6.36397z" fill="#000"/></g></svg>