<svg fill="none" height="18" viewBox="0 0 18 18" width="18" xmlns="http://www.w3.org/2000/svg" xmlns:xlink="http://www.w3.org/1999/xlink"><clipPath id="a"><path d="m0 0h18v18h-18z"/></clipPath><g clip-path="url(#a)"><path d="m2.63506 15.3641c-3.514714-3.5147-3.514714-9.21319 0-12.72793 3.51471-3.514748 9.21324-3.514713 12.72794 0 0 .00123 2.3895 8.08793-1.1252 11.60273-3.5147 3.5147-11.60028 1.1277-11.60274 1.1252z" fill="#ffda44"/><path d="m2.63574 15.3634c3.51471 3.5147 9.21326 3.5147 12.72796 0 3.5148-3.5147 3.5147-9.21316 0-12.7279z" fill="#ff9811"/><path d="m14.0917 5.08647v-1.56523h-3.0001l-.2292.22918c-.8152.81524-.6781 1.76629-.578 2.4607.0929.64416.104.89092-.1355 1.13051-.23957.23952-.4864.22842-1.1305.1355-.6944-.10009-1.64542-.23724-2.46065.57797-.81521.8152-.67799 1.76618-.5778 2.4605.09292.6441.1041.8909-.13538 1.1304-.23952.2394-.48636.2283-1.13031.1353-.25109-.0362-.51072-.0736-.78789-.0767l-.01719 1.5652c.17346.0019.37171.0304.58159.0607.24848.0359.52973.0765.82596.0765.30698 0 .62993-.0438.94887-.1815v1.2523h2.34784v-1.1739h-1.1739v-.7826h.78261v-1.1739h-.6255c.02967-.3797-.0225-.7434-.0675-1.0552-.09292-.64407-.1041-.89083.13539-1.13025.23955-.23955.48628-.22844 1.13048-.13556.506.07295 1.14824.16513 1.77498-.10543v1.25254h2.3478v-1.17393h-1.1739v-.78261h.7826v-1.17391h-.6254c.0297-.37979-.0225-.74341-.0675-1.05528-.0648-.45004-.0899-.70612-.0173-.90127h2.2754z" fill="#f0f0f0"/></g></svg>