<svg fill="none" height="18" viewBox="0 0 18 18" width="18" xmlns="http://www.w3.org/2000/svg" xmlns:xlink="http://www.w3.org/1999/xlink"><clipPath id="a"><path d="m0 0h18v18h-18z"/></clipPath><g clip-path="url(#a)"><path d="m.424969 6.2608c-.275696.86375-.42500415 1.78389-.42496899 2.73912-.00003516.95516.14927299 1.87538.42500399 2.73918l8.574996.3913 8.575-.3913c.2756-.8638.425-1.78405.425-2.73914 0-.9552-.1493-1.87541-.425-2.73916l-8.57504-.39129z" fill="#f0f0f0"/><path d="m18 9.00038c0-.53392-.0468-1.0569-.1359-1.56526h-17.728116c-.0892262.50836-.135984 1.03127-.135984 1.56522 0 .53396.046793 1.05686.135984 1.56526h17.728116c.0891-.5084.1359-1.03134.1359-1.56522z" fill="#000"/><g fill="#338af3"><path d="m8.9998 17.9997c4.0154 0 7.4161-2.6298 8.575-6.2609h-17.149995c1.158925 3.6311 4.559625 6.2609 8.574995 6.2609z"/><path d="m8.99984-.00048828c-4.01537 0-7.41604 2.62978828-8.575035 6.26079828l17.149895.00004c-1.1588-3.63104-4.5595-6.26090859-8.57486-6.26083828z"/></g></g></svg>