<svg fill="none" height="18" viewBox="0 0 18 18" width="18" xmlns="http://www.w3.org/2000/svg" xmlns:xlink="http://www.w3.org/1999/xlink"><clipPath id="a"><path d="m0 0h18v18h-18z"/></clipPath><g clip-path="url(#a)"><path d="m9 18c4.9706 0 9-4.0294 9-9 0-4.97056-4.0294-9-9-9-4.97056 0-9 4.02944-9 9 0 4.9706 4.02944 9 9 9z" fill="#fcfcfc"/><g fill="#a2001d"><path d="m3.71752 8.34669-.97826-1.77479.97826-1.74695.97825 1.74695z"/><path d="m1.76048 8.34669-.978253-1.77479.978253-1.74695.97826 1.74695z"/><path d="m3.71752 13.1732-.97826-1.7748.97826-1.74691.97825 1.74691z"/><path d="m1.76048 13.1732-.978253-1.7748.978253-1.74691.97826 1.74691z"/><path d="m4.69531 1.74653-.27697-.49458c-.49675.29433-.96268.6351-1.39197 1.01634l.69068 1.253z"/><path d="m3.71752 14.4781-.69799 1.2465c.42891.3818.89452.7231 1.39106 1.018l.28523-.5175z"/></g><path d="m5.47754 11.3479v5.9366c1.08172.4604 2.27187.7156 3.52174.7156 3.86972 0 7.16862-2.4424 8.44022-5.8696z" fill="#6da544"/><path d="m17.4395 12.1305c.3618-.9749.5598-2.0295.5598-3.13038 0-4.97053-4.0295-8.99999793-9.00002-8.99999793-1.24977 0-2.44002.25498793-3.52174.71535993v11.415118h11.96196z" fill="#a2001d"/></g></svg>