<svg fill="none" height="18" viewBox="0 0 18 18" width="18" xmlns="http://www.w3.org/2000/svg" xmlns:xlink="http://www.w3.org/1999/xlink"><clipPath id="a"><path d="m0 0h18v18h-18z"/></clipPath><g clip-path="url(#a)"><path d="m18 8.99993c0-3.08887-1.5563-5.81393-3.9274-7.43478l-5.0726-.39132-5.07259.39129c-2.37104 1.62088-3.92741 4.34598-3.92741 7.43481 0 3.08897 1.55637 5.81397 3.92741 7.43477l5.07259.3913 5.0726-.3913c2.3711-1.6208 3.9274-4.3458 3.9274-7.43477z" fill="#0052b4"/><path d="m14.0729 1.56523c-1.4444-.987402-3.1909-1.56523-5.07258-1.56523-1.88166 0-3.62819.577828-5.07259 1.56523z" fill="#a2001d"/><path d="m3.92676 16.4349c1.44436.9874 3.19092 1.5653 5.07259 1.5653 1.88175 0 3.62815-.5779 5.07255-1.5653z" fill="#a2001d"/><path d="m9.00065 13.3037c2.37725 0 4.30435-1.9272 4.30435-4.30439 0-2.37724-1.9271-4.30436-4.30435-4.30436-2.37723 0-4.30436 1.92712-4.30436 4.30436 0 2.37719 1.92713 4.30439 4.30436 4.30439z" fill="#f0f0f0"/><path d="m9.00026 12.5215c1.94504 0 3.52174-1.5767 3.52174-3.52173 0-1.945-1.5767-3.52174-3.52174-3.52174-1.94501 0-3.52174 1.57674-3.52174 3.52174 0 1.94503 1.57673 3.52173 3.52174 3.52173z" fill="#6da544"/><path d="m9.00018 11.3472c1.29672 0 2.34782-1.0512 2.34782-2.34787 0-1.29668-1.0511-2.34784-2.34782-2.34784-1.29667 0-2.34784 1.05116-2.34784 2.34784 0 1.29667 1.05117 2.34787 2.34784 2.34787z" fill="#f0f0f0"/><path d="m8.99928 8.41284-1.27174.58697v.97826l1.27174.78263 1.27172-.78263v-.97826z" fill="#0052b4"/><path d="m10.271 7.8269h-2.54346v1.17391h2.54346z" fill="#ffda44"/></g></svg>