<svg fill="none" height="18" viewBox="0 0 18 18" width="18" xmlns="http://www.w3.org/2000/svg" xmlns:xlink="http://www.w3.org/1999/xlink"><clipPath id="a"><path d="m0 0h18v18h-18z"/></clipPath><g clip-path="url(#a)"><path d="m9 18c4.9706 0 9-4.0294 9-9 0-4.97056-4.0294-9-9-9-4.97056 0-9 4.02944-9 9 0 4.9706 4.02944 9 9 9z" fill="#f0f0f0"/><g fill="#d80027"><path d="m18.0001 9.00076c0-3.56815-2.0766-6.65121-5.087-8.106961v16.213901c3.0104-1.4557 5.087-4.5388 5.087-8.10694z"/><path d="m0 9.00027c0 3.56813 2.0765 6.65123 5.08697 8.10693v-16.213889c-3.01047 1.455749-5.08697 4.538809-5.08697 8.106959z"/><path d="m10.5648 10.1747 1.5652-.78256-.7826-.39129v-.78262l-1.56523.78262.78263-1.56523h-.78263l-.78261-1.1739-.78261 1.1739h-.78262l.78262 1.56523-1.56523-.78262v.78262l-.78258.39129 1.56519.78256-.39129.7827h1.56523v1.1739h.78258v-1.1739h1.56525z"/></g></g></svg>