<svg fill="none" height="18" viewBox="0 0 18 18" width="18" xmlns="http://www.w3.org/2000/svg" xmlns:xlink="http://www.w3.org/1999/xlink"><clipPath id="a"><path d="m0 0h18v18h-18z"/></clipPath><g clip-path="url(#a)"><path d="m9 18c4.9706 0 9-4.0294 9-9 0-4.97056-4.0294-9-9-9-4.97056 0-9 4.02944-9 9 0 4.9706 4.02944 9 9 9z" fill="#6da544"/><g fill="#ffda44"><path d="m13.8159 12.9133.247.5164.5577-.1288-.2498.515.4485.3557-.5584.1258.0016.5725-.4466-.3582-.4466.3582.0016-.5725-.5584-.1258.4485-.3557-.2498-.515.5577.1288z"/><path d="m11.518 7.4342.247.51641.5578-.12891-.2498.51511.4485.35564-.5584.12586.0015.57241-.4466-.3581-.4465.3581.0015-.57241-.5584-.12586.4485-.35564-.2497-.51511.5577.12891z"/><path d="m13.8159 4.30371.2469.51641.5577-.12895-.2497.51511.4485.35567-.5584.12583.0015.57245-.4465-.35814-.4466.35814.0016-.57245-.5584-.12583.4485-.35567-.2498-.51511.5577.12895z"/><path d="m15.8237 6.65259.247.51641.5577-.12892-.2497.51511.4484.35564-.5583.12586.0015.57244-.4466-.35813-.4465.35813.0015-.57244-.5584-.12586.4485-.35564-.2498-.51511.5577.12892z"/><path d="m14.3883 9.39087.1943.5979h.6286l-.5086.36953.1943.5978-.5086-.3695-.5085.3695.1942-.5978-.5086-.36953h.6287z"/><path d="m9.97786 11.5434c-1.40474 0-2.54353-1.1387-2.54353-2.54344 0-1.4047 1.13875-2.54348 2.54353-2.54348.43794 0 .85014.11077 1.20994.30571-.5645-.55202-1.33633-.89268-2.18827-.89268-1.72885 0-3.13039 1.40154-3.13039 3.13041 0 1.72888 1.40154 3.13038 3.13039 3.13038.8519 0 1.62377-.3406 2.18817-.8926-.3597.195-.7719.3057-1.20984.3057z"/><path d="m5.65984 3.52163c-.2707-.46772-.77608-.78262-1.35531-.78262-.57924 0-1.08461.3149-1.35531.78262z"/><path d="m5.66496 3.53052-1.36051 1.36051-1.36051-1.36051c-.13005.2282-.20468.49211-.20468.77357 0 .86446.70077 1.56523 1.56522 1.56523.86446 0 1.56523-.70073 1.56523-1.56523-.00003-.28146-.07471-.54537-.20475-.77357z"/></g><path d="m3.91309 4.50037v1.32025c.12505.03217.25618.04929.39129.04929.1351 0 .26624-.01715.39129-.04929v-1.32025z" fill="#a2001d"/></g></svg>