<svg fill="none" height="18" viewBox="0 0 18 18" width="18" xmlns="http://www.w3.org/2000/svg" xmlns:xlink="http://www.w3.org/1999/xlink"><clipPath id="a"><path d="m0 0h18v18h-18z"/></clipPath><g clip-path="url(#a)"><path d="m4.87903 17.0023 6.61167-5.5128 5.5127-6.61166c-.8571-1.66106-2.2161-3.02086-3.8765-3.879061l-6.61691 5.510061-5.50999 6.61686c.85813 1.6604 2.21793 3.0195 3.87903 3.8766z" fill="#ffda44"/><path d="m15.364 15.3639c2.8394-2.8395 3.3845-7.10382 1.6364-10.49098l-12.12735 12.12738c3.38715 1.7481 7.65155 1.203 10.49095-1.6364z" fill="#d80027"/><path d="m2.63577 2.63516c-2.839423 2.83942-3.384484 7.1038-1.636413 10.49094l12.127343-12.12732c-3.38713-1.748142-7.6515-1.20301-10.49093 1.63638z" fill="#6da544"/></g></svg>