<svg fill="none" height="18" viewBox="0 0 18 18" width="18" xmlns="http://www.w3.org/2000/svg" xmlns:xlink="http://www.w3.org/1999/xlink"><clipPath id="a"><path d="m0 0h18v18h-18z"/></clipPath><g clip-path="url(#a)"><path d="m17.0002 4.87383c-.4158-.80574-.9609-1.56203-1.6363-2.23745-.6755-.67545-1.4318-1.22055-2.2375-1.63638l-6.34041 5.78693-5.786967 6.34037c.415867.8058.960957 1.5621 1.636387 2.2375.67542.6754 1.43173 1.2205 2.23745 1.6364l6.34034-5.787z" fill="#ffda44"/><path d="m2.63567 15.3641c.37754.3775.7804.7143 1.20294 1.0107l12.53619-12.53619c-.2964-.42254-.6332-.8254-1.0107-1.20294-.3776-.37754-.7804-.71423-1.2029-1.01067l-12.5362 12.5362c.2964.4224.63309.8254 1.01067 1.2029z" fill="#d80027"/><path d="m2.63581 2.63579c-2.839466 2.83947-3.384564 7.10385-1.636384 10.49101l12.127374-12.127355c-3.38718-1.748145-7.65156-1.202977-10.49099 1.636345z" fill="#338af3"/><path d="m15.364 15.3638c2.8394-2.8394 3.3845-7.1038 1.6364-10.49094l-12.12735 12.12734c3.38713 1.7481 7.65155 1.2031 10.49095-1.6364z" fill="#338af3"/><path d="m4.7966 2.7384.48565 1.49474h1.57162l-1.27146.92377.48565 1.4947-1.27146-.9238-1.27153.9238.48572-1.4947-1.27153-.92377h1.57162z" fill="#ffda44"/></g></svg>