<svg fill="none" height="18" viewBox="0 0 18 18" width="18" xmlns="http://www.w3.org/2000/svg" xmlns:xlink="http://www.w3.org/1999/xlink"><clipPath id="a"><path d="m0 0h18v18h-18z"/></clipPath><g clip-path="url(#a)"><path d="m9 18c4.9706 0 9-4.0294 9-9 0-4.97056-4.0294-9-9-9-4.97056 0-9 4.02944-9 9 0 4.9706 4.02944 9 9 9z" fill="#f0f0f0"/><path d="m16.9062 4.69518c-1.163-2.13149-3.1628-3.740559-5.5579-4.386098l-.3913 4.386098z" fill="#0052b4"/><path d="m1.09473 4.69542h5.94914l-.39129-4.386094c-2.39509.645539-4.39485 2.254644-5.55785 4.386094z" fill="#0052b4"/><path d="m10.9561 9.00122v4.30438h5.9491c.6977-1.2787 1.0943-2.7452 1.0943-4.30438z" fill="#6da544"/><path d="m7.04349 9.00049h-7.04349c0 1.55921.396668 3.02571 1.09431 4.30431h5.94914v-4.30431z" fill="#6da544"/><g fill="#ffda44"><path d="m1.09473 13.3047c1.163 2.1315 3.16276 3.7405 5.55785 4.3861l.39129-3.8359z"/><path d="m11.3483 17.6913c2.3951-.6456 4.3949-2.2546 5.5579-4.3861l-5.9492.5501z"/><path d="m10.957 13.8553 5.9492-.5501h-5.9492z"/><path d="m7.0439 13.3047h-5.94917l5.94917.5501z"/></g><path d="m9.00018.00024414c-.81235 0-1.59922.10828086-2.34784.31004286v17.379913c.74862.2018 1.53549.31 2.34784.31.81236 0 1.59922-.1082 2.34782-.31v-17.379913c-.7486-.201762-1.53546-.31004286-2.34782-.31004286z" fill="#d80027"/><path d="m4.84103 1.95679.24279.74731h.78585l-.6357.46189.24283.74731-.63577-.46184-.63573.46184.24289-.74731-.63569-.46189h.78578z" fill="#ffda44"/></g></svg>