<svg fill="none" height="18" viewBox="0 0 18 18" width="18" xmlns="http://www.w3.org/2000/svg" xmlns:xlink="http://www.w3.org/1999/xlink"><clipPath id="a"><path d="m0 0h18v18h-18z"/></clipPath><g clip-path="url(#a)"><path d="m18 9c0 4.9705-4.0295 9-9 9-4.97053 0-9-4.0295-9-9 0 .00214 9-8.99901562 9-9 4.9705 0 9 4.02947 9 9z" fill="#0052b4"/><path d="m8.97559 9.00081h.02412c0-.0081 0-.01599 0-.02413-.00803.00807-.01606.0161-.02412.02413z" fill="#f0f0f0"/><path d="m9 4.6965c0-1.58361 0-2.62125 0-4.69564551h-.00152c-4.96989.00084375-8.99848 4.02992551-8.99848 8.99999551h4.69564v-2.64413l2.64414 2.64413h1.63617l.02408-.02408c0-.60634 0-1.14736 0-1.63606l-2.64421-2.64421z" fill="#f0f0f0"/><path d="m4.55319 1.17334c-1.40762.80153-2.57787 1.97174-3.37936 3.37936v4.44674h2.34784v-5.47819-.00007h5.47826c0-.7405 0-1.44594 0-2.34784z" fill="#d80027"/><path d="m8.99967 7.89264-3.19764-3.19757h-1.10672v.00007l4.30429 4.30425h.00007s0-.76314 0-1.10675z" fill="#d80027"/><g fill="#f0f0f0"><path d="m12.131 9 .1666.51244h.5388l-.4359.31669.1665.51247-.436-.3167-.4359.3167.1665-.51247-.4358-.31669h.5387z"/><path d="m9.91766 9.91729.48004.24461.381-.38102-.0843.53222.4801.2446-.5322.0842-.0842.5323-.2447-.4801-.53215.0843.38105-.381z"/><path d="m9 12.1298.51244-.1665.00007-.5387.31662.4358.51247-.1665-.3167.4359.3167.436-.51247-.1665-.31662.4358v-.5387z"/><path d="m9.91766 14.344.24454-.4801-.38095-.3809.53215.0843.2447-.4801.0842.5322.5322.0842-.4801.2446.0843.5323-.381-.3811z"/><path d="m12.1301 15.261-.1665-.5124h-.5388l.4359-.3167-.1665-.5125.4359.3167.436-.3167-.1665.5125.4359.3167h-.5388z"/><path d="m14.3438 14.344-.4801-.2445-.381.381.0843-.5323-.4801-.2445.5322-.0843.0843-.5322.2446.4801.5322-.0843-.3811.381z"/><path d="m15.2615 12.1298-.5124.1666v.5387l-.3167-.4359-.5125.1666.3167-.436-.3167-.4359.5125.1665.3167-.4358v.5387z"/><path d="m14.3438 9.91729-.2446.48001.381.381-.5322-.0843-.2446.4802-.0843-.5323-.5322-.0843.4801-.2446-.0843-.53212.381.38092z"/></g></g></svg>