<svg fill="none" height="18" viewBox="0 0 18 18" width="18" xmlns="http://www.w3.org/2000/svg" xmlns:xlink="http://www.w3.org/1999/xlink"><clipPath id="a"><path d="m0 0h18v18h-18z"/></clipPath><g clip-path="url(#a)"><path d="m9 18c4.9706 0 9-4.0294 9-9 0-4.97056-4.0294-9-9-9-4.97056 0-9 4.02944-9 9 0 4.9706 4.02944 9 9 9z" fill="#f0f0f0"/><path d="m18 9.00026c0 4.97054-4.0295 9.00004-9 9.00004-4.97053 0-9-4.0295-9-9.00004 0-4.97053 9 0 9 0z" fill="#d80027"/><path d="m0 9c0-4.97053 4.02947-9 9-9v9s-5.86958 0-9 0z" fill="#0052b4"/><path d="m5.35734 3.13013.58279 1.7936h1.88589l-1.52572 1.10847.58275 1.79361-1.52571-1.10852-1.52571 1.10852.58275-1.79361-1.52571-1.10847h1.88589z" fill="#f0f0f0"/></g></svg>