<svg fill="none" height="18" viewBox="0 0 18 18" width="18" xmlns="http://www.w3.org/2000/svg" xmlns:xlink="http://www.w3.org/1999/xlink"><clipPath id="a"><path d="m0 0h18v18h-18z"/></clipPath><g clip-path="url(#a)"><path d="m12.9134.893283c-1.1833-.572133-2.5107-.89303886-3.91307-.89303886-1.40238 0-2.72981.32090586-3.91303.89303886l-.78261 8.106957.78261 8.10696c1.18322.5721 2.51065.893 3.91303.893 1.40237 0 2.72977-.3209 3.91307-.893l.7826-8.10696z" fill="#d80027"/><path d="m9.00045 5.86914.77696 2.39129h2.51469l-2.0343 1.47811.777 2.39146-2.03435-1.478-2.03431 1.478.77713-2.39146-2.03429-1.47811h2.51449z" fill="#ffda44"/><path d="m5.08697.893799c-3.01043 1.455681-5.08697 4.538501-5.08697 8.106641 0 3.56816 2.07654 6.65096 5.08697 8.10666z" fill="#496e2d"/><path d="m12.9131.893799v16.213301c3.0104-1.4557 5.087-4.5385 5.087-8.10666 0-3.56811-2.0766-6.65096-5.087-8.106641z" fill="#ffda44"/></g></svg>