<svg fill="none" height="18" viewBox="0 0 18 18" width="18" xmlns="http://www.w3.org/2000/svg" xmlns:xlink="http://www.w3.org/1999/xlink"><clipPath id="a"><path d="m0 0h18v18h-18z"/></clipPath><g clip-path="url(#a)"><path d="m9 18c4.9706 0 9-4.0294 9-9 0-4.97056-4.0294-9-9-9-4.97056 0-9 4.02944-9 9 0 4.9706 4.02944 9 9 9z" fill="#d80027"/><g fill="#ffda44"><path d="m4.92539 5.47607.77695 2.39063h2.51368l-2.03204 1.48008.77696 2.39062-2.03555-1.4766-2.03555 1.4766.78047-2.39062-2.03554-1.48008h2.51367z"/><path d="m10.6697 13.9384-.5941-.7312-.87892.341.50977-.791-.59415-.7348.9106.2426.5132-.791.0493.9422.914.2426-.8824.3375z"/><path d="m11.852 11.7939.2812-.9-.7699-.5449.9422-.0141.2777-.89996.3059.89296.9421-.0105-.7558.5625.3023.8929-.7699-.5449z"/><path d="m13.4439 6.60493-.4148.84727.675.65742-.9316-.13359-.4149.84375-.1617-.92813-.9352-.13359.8368-.43946-.1618-.93164.675.65742z"/><path d="m10.6941 4.03882-.0703.93867.8754.35508-.9176.225-.0668.94219-.4957-.80156-.91754.225.60821-.72071-.49922-.79805.87535.35508z"/></g></g></svg>