<svg fill="none" height="18" viewBox="0 0 18 18" width="18" xmlns="http://www.w3.org/2000/svg" xmlns:xlink="http://www.w3.org/1999/xlink"><clipPath id="a"><path d="m0 0h18v18h-18z"/></clipPath><g clip-path="url(#a)"><path d="m8.99996 18.0001c4.97054 0 8.99994-4.0294 8.99994-8.99995s-4.0294-8.99996689-8.99994-8.99996689-8.99996 4.02941689-8.99996 8.99996689 4.02942 8.99995 8.99996 8.99995z" fill="#f0f0f0"/><g fill="#0052b4"><path d="m9.00019.00018311c-2.9444 0-5.55841 1.41408689-7.20039 3.59999689h14.4007c-1.6419-2.18594-4.2559-3.59999689-7.20031-3.59999689z"/><path d="m9.00019 18.0001c2.94441 0 5.55841-1.414 7.20041-3.6h-14.4008c1.64194 2.186 4.25599 3.6 7.20039 3.6z"/><path d="m0 9.0002c0 .61647.0621562 1.2184.180246 1.8h17.639554c.1181-.5816.1802-1.18353.1802-1.8s-.0622-1.21841-.1802-1.8h-17.639554c-.1180898.58159-.180246 1.18353-.180246 1.8z"/></g><path d="m2.63601 2.63593c-3.514679 3.51467-3.514679 9.21317 0 12.72797 1.45241-1.4525 2.84924-2.8493 6.36395-6.36399z" fill="#d80027"/><path d="m3.64246 6.65216.58268 1.7935h1.886l-1.52568 1.10854.58268 1.7935-1.52568-1.1084-1.52574 1.1084.58282-1.7935-1.52571-1.10854h1.88585z" fill="#f0f0f0"/></g></svg>