<svg fill="none" height="18" viewBox="0 0 18 18" width="18" xmlns="http://www.w3.org/2000/svg" xmlns:xlink="http://www.w3.org/1999/xlink"><clipPath id="a"><path d="m0 0h18v18h-18z"/></clipPath><g clip-path="url(#a)"><path d="m9 18c4.9706 0 9-4.0294 9-9 0-4.97056-4.0294-9-9-9-4.97056 0-9 4.02944-9 9 0 4.9706 4.02944 9 9 9z" fill="#ffda44"/><path d="m9.00024 18.0005c2.95316 0 5.57396-1.4223 7.21506-3.6193h-14.43014c1.64109 2.197 4.26195 3.6193 7.21508 3.6193z" fill="#0052b4"/><path d="m18 9c0-4.97053-4.0295-9-9-9-4.97053 0-9 4.02947-9 9 0 1.0643.185238 2.0852.524391 3.0329h16.951209c.3392-.9477.5244-1.9686.5244-3.0329z" fill="#0052b4"/><g fill="#f0f0f0"><path d="m6.16068 5.77197.48562 1.49456h1.57162l-1.27143.92384.48562 1.49463-1.27143-.92376-1.27142.92376.48568-1.49463-1.27142-.92384h1.57155z"/><path d="m3.46083 4.20709.29137.89677h.943l-.76286.55427.29138.8968-.76289-.55427-.76286.55427.29141-.8968-.76282-.55427h.94296z"/></g></g></svg>