<svg fill="none" height="18" viewBox="0 0 18 18" width="18" xmlns="http://www.w3.org/2000/svg" xmlns:xlink="http://www.w3.org/1999/xlink"><clipPath id="a"><path d="m0 0h18v18h-18z"/></clipPath><g clip-path="url(#a)"><path d="m15.364 15.3643c-3.5147 3.5147-9.21322 3.5147-12.72796 0-3.514738-3.5147-3.514703-9.21321 0-12.72795.27668.27665 7.19405 5.53387 7.19405 5.53387z" fill="#0052b4"/><path d="m2.63574 2.63566c3.51471-3.514702 9.21326-3.514702 12.72796 0 3.5147 3.51471 3.5147 9.21324 0 12.72794" fill="#6da544"/><path d="m9.00018 11.3483c1.29672 0 2.34782-1.0512 2.34782-2.34788 0-1.29667-1.0511-2.34783-2.34782-2.34783-1.29667 0-2.34784 1.05116-2.34784 2.34783 0 1.29668 1.05117 2.34788 2.34784 2.34788z" fill="#ffda44"/><g fill="#f0f0f0"><path d="m3.35108 12.9131.24698.5164.55768-.1289-.24975.5151.44852.3556-.55842.1259.00155.5724-.44656-.3581-.44655.3581.00155-.5724-.55842-.1259.44852-.3556-.24979-.5151.55772.1289z"/><path d="m1.73581 8.60767.24698.5164.55768-.12895-.24972.51511.44846.35568-.55839.12582.00155.57247-.44656-.3581-.44651.3581.00151-.57247-.558388-.12582.448488-.35568-.24975-.51511.55768.12895z"/><path d="m3.35105 5.08643.24697.5164.55768-.12895-.24971.51511.44849.35568-.55842.12582.00154.57245-.44655-.3581-.44655.3581.00154-.57245-.55838-.12582.44845-.35568-.24975-.51511.55772.12895z"/><path d="m5.35886 7.82593.24697.51641.55772-.12896-.24978.51515.44848.35563-.55838.12586.00151.57241-.44652-.35809-.44655.35809.00154-.57241-.55838-.12586.44845-.35563-.24971-.51515.55768.12896z"/><path d="m3.92345 10.1735.19428.5978h.62859l-.50857.3695.19427.5978-.50857-.3694-.50857.3694.19428-.5978-.50857-.3695h.62859z"/></g><path d="m8.99972 10.5653h.78261s.33907-.59994 0-1.1739l.78257-.78262-.3912-.78261h-.39133s-.19565.58697-.97826.58697-.97825-.58697-.97825-.58697h-.39129l.39129.78261-.39129.78262.39129.39129s.39129-.78262 1.1739-.39129c-.00004 0 .33257.48913-.00004 1.1739z" fill="#6da544"/><path d="m14.8411 4.9294c.0185-.09615.0283-.19533.0283-.29686 0-.69609-.4545-1.28569-1.0828-1.48911.192.39024.3002.82913.3002 1.29347 0 .15658-.0126.31022-.0363.46016-.0945-.15233-.216-.29152-.3644-.40961-.559-.44479-1.3229-.45657-1.8877-.08198.436.0952.8576.28874 1.2305.58542.292.23231.5279.54654.7085.84987l-2.3897.7483c2.3478.39128 4.3043-1.1739 4.3043-1.1739-.2168-.43355-.5535-.50668-.8109-.48576z" fill="#ffda44"/></g></svg>