<svg fill="none" height="18" viewBox="0 0 18 18" width="18" xmlns="http://www.w3.org/2000/svg" xmlns:xlink="http://www.w3.org/1999/xlink"><clipPath id="a"><path d="m0 0h18v18h-18z"/></clipPath><g clip-path="url(#a)"><path d="m9 18c4.9706 0 9-4.0294 9-9 0-4.97056-4.0294-9-9-9-4.97056 0-9 4.02944-9 9 0 4.9706 4.02944 9 9 9z" fill="#fcfcfc"/><path d="m14.087 7.82581c-.2739 0-.6131 0-1.174 0 0 2.16112-1.7519 3.91299-3.91298 3.91299-2.16116 0-3.91303-1.75187-3.91303-3.91299-.37828 0-.79569 0-1.1739 0 0 2.32789 1.56361 4.29049 3.69794 4.89499-.234.4445-.19835 1.0042.13591 1.4213.43904-.3519.89357-.7161 1.27917-1.0251.38559.309.84016.6732 1.27919 1.0251.3375-.4213.3708-.988.129-1.4347 2.1109-.6193 3.6527-2.5703 3.6527-4.88159z" fill="#6da544"/><path d="m5.86914 7.43463s0 1.95651 1.95652 1.95651l.39129.39129h.78261s.39129-1.1739 1.17394-1.1739c0 0 0-.78261.7826-.78261h1.1739s-.3913-1.56523 1.5652-2.73913l-.7826-.39129s-2.7391 1.95651-4.69565 1.56522v.78262h-.78262l-.39129-.39129z" fill="#ffda44"/></g></svg>