<svg fill="none" height="18" viewBox="0 0 18 18" width="18" xmlns="http://www.w3.org/2000/svg" xmlns:xlink="http://www.w3.org/1999/xlink"><clipPath id="a"><path d="m0 0h18v18h-18z"/></clipPath><g clip-path="url(#a)"><path d="m9 18c4.9706 0 9-4.0294 9-9 0-4.97056-4.0294-9-9-9-4.97056 0-9 4.02944-9 9 0 4.9706 4.02944 9 9 9z" fill="#f0f0f0"/><path d="m8.21711 8.99951s-5.57609 6.36519-5.58137 6.36399c1.62865 1.6287 3.87868 2.636 6.36399 2.636 4.97057 0 8.99997-4.0295 8.99997-8.99999z" fill="#d80027"/><path d="m2.63603 2.63593c-3.514708 3.51471-3.514708 9.21317 0 12.72797 1.45242-1.4524 2.84928-2.8493 6.36399-6.36399z" fill="#0052b4"/></g></svg>