<svg fill="none" height="18" viewBox="0 0 18 18" width="18" xmlns="http://www.w3.org/2000/svg" xmlns:xlink="http://www.w3.org/1999/xlink"><clipPath id="a"><path d="m0 0h18v18h-18z"/></clipPath><g clip-path="url(#a)"><path d="m.55957 12.1312c1.27164 3.4272 4.57052 5.8696 8.44021 5.8696 3.86972 0 7.16852-2.4424 8.44022-5.8696l-8.44022-.7826z" fill="#ffda44"/><path d="m8.99978.00061035c-3.86969 0-7.16857 2.44237965-8.44021 5.86957965l8.44021.78258 8.44022-.78261c-1.2717-3.42717-4.5705-5.86954965-8.44022-5.86954965z" fill="#000"/><path d="m.559793 5.86932c-.361758.97499-.559793 2.02954-.559793 3.13042 0 1.10086.198035 2.15546.559793 3.13046h16.880407c.3618-.975.5598-2.0296.5598-3.13046 0-1.10088-.198-2.15543-.5598-3.13042z" fill="#d80027"/></g></svg>