<svg fill="none" height="18" viewBox="0 0 18 18" width="18" xmlns="http://www.w3.org/2000/svg" xmlns:xlink="http://www.w3.org/1999/xlink"><clipPath id="a"><path d="m0 0h18v18h-18z"/></clipPath><g clip-path="url(#a)"><path d="m8.21711 9.78298s-5.57609-7.14783-5.58137-7.14656c1.62865-1.62869 3.87868-2.63605379 6.36399-2.63605379 4.97057 0 8.99997 4.02947379 8.99997 9.00000379z" fill="#338af3"/><path d="m8.21711 8.99951s-5.57609 6.36519-5.58137 6.36399c1.62865 1.6287 3.87868 2.636 6.36399 2.636 4.97057 0 8.99997-4.0295 8.99997-8.99999z" fill="#6da544"/><path d="m2.63603 2.63599c-3.514708 3.51471-3.514708 9.21321 0 12.72801 1.45241-1.4525 2.84928-2.8493 6.36399-6.36403z" fill="#f0f0f0"/><path d="m3.64246 6.6521.58272 1.79353h1.88599l-1.52571 1.10855.58268 1.79362-1.52568-1.1085-1.52574 1.1085.58282-1.79362-1.52571-1.10855h1.88585z" fill="#d80027"/></g></svg>