<svg fill="none" height="18" viewBox="0 0 18 18" width="18" xmlns="http://www.w3.org/2000/svg" xmlns:xlink="http://www.w3.org/1999/xlink"><clipPath id="a"><path d="m0 0h18v18h-18z"/></clipPath><g clip-path="url(#a)"><path d="m9 18c4.9706 0 9-4.0294 9-9 0-4.97056-4.0294-9-9-9-4.97056 0-9 4.02944-9 9 0 4.9706 4.02944 9 9 9z" fill="#f0f0f0"/><g fill="#d80027"><path d="m7.04398 7.82622h10.88032c-.5753-4.41587-4.3512-7.82609793-8.92384-7.82609793-.67201 0-1.32651.07428513-1.95651.21392593v7.612172z"/><path d="m4.69564 7.82679v-6.73176c-2.47124 1.34838-4.240378 3.82166-4.6194681 6.73179h4.6194681z"/><path d="m4.6956 10.1742h-4.6194281c.3790901 2.9101 2.1482281 5.3834 4.6194681 6.7317z"/><path d="m7.04395 10.1742v7.6122c.63.1396 1.2845.2139 1.95651.2139 4.57264 0 8.34854-3.4102 8.92384-7.8261z"/></g></g></svg>