<svg fill="none" height="18" viewBox="0 0 18 18" width="18" xmlns="http://www.w3.org/2000/svg" xmlns:xlink="http://www.w3.org/1999/xlink"><clipPath id="a"><path d="m0 0h18v18h-18z"/></clipPath><g clip-path="url(#a)"><path d="m9 18c4.9706 0 9-4.0294 9-9 0-4.97056-4.0294-9-9-9-4.97056 0-9 4.02944-9 9 0 4.9706 4.02944 9 9 9z" fill="#f0f0f0"/><path d="m10.7617 17.8269c3.5579-.7058 6.3606-3.5085 7.0664-7.0664h-7.0664z" fill="#496e2d"/><path d="m.172852 10.7605c.705761 3.5579 3.508488 6.3606 7.066408 7.0664v-7.0664z" fill="#496e2d"/><path d="m17.8281 7.23914c-.7058-3.55789-3.5085-6.360614-7.0664-7.066411v7.066411z" fill="#496e2d"/><path d="m7.23926.172852c-3.55792.705796-6.360647 3.508518-7.066408 7.066408h7.066408z" fill="#496e2d"/><path d="m8.41316 10.7611h-1.1739v7.0664c.38309.076.77498.1275 1.1739.1532z" fill="#ffda44"/><path d="m8.41316 7.23957v-7.2195505c-.39892.0256641-.79084.077168-1.1739.1531405v7.06641z" fill="#ffda44"/><path d="m9.58605.0199482c-.19414-.01255074-.38971-.01958199-.58697-.01958199s-.39284.00703125-.58697.01958199v7.2195818h1.1739v-7.2195818z" fill="#000"/><path d="m8.41211 17.9804c.19413.0126.38971.0196.58697.0196s.39283-.007.58697-.0196v-7.2195h-1.17391v7.2195z" fill="#000"/><path d="m7.23908 8.41328v-1.1739h-7.066408c-.0760079.38313-.1274767.77498-.1531408 1.1739z" fill="#ffda44"/><path d="m10.7617 8.41365h7.2196c-.0257-.39892-.0772-.79077-.1531-1.1739h-7.0664v1.1739z" fill="#ffda44"/><path d="m10.7607 9.58739h7.2196c.0125-.19409.0196-.38971.0196-.58697s-.0071-.39287-.0196-.58697h-7.2196z" fill="#000"/><path d="m.019582 8.41345c-.01251559.1941-.019582.38971-.019582.58697s.00706641.39288.019582.58697h7.219578v-1.1739h-7.219578z" fill="#000"/><path d="m8.99967 13.3042c2.37723 0 4.30433-1.9272 4.30433-4.30441 0-2.37723-1.9271-4.30436-4.30433-4.30436s-4.30436 1.92713-4.30436 4.30436c0 2.37721 1.92713 4.30441 4.30436 4.30441z" fill="#d80027"/><g fill="#496e2d"><path d="m9.98063 9.48069c-.32016-.6403-.73631-1.28928-.73631-1.28928s.01034-.29549.01034-.47155c0-.26522-.21502-.48024-.48024-.48024-.25126 0-.45713.19305-.47812.43882-.19758.01291-.35392.1768-.35392.37762 0 .146.08273.27253.2038.33578.06019-.14077.17803-.25067.32379-.30077.02377.01944.04929.03681.07654.05154l.06152.02946s-.22813.64305-.22813.98849c0 .97114.64034 1.27064.64034 1.27064v.01l-.32017.3202h.6403v-.6404l.32017.3202c.00281-.006.60646-.3878.32009-.96051z"/><path d="m8.99994 5.47839.14569.44839h.47144l-.3814.27713.14572.44838-.38145-.2771-.38144.2771.14572-.44838-.38141-.27713h.47145z"/><path d="m6.93009 6.1514.38138.27714.38144-.27717-.14568.44845.38144.27707-.47148.00003-.14569.44839-.14572-.44839-.47144-.00003.38141-.27714z"/><path d="m5.65039 7.91189h.47141l.14572-.44839.14569.44839.47148-.00004-.38141.27717.14572.44839-.38148-.27714-.38141.2771.14565-.44838z"/><path d="m5.65039 10.0885.38138-.27705-.14569-.44841.38144.27713.38145-.27713-.14569.44838.38145.27718h-.47152l-.14569.4483-.14572-.4484z"/><path d="m6.93013 11.8493.14565-.4483-.38144-.2772h.47148l.14572-.4484.14568.4484h.47148l-.38144.2772.14569.4483-.38145-.2771z"/><path d="m8.99994 12.5223-.14568-.4483h-.47145l.38141-.2772-.14572-.4484.38144.2771.38141-.2771-.14568.4484.3814.2771-.47144.0001z"/><path d="m11.0699 11.8493-.3814-.2771-.3814.2772.1456-.4484-.3814-.2772h.4715l.1456-.4484.1458.4484h.4714l-.3814.2772z"/><path d="m12.3496 10.0886h-.4714l-.1458.4484-.1456-.4483h-.4716l.3815-.27719-.1457-.44835.3814.2771.3814-.2771-.1456.44838z"/><path d="m12.3496 7.91185-.3814.2771.1456.44839-.3814-.27711-.3814.27718.1457-.44842-.3815-.2771.4716-.00007.1456-.44832.1458.44835z"/><path d="m11.0699 6.15137-.1457.44835.3814.27713h-.4714l-.1457.44842-.1457-.44838-.4715.00003.3814-.2772-.1457-.44832.3815.27707z"/></g></g></svg>