<svg fill="none" height="18" viewBox="0 0 18 18" width="18" xmlns="http://www.w3.org/2000/svg" xmlns:xlink="http://www.w3.org/1999/xlink"><clipPath id="a"><path d="m0 0h18v18h-18z"/></clipPath><g clip-path="url(#a)"><path d="m9 18c4.9706 0 9-4.0294 9-9 0-4.97056-4.0294-9-9-9-4.97056 0-9 4.02944-9 9 0 4.9706 4.02944 9 9 9z" fill="#f0f0f0"/><path d="m.310547 11.3484c.831023 3.0833 3.258813 5.5111 6.342153 6.3421v-6.3421z" fill="#d80027"/><path d="m6.65169.310059c-3.08331.830991-5.51113 3.258811-6.34212 6.342121h6.34215v-6.342121z" fill="#0052b4"/><path d="m17.6898 6.6523c-.831-3.08331-3.2588-5.51113-6.3421-6.342119v6.342149h6.3421z" fill="#d80027"/><path d="m11.3477 17.6903c3.0833-.831 5.5111-3.2588 6.3421-6.3422h-6.3421z" fill="#0052b4"/><path d="m11.348 8.99994c0 1.29666-1.0511 2.34786-2.34782 2.34786-1.29666 0-2.34784-1.0512-2.34784-2.34786 0-1.2967 2.34784-2.34784 2.34784-2.34784s2.34782 1.05114 2.34782 2.34784z" fill="#496e2d"/><path d="m6.65234 8.99994c0-1.2967 1.05118-2.34784 2.34784-2.34784 1.29672 0 2.34782 1.05114 2.34782 2.34784" fill="#0052b4"/><path d="m7.67969 7.82581v1.46738c0 .72941.59126 1.32061 1.32064 1.32061.72939 0 1.32067-.5912 1.32067-1.32061v-1.46738z" fill="#d80027"/></g></svg>