<svg fill="none" height="18" viewBox="0 0 18 18" width="18" xmlns="http://www.w3.org/2000/svg" xmlns:xlink="http://www.w3.org/1999/xlink"><clipPath id="a"><path d="m0 0h18v18h-18z"/></clipPath><g clip-path="url(#a)"><path d="m.893039 5.08694c-.572133 1.18321-.893039 2.51061-.893039 3.91303 0 1.40243.320906 2.72983.893039 3.91303l8.106961.7826 8.107-.7826c.5721-1.1832.893-2.5106.893-3.91303 0-1.40242-.3209-2.72982-.893-3.91303l-8.107-.78262z" fill="#f0f0f0"/><path d="m.893555 12.9125c1.455675 3.0104 4.538495 5.0869 8.106645 5.0869 3.5681 0 6.651-2.0765 8.1066-5.0869z" fill="#000"/><path d="m.893555 5.08721h16.213245c-1.4556-3.01046-4.5385-5.08696586-8.1066-5.08696586-3.56815 0-6.65097 2.07650586-8.106645 5.08696586z" fill="#d80027"/><path d="m2.63603 2.6355c-3.514708 3.51471-3.514708 9.2132 0 12.728 1.45242-1.4524 2.84928-2.8493 6.36399-6.36402z" fill="#496e2d"/></g></svg>