<svg fill="none" height="18" viewBox="0 0 18 18" width="18" xmlns="http://www.w3.org/2000/svg" xmlns:xlink="http://www.w3.org/1999/xlink"><clipPath id="a"><path d="m0 0h18v18h-18z"/></clipPath><g clip-path="url(#a)"><path d="m9.00007 0c4.97053 0 9.00003 4.02947 9.00003 9 0 4.9705-4.0295 9-9.00003 9 0-.3913-1.1739-9-1.1739-9z" fill="#f0f0f0"/><path d="m9 18c-4.97053 0-9-4.0295-9-9 0-4.97053 4.02947-9 9-9" fill="#496e2d"/><g fill="#d80027"><path d="m10.9324 7.27393-.7384 1.0176-1.19595-.38785.73961 1.01672-.73835 1.0176 1.19549-.38922.7396 1.01672-.0008-1.25725 1.1955-.38926-1.1959-.38777z"/><path d="m9.7454 11.5439c-1.40471 0-2.54349-1.1387-2.54349-2.54345 0-1.4047 1.13878-2.54349 2.54349-2.54349.438 0 .8501.11075 1.2099.30572-.5645-.55199-1.33636-.89268-2.18816-.89268-1.72892 0-3.13042 1.40153-3.13042 3.13041 0 1.72889 1.40154 3.13039 3.13042 3.13039.85184 0 1.62376-.3407 2.18816-.8927-.3598.1951-.7719.3058-1.2099.3058z"/></g></g></svg>