<svg fill="none" height="18" viewBox="0 0 18 18" width="18" xmlns="http://www.w3.org/2000/svg" xmlns:xlink="http://www.w3.org/1999/xlink"><clipPath id="a"><path d="m0 0h18v18h-18z"/></clipPath><g clip-path="url(#a)" clip-rule="evenodd" fill-rule="evenodd"><path d="m9 0c4.9702 0 9 4.02978 9 9 0 4.9702-4.0298 9-9 9-4.97022 0-9-4.0298-9-9 0-4.97022 4.02978-9 9-9z" fill="#2394e0"/><path d="m1.72266 13.6494c-.53028-.8042-.92725-1.7051-1.16016-2.6704l1.58496.7647.00879.4731c0 .1743-.2959.5435-.39111.6841zm9.74854-12.697252c3.0205 1.003422 5.2866 3.662112 5.7231 6.899412l-.2856-.03076c-.0513.21973-.0982.22412-.0982.48779 0 .23291.293.38819.293.87891 0 .13184-.3091.39404-.3222.44092l-.4585-.5376v.68408l-.0689-.00293-.123-1.26269-.2564.08056-.3047-.93896-1.0034 1.04883-.0117.76757-.3281.21973-.3487-1.96875-.208.15235-.4717-.63721-.7045.02051-.2696-.30909-.2768.07618-.5435-.62256-.1055.07177.337.86133h.3911v-.19482h.1948c.1406.38965.293.1582.293.39111 0 .81299-1.0035 1.41065-1.6612 1.56299.0352.14649.022.29297.1949.29297.3676 0 .1845-.06445.5859-.09815-.0191.83056-.9522 1.82226-1.3506 2.43896l.1787 1.273c.0469.2768-.57421.5683-.78514.8803l.10107.4878-.28564.1157c-.04981.501-.53614 1.0562-1.08252 1.0562h-.58594c0-.6855-.48926-1.6655-.48926-2.1504 0-.4116.19483-.4673.19483-.977 0-.4717-.4878-1.147-.4878-1.2701v-.7822h-.39111c-.05859-.2183-.02197-.293-.29297-.293h-.09814c-.42627 0-.35449.1949-.78223.1949h-.39111c-.35303 0-.97705-1.13089-.97705-1.27005v-1.17188c0-.50537.46289-1.05615.78222-1.27002v-.48779l.43946-.44678.24463-.04101c.52441 0 .46142-.29297.78222-.29297h.87891v.68408l.96679.41308.09083-.41748c.43798.10254.55224.29737 1.0913.29737h.19483c.3706 0 .39111-.49219.39111-.87891l-.78223.07764-.3413-.74121-.33838.08935c.06152.26514.09375.15528.09375.3794 0 .13183-.1084.14648-.19629.19482l-.33838-.8584-.72803-.52002-.09668.09522.61963.65185c-.08203.23438-.09228.90967-.43359.43653l.31933-.15381-.79687-.83496-.47754.18603-.47168.45117c-.04981.36329-.14795.54639-.52881.54639-.25342 0-.10107-.06592-.48926-.09814v-.97705h.87891l-.28564-.65039-.10547.06445v-.19629l1.42822-.65772c-.02637-.20507-.06006-.09521-.06006-.31933 0-.01318.09521-.19336.09814-.19629l.36915.22998-.0879-.42041-.56982.11719-.10547-.51123c.45117-.23731 1.4458-1.075198 1.76221-1.075198h.29297c.30908 0 1.13525.304687 1.27002.487788l-.78369-.0791.58154.47901.05566-.20508.43357-.11865.0059-.271h.1963v.29297z" fill="#a1e367"/></g></svg>