<svg fill="none" height="18" viewBox="0 0 18 18" width="18" xmlns="http://www.w3.org/2000/svg" xmlns:xlink="http://www.w3.org/1999/xlink"><clipPath id="a"><path d="m0 0h18v18h-18z"/></clipPath><g clip-path="url(#a)"><path d="m0 9c0-4.97053 4.02947-9 9-9 4.9705 0 9 4.02947 9 9l-9 .78261z" fill="#ffda44"/><path d="m1.2041 13.5007c1.55619 2.69 4.46446 4.5 7.79569 4.5 3.33121 0 6.23951-1.81 7.79571-4.5l-7.79571-.587z" fill="#d80027"/><path d="m16.7957 13.5002c.7658-1.3237 1.2043-2.8606 1.2043-4.49996h-18c0 1.63936.438539 3.17626 1.20431 4.49996z" fill="#0052b4"/><path d="m8.99956 12.1308c1.72884 0 3.13044-1.4015 3.13044-3.13039 0-1.72888-1.4016-3.13041-3.13044-3.13041-1.72888 0-3.13042 1.40153-3.13042 3.13041 0 1.72889 1.40154 3.13039 3.13042 3.13039z" fill="#ffda44"/><path d="m9.00046 10.9569c-1.07884 0-1.95651-.8777-1.95651-1.95649v-1.1739c0-1.07884.8777-1.95651 1.95651-1.95651 1.07884 0 1.95654.8777 1.95654 1.95651v1.1739c0 1.07879-.8777 1.95649-1.95654 1.95649z" fill="#338af3"/><path d="m12.1301 4.30507h-2.34789c0-.43221-.3504-.78261-.78261-.78261s-.78262.3504-.78262.78261h-2.34784c0 .43225.37649.78262.80867.78262h-.02606c0 .43225.35037.78261.78262.78261 0 .43225.35037.78262.78261.78262h1.56523c.43229 0 .78259-.35037.78259-.78262.4323 0 .7826-.35036.7826-.78261h-.026c.4322 0 .8087-.3504.8087-.78262z" fill="#000"/></g></svg>