<svg fill="none" height="18" viewBox="0 0 18 18" width="18" xmlns="http://www.w3.org/2000/svg" xmlns:xlink="http://www.w3.org/1999/xlink"><clipPath id="a"><path d="m0 0h18v18h-18z"/></clipPath><g clip-path="url(#a)"><path d="m9 18c4.9706 0 9-4.0294 9-9 0-4.97056-4.0294-9-9-9-4.97056 0-9 4.02944-9 9 0 4.9706 4.02944 9 9 9z" fill="#f0f0f0"/><path d="m8.99978-.00024414c-3.86969 0-7.16857 2.44237414-8.44021 5.86958414h16.88043c-1.2717-3.42721-4.5705-5.86958414-8.44022-5.86958414z" fill="#d80027"/><path d="m8.99978 18.0002c3.86972 0 7.16852-2.4424 8.44022-5.8696h-16.88043c1.27164 3.4272 4.57052 5.8696 8.44021 5.8696z" fill="#000"/><path d="m12.13 8.02163h-2.3478c0-.43221-.3504-.78262-.78261-.78262s-.78261.35041-.78261.78262h-2.34784c0 .43224.37649.78261.8087.78261h-.02609c0 .43225.35037.78261.78262.78261 0 .43225.35036.78265.78261.78265h1.56522c.4322 0 .7826-.3504.7826-.78265.4323 0 .7826-.35036.7826-.78261h-.026c.4322 0 .8086-.35037.8086-.78261z" fill="#ff9811"/></g></svg>