<svg fill="none" height="18" viewBox="0 0 18 18" width="18" xmlns="http://www.w3.org/2000/svg" xmlns:xlink="http://www.w3.org/1999/xlink"><clipPath id="a"><path d="m0 0h18v18h-18z"/></clipPath><g clip-path="url(#a)"><path d="m.893039 5.08645c-.572133 1.18322-.893039 2.51061-.893039 3.91303s.320906 2.72982.893039 3.91302l8.106961.7826 8.107-.7826c.5721-1.1832.893-2.5106.893-3.91302s-.3209-2.72981-.893-3.91303l-8.107-.78262z" fill="#f0f0f0"/><path d="m.893555 12.9133c1.455675 3.0105 4.538535 5.087 8.106645 5.087 3.5681 0 6.651-2.0765 8.1066-5.087z" fill="#496e2d"/><path d="m.893555 5.08672h16.213245c-1.4556-3.01046-4.5385-5.08696414-8.1066-5.08696414-3.56815 0-6.65097 2.07650414-8.106645 5.08696414z" fill="#000"/><g fill="#d80027"><path d="m2.63603 2.63623c-3.514708 3.51471-3.514708 9.21327 0 12.72797 1.45242-1.4524 2.84928-2.8493 6.36399-6.36399z"/><path d="m11.3478 8.99999c0-1.31125.9215-2.40669 2.1521-2.67542-.1891-.04131-.3854-.06371-.5869-.06371-1.5128 0-2.7392 1.22632-2.7392 2.73913s1.2264 2.73911 2.7392 2.73911c.2015 0 .3978-.0224.5869-.0637-1.2306-.2687-2.1521-1.3641-2.1521-2.67541z"/><path d="m13.6145 7.23901.3886 1.19581h1.2572l-1.0171.73891.3885 1.19577-1.0172-.73902-1.0171.73902.3886-1.19577-1.0172-.73891h1.2572z"/></g></g></svg>