<svg fill="none" height="18" viewBox="0 0 18 18" width="18" xmlns="http://www.w3.org/2000/svg" xmlns:xlink="http://www.w3.org/1999/xlink"><clipPath id="a"><path d="m0 0h18v18h-18z"/></clipPath><g clip-path="url(#a)"><path d="m8.21711 8.21741s-5.57609 7.14789-5.58137 7.14659c1.62865 1.6287 3.87868 2.636 6.36399 2.636 4.97057 0 8.99997-4.0294 8.99997-8.99998z" fill="#338af3"/><path d="m8.21711 8.99976s-5.57609-6.36522-5.58137-6.36395c1.62865-1.62869 3.87868-2.63605414 6.36399-2.63605414 4.97057 0 8.99997 4.02946414 8.99997 9.00000414z" fill="#6da544"/><path d="m2.63506 2.6366c-3.514714 3.51471-3.514714 9.2132 0 12.728-.00025.0014 15.36394-6.36402 15.36394-6.36402z" fill="#d80027"/><path d="m4.69585 5.28247c-1.72614 0-3.13042 1.40432-3.13042 3.13042v1.1739c0 1.72611 1.40432 3.13041 3.13042 3.13041s3.13042-1.4043 3.13042-3.13041v-1.1739c.00003-1.7261-1.40429-3.13042-3.13042-3.13042zm1.95651 4.30435c0 .87438-.57663 1.61648-1.36958 1.86648v-1.2795l.83053-.83054-.83007-.83007-.00046-.29542v-.39178h-1.17387v1.17386l-.82996.82994.82996.82991v.7936c-.79294-.2499-1.36958-.992-1.36958-1.86644v-1.1739c0-1.07884.87771-1.95652 1.95652-1.95652 1.0788 0 1.95651.87771 1.95651 1.95652z" fill="#ffda44"/></g></svg>