<svg fill="none" height="18" viewBox="0 0 18 18" width="18" xmlns="http://www.w3.org/2000/svg" xmlns:xlink="http://www.w3.org/1999/xlink"><clipPath id="a"><path d="m0 0h18v18h-18z"/></clipPath><g clip-path="url(#a)"><path d="m0 8.99945c0 1.10085.198035 2.15545.559793 3.13045l8.440207.7826 8.4402-.7826c.3618-.975.5598-2.0296.5598-3.13045 0-1.10088-.198-2.15542-.5598-3.13041l-8.4402-.78261-8.440207.78261c-.361758.97499-.559793 2.02953-.559793 3.13041z" fill="#ffda44"/><g fill="#d80027"><path d="m17.4419 5.86934c-1.2716-3.42717-4.5705-5.86958414-8.44017-5.86958414-3.86968 0-7.16857 2.44241414-8.440207 5.86958414z"/><path d="m.560547 12.1305c1.271633 3.4272 4.570523 5.8696 8.440203 5.8696 3.86965 0 7.16855-2.4424 8.44025-5.8696z"/></g></g></svg>