<svg fill="none" height="18" viewBox="0 0 18 18" width="18" xmlns="http://www.w3.org/2000/svg" xmlns:xlink="http://www.w3.org/1999/xlink"><clipPath id="a"><path d="m0 0h18v18h-18z"/></clipPath><g clip-path="url(#a)"><path d="m0 8.99994c0 1.10096.198035 2.15546.559828 3.13056l8.440172.7825 8.4402-.7826c.3618-.975.5598-2.0295.5598-3.13046 0-1.0858-.1923-2.12667-.5447-3.09041l-8.4553-.82262-8.455289.82266c-.352371.9637-.544711 2.00457-.544711 3.09037z" fill="#ffda44"/><path d="m8.99978 18.0002c3.86972 0 7.16852-2.4424 8.44022-5.8696h-16.88043c1.27164 3.4272 4.57052 5.8696 8.44021 5.8696z" fill="#d80027"/><path d="m8.99978-.00024414c-3.86969 0-7.16857 2.44237414-8.44021 5.86958414h16.88043c-1.2717-3.42721-4.5705-5.86958414-8.44022-5.86958414z" fill="#6da544"/><path d="m8.99967 13.3049c2.37723 0 4.30433-1.9272 4.30433-4.30438 0-2.37723-1.9271-4.30435-4.30433-4.30435s-4.30436 1.92712-4.30436 4.30435c0 2.37718 1.92713 4.30438 4.30436 4.30438z" fill="#0052b4"/><g fill="#ffda44"><path d="m8.99974 5.66736.77702 2.3914h2.51854l-2.0383 1.478.7831 2.39854-2.04036-1.4851-2.03724 1.4823.77998-2.39574-2.03643-1.478h2.51666z"/><path d="m12.0986 9.59544-2.46505-.801 1.52345-2.09671-.6331-.46006-1.52352 2.09686-1.52335-2.09682-.63317.45998 1.52339 2.09689-2.46491.80083.24181.74439 2.46501-.80092v2.59182h.78258v-2.59186l2.46496.80096z"/></g></g></svg>