<svg fill="none" height="18" viewBox="0 0 18 18" width="18" xmlns="http://www.w3.org/2000/svg" xmlns:xlink="http://www.w3.org/1999/xlink"><clipPath id="a"><path d="m0 0h18v18h-18z"/></clipPath><g clip-path="url(#a)"><path d="m9 18c4.9706 0 9-4.0294 9-9 0-4.97056-4.0294-9-9-9-4.97056 0-9 4.02944-9 9 0 4.9706 4.02944 9 9 9z" fill="#f0f0f0"/><path d="m17.9238 7.82604h-10.88028-.00004v-7.612173c-.83172.18443-1.62024.483363-2.34784.880383v6.73172.00003h-4.6194564c-.0500977.3843-.0761836.77608-.0761836 1.17394s.0260859.78965.0761836 1.17386h4.6194264.00003v6.7318c.7276.397 1.51612.696 2.34784.8804v-7.6121h10.88032c.05-.38431.0762-.7761.0762-1.17396s-.0262-.78964-.0762-1.1739z" fill="#0052b4"/></g></svg>