<svg fill="none" height="18" viewBox="0 0 18 18" width="18" xmlns="http://www.w3.org/2000/svg" xmlns:xlink="http://www.w3.org/1999/xlink"><clipPath id="a"><path d="m0 0h18v18h-18z"/></clipPath><g clip-path="url(#a)"><path d="m18 9c0 4.9705-4.0295 9-9 9-4.97053 0-9-4.0295-9-9 0 .00214 9-8.99901562 9-9 4.9705 0 9 4.02947 9 9z" fill="#338af3"/><path d="m9.00053 4.30518v3.03549l-3.13041-3.03549z" fill="#0052b4"/><path d="m4.69598 9.00135h2.64417l-2.64417-3.52174-.39129 2.73913z" fill="#0052b4"/><path d="m8.97559 9.00007h.02412c0-.0081 0-.01598 0-.02412-.00803.00807-.01606.01609-.02412.02412z" fill="#f0f0f0"/><path d="m8.99999 4.69625c0-1.58361 0-2.62125 0-4.69563965h-.00151c-4.96986.00084375-8.99848 4.02992965-8.99848 8.99999965h4.69564v-2.64414l2.64417 2.64414h1.63617c.00802-.00802.01603-.01603.02409-.02408 0-.60634 0-1.14736 0-1.63607l-2.64425-2.64421z" fill="#f0f0f0"/><path d="m4.55319 1.17432c-1.40762.80152-2.57783 1.97174-3.37936 3.37936v4.44674h2.34784v-5.47819-.00007h5.47826c0-.7405 0-1.44594 0-2.34784z" fill="#d80027"/><path d="m8.99963 7.89361-3.19756-3.19757h-1.10676v.00008l4.30425 4.30424h.00007s0-.76314 0-1.10675z" fill="#d80027"/><path d="m10.1738 5.87038v3.13038c0 2.09674 2.7392 2.73914 2.7392 2.73914s2.7391-.6424 2.7391-2.73914v-3.13038l-2.7391-.78261z" fill="#f3f3f3"/><path d="m15.6521 5.8697v-1.1739h-5.4783v1.1739h2.3478v2.34788h-2.3478v.78254.00007l2.3478.00003v2.61908c.2362.0835.3914.12.3914.12s.1551-.0364.3912-.12v-2.61911h2.3479v-.00007-.78258h-2.3479v-2.34787h2.3479z" fill="#d80027"/></g></svg>