<svg fill="none" height="18" viewBox="0 0 18 18" width="18" xmlns="http://www.w3.org/2000/svg" xmlns:xlink="http://www.w3.org/1999/xlink"><clipPath id="a"><path d="m0 0h18v18h-18z"/></clipPath><g clip-path="url(#a)"><path d="m18 9c0 4.9705-4.0295 9-9 9-4.97053 0-9-4.0295-9-9 0 .00214 9-8.99901562 9-9 4.9705 0 9 4.02947 9 9z" fill="#0052b4"/><path d="m8.97559 9.0002h.02412c0-.0081 0-.01599 0-.02413-.00803.00807-.01606.0161-.02412.02413z" fill="#f0f0f0"/><path d="m9 4.69564c0-1.58361 0-2.62125 0-4.69564h-.00152c-4.96986.00084375-8.99848 4.02993-8.99848 9h4.69564v-2.64414l2.64417 2.64414h1.63614c.00801-.00802.01603-.01603.02408-.02408 0-.60634 0-1.14736 0-1.63607l-2.64421-2.64421z" fill="#f0f0f0"/><path d="m4.55221 1.17371c-1.40762.80152-2.57783 1.97173-3.37936 3.37936v4.44673h2.34784v-5.47818-.00007h5.47826c0-.7405 0-1.44595 0-2.34784z" fill="#d80027"/><path d="m8.99866 7.89336-3.19757-3.19756h-1.10675v.00007l4.30425 4.30425h.00007s0-.76314 0-1.10676z" fill="#d80027"/><path d="m14.4782 10.5647v.3913h-3.1304v-.3913h-1.174v1.5652h.7826v.3913h3.9131v-.3913h.7826v-1.5652z" fill="#ffda44"/><path d="m10.1738 4.69617v4.30435c0 2.09668 2.7392 2.73918 2.7392 2.73918s2.7391-.6425 2.7391-2.73918v-4.30435z" fill="#338af3"/><g fill="#f3f3f3"><path d="m12.9128 7.90723c-.6848 0-.6848.62609-1.3695.62609s-.6847-.62609-1.3695-.62609v1.09564c.6848 0 .6848.62609 1.3695.62609s.6847-.62609 1.3695-.62609.6848.62609 1.3696.62609c.6849 0 .6848-.62609 1.3697-.62609v-1.09564c-.6848 0-.6848.62609-1.3697.62609-.6848 0-.6848-.62609-1.3696-.62609z"/><path d="m12.9128 5.71362c-.6848 0-.6848.6261-1.3695.6261s-.6847-.6261-1.3695-.6261v1.09565c.6848 0 .6848.6261 1.3695.6261s.6847-.6261 1.3695-.6261.6848.6261 1.3696.6261c.6849 0 .6848-.6261 1.3697-.6261v-1.09565c-.6848 0-.6848.6261-1.3697.6261-.6848 0-.6848-.6261-1.3696-.6261z"/></g></g></svg>