<svg fill="none" height="18" viewBox="0 0 18 18" width="18" xmlns="http://www.w3.org/2000/svg" xmlns:xlink="http://www.w3.org/1999/xlink"><clipPath id="a"><path d="m0 0h18v18h-18z"/></clipPath><g clip-path="url(#a)"><path d="m9 18c4.9706 0 9-4.0294 9-9 0-4.97056-4.0294-9-9-9-4.97056 0-9 4.02944-9 9 0 4.9706 4.02944 9 9 9z" fill="#338af3"/><g fill="#f0f0f0"><path d="m9.00124 3.91309.38848 1.19573h1.25728l-1.01709.73902.38849 1.1957-1.01716-.73899-1.01718.73899.38859-1.1957-1.01718-.73902h1.25729z"/><path d="m3.91406 8.99976 1.19574-.38855v-1.25733l.73902 1.01721 1.1957-.38851-.73899 1.01718.73899 1.01704-1.1957-.38852-.73902 1.01722v-1.2573z"/><path d="m9.00131 14.0872-.38851-1.1957h-1.25733l1.01721-.739-.38851-1.1957 1.01714.739 1.01709-.739-.38853 1.1957 1.01713.739h-1.25721z"/><path d="m14.0885 8.99965-1.1958.38852v1.25733l-.739-1.01722-1.1957.38852.739-1.01715-.739-1.0171 1.1957.38854.739-1.01721v1.2573z"/></g></g></svg>