<svg fill="none" height="18" viewBox="0 0 18 18" width="18" xmlns="http://www.w3.org/2000/svg" xmlns:xlink="http://www.w3.org/1999/xlink"><clipPath id="a"><path d="m0 0h18v18h-18z"/></clipPath><g clip-path="url(#a)"><path d="m9 18c4.9706 0 9-4.0294 9-9 0-4.97056-4.0294-9-9-9-4.97056 0-9 4.02944-9 9 0 4.9706 4.02944 9 9 9z" fill="#f0f0f0"/><path d="m17.6086 8.99994.3149-1.17391c-.0523-.40011-.1308-.79203-.2337-1.1739h-9.47257v-6.6179503c-.39937.0343828-.79119.0951683-1.1739.1800353l-1.56523.959625-.78261-.079c-.41185.22472-.80423.48066-1.1739.76469v4.79257h-3.211699c-.102903.38186-.181371.77379-.233684 1.1739l.31493 1.17394-.3149651 1.17386c.0523121.4002.1307811.7921.2336831 1.1739h3.211695v4.7926c.36967.2841.76209.54 1.17391.7647l1.1739-.079 1.1739.9596c.38275.0849.77456.1456 1.1739.1801v-6.6179h9.47254c.1029-.3819.1814-.7738.2337-1.1739z" fill="#0052b4"/><path d="m17.9238 7.82604h-10.88028-.00004v-7.612173c-.83172.18443-1.62024.483363-2.34784.880383v6.73175h-4.6194564c-.0500273.3843-.0761836.77608-.0761836 1.17394s.0261563.78965.0761836 1.17386h4.6194264.00003v6.7318c.7276.397 1.51612.696 2.34784.8804v-7.6121h10.88032c.05-.38431.0762-.7761.0762-1.17396s-.0262-.78964-.0762-1.1739z" fill="#d80027"/></g></svg>