<svg fill="none" height="18" viewBox="0 0 18 18" width="18" xmlns="http://www.w3.org/2000/svg" xmlns:xlink="http://www.w3.org/1999/xlink"><clipPath id="a"><path d="m0 0h18v18h-18z"/></clipPath><g clip-path="url(#a)"><path d="m17.4402 12.1312c.3618-.9749.5598-2.0295.5598-3.1304 0-1.10088-.198-2.1554-.5598-3.13042l-8.4402-.78261-8.440207.78261c-.361758.97502-.559793 2.02954-.559793 3.13042 0 1.1009.198035 2.1555.559793 3.1304l8.440207.7826z" fill="#ffda44"/><path d="m9.00079 17.9997c3.86961 0 7.16861-2.4424 8.44021-5.8696h-16.880453c1.271673 3.4272 4.570523 5.8696 8.440243 5.8696z" fill="#0052b4"/><path d="m9.00079.00048828c-3.86972 0-7.16857 2.44237172-8.440243 5.86958172h16.880453c-1.2716-3.42721-4.5706-5.86958172-8.44021-5.86958172z" fill="#6da544"/></g></svg>