<svg fill="none" height="18" viewBox="0 0 18 18" width="18" xmlns="http://www.w3.org/2000/svg" xmlns:xlink="http://www.w3.org/1999/xlink"><clipPath id="a"><path d="m0 0h18v18h-18z"/></clipPath><g clip-path="url(#a)"><path d="m9 18c4.9706 0 9-4.0294 9-9 0-4.97056-4.0294-9-9-9-4.97056 0-9 4.02944-9 9 0 4.9706 4.02944 9 9 9z" fill="#f0f0f0"/><g fill="#0052b4"><path d="m1.86097 3.51978c-.70695.91979-1.240029 1.97992-1.550423 3.13161h4.682033z"/><path d="m17.6908 6.65135c-.3104-1.15165-.8435-2.21178-1.5505-3.13157l-3.1315 3.13157z"/><path d="m.310547 11.3477c.31043 1.1516.843503 2.2117 1.550423 3.1315l3.13151-3.1315z"/><path d="m14.4792 1.85979c-.9198-.70696-1.9799-1.240034-3.1315-1.550464v4.682004z"/><path d="m3.52051 16.1382c.91979.707 1.97993 1.2401 3.13158 1.5505v-4.682z"/><path d="m6.65205.309326c-1.15165.31043-2.21178.843504-3.13154 1.550424l3.13154 3.13154z"/><path d="m11.3477 17.6887c1.1516-.3104 2.2117-.8435 3.1315-1.5504l-3.1315-3.1316z"/><path d="m13.0088 11.3477 3.1315 3.1315c.707-.9197 1.2401-1.9799 1.5505-3.1315z"/></g><path d="m17.9238 7.8261h-7.7498-.0001v-7.7499164c-.38426-.0500273-.77604-.0761836-1.1739-.0761836-.39793 0-.78964.0261563-1.1739.0761836v7.7498464.00003h-7.7499164c-.0500273.3843-.0761836.77608-.0761836 1.17394 0 .39793.0261563.78964.0761836 1.1739h7.7498464.00003v7.7499c.3843.05.77601.0762 1.17394.0762.39786 0 .78964-.0261 1.1739-.0762v-7.7498-.0001h7.7499c.05-.38426.0762-.77597.0762-1.1739 0-.39786-.0262-.78964-.0762-1.1739z" fill="#d80027"/><path d="m11.3477 11.3484 4.0161 4.0161c.1847-.1846.3609-.3776.529-.5778l-3.4384-3.4383z" fill="#d80027"/><path d="m6.65189 11.3484h-.00007l-4.01608 4.0161c.18464.1847.37769.3609.5778.529l3.43835-3.4384z" fill="#d80027"/><path d="m6.65256 6.65183v-.00007l-4.01611-4.01614c-.18471.18464-.36091.37768-.52903.57779l3.43839 3.43839h1.10675z" fill="#d80027"/><path d="m11.3477 6.6526 4.0161-4.01618c-.1846-.18471-.3777-.36092-.5778-.529l-3.4383 3.43839z" fill="#d80027"/></g></svg>