<svg fill="none" height="18" viewBox="0 0 18 18" width="18" xmlns="http://www.w3.org/2000/svg" xmlns:xlink="http://www.w3.org/1999/xlink"><clipPath id="a"><path d="m0 0h18v18h-18z"/></clipPath><g clip-path="url(#a)"><path d="m9 18c4.9706 0 9-4.0294 9-9 0-4.97056-4.0294-9-9-9-4.97056 0-9 4.02944-9 9 0 4.9706 4.02944 9 9 9z" fill="#ffda44"/><path d="m3.92773 1.5651c1.4444-.987394 3.19089-1.56522207 5.07259-1.56522207 1.88168 0 3.62818.57782807 5.07258 1.56522207l-5.07258.39129z" fill="#a2001d"/><path d="m9.00033 8.99968-.57438-.57439-.15251.2732z" fill="#0052b4"/><path d="m2.63603 2.63635c-3.514708 3.51471-3.514708 9.21325 0 12.72795 1.45242-1.4524 2.84928-2.8493 6.36399-6.36396z" fill="#496e2d"/><path d="m15.364 2.63696c3.5147 3.51471 3.5147 9.21324 0 12.72794-1.4524-1.4524-2.8493-2.8492-6.364-6.36395z" fill="#496e2d"/><path d="m8.99956 12.1306c1.72884 0 3.13044-1.4015 3.13044-3.13043 0-1.72888-1.4016-3.13042-3.13044-3.13042-1.72888 0-3.13042 1.40154-3.13042 3.13042 0 1.72893 1.40154 3.13043 3.13042 3.13043z" fill="#a2001d"/><path d="m8.99998 5.86987.70168 2.15962h2.27104l-1.8372 1.33499.7017 2.15972-1.83722-1.3347-1.83727 1.3347.70183-2.15972-1.8372-1.33499h2.27089z" fill="#ffda44"/><path d="m9.00323-.00012207h-.00601c-2.48389.00080859-4.73252 1.00779207-6.3605 2.63559207h12.72698c-1.628-1.6278-3.8766-2.63478348-6.36047-2.63559207z" fill="#a2001d"/><path d="m2.63672 15.3643c1.62865 1.6284 3.87844 2.6355 6.36346 2.6355s4.73482-1.0071 6.36342-2.6355z" fill="#a2001d"/><g fill="#ffda44"><path d="m8.99998.978149.14572.448381h.47145l-.38141.27714.14572.44838-.38148-.2771-.38141.2771.14572-.44838-.38148-.27714h.47145z"/><path d="m6.81736.978149.14573.448381h.47144l-.38141.27714.14572.44838-.38148-.2771-.38137.2771.14569-.44838-.38148-.27714h.47144z"/><path d="m11.1816.978149.1457.448381h.4715l-.3814.27714.1457.44838-.3815-.2771-.3814.2771.1457-.44838-.3814-.27714h.4714z"/><path d="m8.99998 15.8473.14572.4484h.47145l-.38141.2771.14572.4484-.38148-.2771-.38141.2771.14572-.4484-.38148-.2771h.47145z"/><path d="m6.81736 15.8473.14573.4484h.47144l-.38141.2771.14572.4484-.38148-.2771-.38137.2771.14569-.4484-.38148-.2771h.47144z"/><path d="m11.1816 15.8473.1457.4484h.4715l-.3814.2771.1457.4484-.3815-.2771-.3814.2771.1457-.4484-.3814-.2771h.4714z"/><path d="m2.74223 8.85145c.23116.36524.12252.84867-.24272 1.07986-.3652.23119-.84867.12259-1.07986-.24269-.41853-.66122-.17585-1.74111-.17585-1.74111s1.07986.24268 1.49843.90394z"/></g><path d="m2.2907 9.99181c.21611 0 .39129-.17519.39129-.39129 0-.21611-.17518-.39129-.39129-.39129-.2161 0-.39129.17518-.39129.39129 0 .2161.17519.39129.39129.39129z" fill="#a2001d"/></g></svg>