<svg fill="none" height="18" viewBox="0 0 18 18" width="18" xmlns="http://www.w3.org/2000/svg" xmlns:xlink="http://www.w3.org/1999/xlink"><clipPath id="a"><path d="m0 0h18v18h-18z"/></clipPath><g clip-path="url(#a)"><path d="m9 18c4.9706 0 9-4.0294 9-9 0-4.97056-4.0294-9-9-9-4.97056 0-9 4.02944-9 9 0 4.9706 4.02944 9 9 9z" fill="#f0f0f0"/><g fill="#d80027"><path d="m17.9238 7.8261h-7.7498-.0001v-7.7499164c-.38426-.0500273-.77604-.0761836-1.1739-.0761836s-.78964.0261563-1.1739.0761836v7.7498464.00003h-7.7499164c-.0500273.3843-.0761836.77608-.0761836 1.17394 0 .39793.0261563.78964.0761836 1.1739h7.7498464.00003v7.7499c.3843.05.77608.0762 1.17394.0762s.78964-.0261 1.1739-.0762v-7.7498-.0001h7.7499c.05-.38426.0762-.77597.0762-1.1739 0-.39786-.0262-.78964-.0762-1.1739z"/><path d="m5.4787 4.30486v-1.17394h-1.1739v1.17394h-1.17394v1.1739h1.17394v1.1739h1.1739v-1.1739h1.1739v-1.1739z"/><path d="m13.6955 4.30486v-1.17394h-1.1739v1.17394h-1.1739v1.1739h1.1739v1.1739h1.1739v-1.1739h1.1739v-1.1739z"/><path d="m5.4787 12.5225v-1.1739h-1.1739v1.1739h-1.17394v1.1739h1.17394v1.174h1.1739v-1.174h1.1739v-1.1739z"/><path d="m13.6955 12.5225v-1.1739h-1.1739v1.1739h-1.1739v1.1739h1.1739v1.174h1.1739v-1.174h1.1739v-1.1739z"/></g></g></svg>