<svg fill="none" height="18" viewBox="0 0 18 18" width="18" xmlns="http://www.w3.org/2000/svg" xmlns:xlink="http://www.w3.org/1999/xlink"><clipPath id="a"><path d="m0 0h18v18h-18z"/></clipPath><g clip-path="url(#a)"><path d="m0 8.99934c0 1.10086.198035 2.15546.559793 3.13046l8.440207.3913 8.4402-.3913c.3618-.975.5598-2.0296.5598-3.13046 0-1.10088-.198-2.15543-.5598-3.13042l-8.4402-.39132-8.440207.39129c-.361758.97502-.559793 2.02957-.559793 3.13045z" fill="#ffda44"/><path d="m8.99978-.00073242c-3.86969 0-7.16857 2.44237242-8.44021 5.86958242h16.88043c-1.2717-3.42721-4.5705-5.86958242-8.44022-5.86958242z" fill="#d80027"/><path d="m17.44 12.1306h-16.88043c1.27164 3.4271 4.57052 5.8695 8.44021 5.8695 3.86972 0 7.16852-2.4424 8.44022-5.8695z" fill="#496e2d"/><path d="m9.00045 5.86975.77696 2.39133h2.51469l-2.0343 1.47807.777 2.39145-2.03435-1.478-2.03431 1.478.77709-2.39145-2.03425-1.47807h2.51452z" fill="#000"/></g></svg>