<svg fill="none" height="18" viewBox="0 0 18 18" width="18" xmlns="http://www.w3.org/2000/svg" xmlns:xlink="http://www.w3.org/1999/xlink"><clipPath id="a"><path d="m0 0h18v18h-18z"/></clipPath><g clip-path="url(#a)"><path d="m9 18c4.9706 0 9-4.0294 9-9 0-4.97056-4.0294-9-9-9-4.97056 0-9 4.02944-9 9 0 4.9706 4.02944 9 9 9z" fill="#f9f9f9"/><path d="m8.99981 18.0005c3.86969 0 7.16859-2.4424 8.44019-5.8696h-16.88043c1.27167 3.4272 4.57052 5.8696 8.44024 5.8696z" fill="#d80027"/><path d="m12.5214 7.43521v-1.1739h.3913v-.78261h-.7826v.39132h-.7826v-.39132h-.7826v.78261h.3913v1.1739h-.7826v-2.73906h.3913v-.78258h-.78262v.39122h-.39132v-.39122h-.78258v.39122h-.39132v-.39122h-.78262v.78258h.39133v2.73906h-.78262v-1.1739h.39129v-.78261h-.78261v.39132h-.78258v-.39132h-.78261v.78261h.39129v1.1739h-.78262v3.13049h8.60869v-3.13049z" fill="#d80027"/><path d="m8.99976 10.1738c-.64831 0-1.1739.5256-1.1739 1.1739 0 .5111.32674.9457.78261 1.1069v1.6323h-1.1739v1.5652h1.95652v-3.1975c.45587-.1611.78261-.5958.78261-1.1068 0-.6484-.52562-1.174-1.17394-1.174zm0 1.5653c-.2161 0-.39129-.1753-.39129-.3913 0-.2161.17519-.3913.39129-.3913.21611 0 .39129.1752.39129.3913 0 .216-.17518.3913-.39129.3913z" fill="#ffda44"/></g></svg>