<svg fill="none" height="18" viewBox="0 0 18 18" width="18" xmlns="http://www.w3.org/2000/svg" xmlns:xlink="http://www.w3.org/1999/xlink"><clipPath id="a"><path d="m0 0h18v18h-18z"/></clipPath><g clip-path="url(#a)"><path d="m0 9c0-4.97053 4.02947-9 9-9 4.9705 0 9 4.02947 9 9-.3913 0-9 1.1739-9 1.1739z" fill="#f0f0f0"/><path d="m18 9.00031c0 4.97049-4.0295 8.99999-9 8.99999-4.97053 0-9-4.0295-9-8.99999" fill="#d80027"/><path d="m6.26041 13.3048c2.37723 0 4.30439-1.9272 4.30439-4.3044 0-2.37723-1.92716-4.30436-4.30439-4.30436s-4.30436 1.92713-4.30436 4.30436c0 2.3772 1.92713 4.3044 4.30436 4.3044z" fill="#f0f0f0"/><path d="m1.95605 9.0004c0-2.37716 1.92713-4.30436 4.30436-4.30436 2.37727 0 4.30439 1.92717 4.30439 4.30436" fill="#d80027"/></g></svg>