<svg fill="none" height="18" viewBox="0 0 18 18" width="18" xmlns="http://www.w3.org/2000/svg" xmlns:xlink="http://www.w3.org/1999/xlink"><clipPath id="a"><path d="m0 0h18v18h-18z"/></clipPath><g clip-path="url(#a)"><path d="m9 18c4.9706 0 9-4.0294 9-9 0-4.97056-4.0294-9-9-9-4.97056 0-9 4.02944-9 9 0 4.9706 4.02944 9 9 9z" fill="#f0f0f0"/><path d="m9.00046.00061035c-3.72076 0-6.91393 2.25794965-8.28464 5.47825965h16.56928c-1.3707-3.22031-4.5639-5.47825965-8.28464-5.47825965z" fill="#a2001d"/><path d="m9.00046 18.0005c3.72074 0 6.91394-2.2579 8.28464-5.4782h-16.56928c1.37071 3.2203 4.56388 5.4782 8.28464 5.4782z" fill="#496e2d"/><path d="m17.69 6.65222h-17.379957c-.201762.74858-.310043 1.53549-.310043 2.34784 0 .81236.108281 1.59924.310043 2.34784h17.379957c.2017-.7486.31-1.53548.31-2.34784 0-.81235-.1083-1.59926-.31-2.34784z" fill="#0052b4"/></g></svg>