<svg fill="none" height="18" viewBox="0 0 18 18" width="18" xmlns="http://www.w3.org/2000/svg" xmlns:xlink="http://www.w3.org/1999/xlink"><clipPath id="a"><path d="m0 0h18v18h-18z"/></clipPath><g clip-path="url(#a)"><path d="m12.1307.559706c-.975-.361793-2.0296-.55982807-3.13051-.55982807-1.10085 0-2.1554.19803507-3.13035.55975807l-.39132 8.440244.39128 8.44022c.97499.3618 2.02954.5598 3.13039.5598 1.10091 0 2.15551-.198 3.13051-.5599l.3913-8.44012z" fill="#ffda44"/><path d="m0 9.0003c0 3.8696 2.44238 7.1686 5.86958 8.4402v-16.880441c-3.4272 1.271671-5.86958 4.570521-5.86958 8.440241z" fill="#d80027"/><path d="m18.0004 9.0003c0-3.86972-2.4423-7.16857-5.8695-8.440241v16.880441c3.4272-1.2716 5.8695-4.5706 5.8695-8.4402z" fill="#6da544"/></g></svg>