<svg fill="none" height="18" viewBox="0 0 18 18" width="18" xmlns="http://www.w3.org/2000/svg" xmlns:xlink="http://www.w3.org/1999/xlink"><clipPath id="a"><path d="m0 0h18v18h-18z"/></clipPath><g clip-path="url(#a)"><path d="m9 18c4.9706 0 9-4.0294 9-9 0-4.97056-4.0294-9-9-9-4.97056 0-9 4.02944-9 9 0 4.9706 4.02944 9 9 9z" fill="#f0f0f0"/><path d="m5.47864 5.86934h11.96196c-1.2716-3.42721-4.5706-5.86958414-8.44021-5.86958414-2.48534 0-4.73509 1.00754414-6.36367 2.63633414z" fill="#6da544"/><path d="m5.47864 12.1306h11.96196c-1.2716 3.4272-4.5706 5.8696-8.44021 5.8696-2.48534 0-4.73509-1.0076-6.36367-2.6363z" fill="#d80027"/><path d="m2.63603 2.6366c-3.514708 3.51471-3.514708 9.2132 0 12.728 1.45242-1.4524 2.84928-2.8493 6.36399-6.36402z" fill="#0052b4"/><path d="m10.5654 7.43457v1.95652c0 1.19811 1.5653 1.56521 1.5653 1.56521s1.5652-.3671 1.5652-1.56521v-1.95652z" fill="#dedde0"/><path d="m12.5219 9.03931h-.7826v1.13479h.7826z" fill="#786145"/><path d="m12.9126 8.60903c0-.43225-.3504-.78261-.7826-.78261-.4323 0-.7827.35036-.7827.78261-.2161 0-.3912.17519-.3912.39129 0 .21611.1751.39129.3912.39129h1.5653c.2161 0 .3913-.17518.3913-.39129 0-.2161-.1752-.39129-.3913-.39129z" fill="#6da544"/></g></svg>