<svg fill="none" height="18" viewBox="0 0 18 18" width="18" xmlns="http://www.w3.org/2000/svg" xmlns:xlink="http://www.w3.org/1999/xlink"><clipPath id="a"><path d="m0 0h18v18h-18z"/></clipPath><g clip-path="url(#a)"><path d="m9 18c4.9706 0 9-4.0294 9-9 0-4.97056-4.0294-9-9-9-4.97056 0-9 4.02944-9 9 0 4.9706 4.02944 9 9 9z" fill="#f0f0f0"/><g fill="#338af3"><path d="m9 6.65253h8.69c-.2257-.83721-.5687-1.62616-1.011-2.34784h-7.679z"/><path d="m3.39793 16.0435h11.20477c.8213-.6542 1.5257-1.4488 2.0766-2.3478h-15.35801c.55093.899 1.25532 1.6936 2.07664 2.3478z"/><path d="m3.13075 2.1778c-.70756.60929-1.31924 1.32679-1.80946 2.12681h1.80946z"/><path d="m9 8.99994c0-.91673 0-1.68395 0-2.34784h-3.52174v2.34784h-2.34784v-2.34784h-2.820377c-.201762.74862-.310043 1.53548-.310043 2.34784s.108281 1.59926.310043 2.34786h17.379957c.2017-.7486.31-1.5355.31-2.34786z"/><path d="m9.00026.00048828c-1.24977 0-2.43999.25498872-3.52174.71535972v3.588992h3.52174c0-.81956 0-1.5166 0-2.34784h5.60244c-1.5375-1.224418-3.4843-1.95651172-5.60244-1.95651172z"/></g></g></svg>