<svg fill="none" height="18" viewBox="0 0 18 18" width="18" xmlns="http://www.w3.org/2000/svg" xmlns:xlink="http://www.w3.org/1999/xlink"><clipPath id="a"><path d="m0 0h18v18h-18z"/></clipPath><g clip-path="url(#a)"><path d="m9 18c4.9706 0 9-4.0294 9-9 0-4.97056-4.0294-9-9-9-4.97056 0-9 4.02944-9 9 0 4.9706 4.02944 9 9 9z" fill="#f0f0f0"/><path d="m17.9991 9.00015c0-3.56815-2.0765-6.65121-5.087-8.106962v16.213912c3.0105-1.4557 5.087-4.5388 5.087-8.10695z" fill="#338af3"/><path d="m0 9.00003c0 3.56807 2.0765 6.65117 5.08697 8.10697v-16.213934c-3.01047 1.455754-5.08697 4.538814-5.08697 8.106964z" fill="#338af3"/><path d="m11.3513 10.5213-1.52181-1.52175 1.44851-1.44861-.0656-.76507-.4147-.41478-1.79832 1.79832-1.79831-1.79832-.41471.41478-.06563.76507 1.44854 1.44861-1.52181 1.52175.83011.8301 1.52181-1.52177 1.52182 1.52177z" fill="#acabb1"/><path d="m11.2131 6.78674-.8301.83008c.3541.35406.5731.84319.5731 1.38347 0 1.08061-.876 1.95651-1.95651 1.95651-1.08052 0-1.95655-.8759-1.95655-1.95651 0-.54028.21903-1.02941.57309-1.38347l-.83008-.83008c-.56654.56644-.91691 1.34905-.91691 2.21355 0 1.72891 1.40154 3.13041 3.13042 3.13041 1.72884 0 3.13044-1.4015 3.13044-3.13041 0-.86446-.3504-1.64707-.9169-2.21355z" fill="#6da544"/></g></svg>