<svg fill="none" height="18" viewBox="0 0 18 18" width="18" xmlns="http://www.w3.org/2000/svg" xmlns:xlink="http://www.w3.org/1999/xlink"><clipPath id="a"><path d="m0 0h18v18h-18z"/></clipPath><g clip-path="url(#a)"><path d="m3.92676 16.4342c1.44436.9874 3.19092 1.5653 5.07259 1.5653 1.88165 0 3.62815-.5779 5.07255-1.5653l-5.07255-.7826z" fill="#d80027"/><path d="m14.0729 1.56523c-1.4444-.987367-3.1909-1.56523-5.07258-1.56523-1.88166 0-3.62823.577863-5.07259 1.56523l5.07259.78261z" fill="#d80027"/><path d="m18 9.00033c0-2.97809-1.783-5.96883-3.9274-7.43478h-10.14519c-2.37104 1.62085-3.92741 4.34595-3.92741 7.43478 0 3.08897 1.55637 5.81397 3.92741 7.43477h10.14519c2.3711-1.6208 3.9274-4.3458 3.9274-7.43477z" fill="#0052b4"/><path d="m8.49095 14.6812c-.12298-.1055-3.01243-2.6173-3.01243-5.68116 0-3.06383 2.88942-5.57571 3.01243-5.68115l.50931-.43657.50931.43654c.12298.10547 3.01243 2.61731 3.01243 5.68118 0 3.06386-2.88942 5.57576-3.01243 5.68116l-.50931.4366z" fill="#d80027"/><path d="m11.739 9.00006c0-2.73913-2.73913-5.08697-2.73913-5.08697s-2.73913 2.34791-2.73913 5.08697c0 .83795.25654 1.63914.61239 2.34784h4.25347c.3559-.7087.6124-1.50989.6124-2.34784z" fill="#338af3"/><path d="m11.739 9.00037c0 .83795-.2565 1.63913-.6124 2.34783l-2.12673.3913-2.12674-.3913c-.35585-.7087-.61239-1.50988-.61239-2.34783z" fill="#0052b4"/><path d="m8.99979 14.0868s1.31931-1.1312 2.12671-2.7391h-4.25345c.80739 1.6079 2.12674 2.7391 2.12674 2.7391z" fill="#ffda44"/><path d="m7.23828 7.43445h3.52172l-1.76085 1.76087z" fill="#6da544"/><path d="m9.58699 8.60791h-1.1739v3.52179h1.1739z" fill="#a2001d"/></g></svg>