<svg fill="none" height="18" viewBox="0 0 18 18" width="18" xmlns="http://www.w3.org/2000/svg" xmlns:xlink="http://www.w3.org/1999/xlink"><clipPath id="a"><path d="m0 0h18v18h-18z"/></clipPath><g clip-path="url(#a)"><path d="m8.99956-.00012207c-.81232 0-1.59926.10828107-2.34784.31004307l-.78258 8.689959.78261 8.68992c.74855.2018 1.53549.3101 2.34781.3101 4.97054 0 9.00004-4.0295 9.00004-9.00002 0-4.97053-4.0295-9.00000207-9.00004-9.00000207z" fill="#ffda44"/><path d="m5.86914 9.00037.78261 8.68993c.74855.2018 1.53549.3101 2.34781.3101 4.97054 0 9.00004-4.0295 9.00004-9.00003z" fill="#6da544"/><path d="m0 8.99956c0 3.41144 1.89809 6.37924 4.69564 7.90574v-15.81143c-2.79755 1.52642-4.69564 4.49431-4.69564 7.90569z" fill="#d80027"/><path d="m0 8.99953c0 4.15827 2.82027 7.65717 6.65216 8.68997v-17.37993c-3.83189 1.03275-6.65216 4.53171-6.65216 8.68996z" fill="#d80027"/><path d="m3.40125 6.65137.58272 1.79353h1.88599l-1.52571 1.10855.58268 1.79355-1.52568-1.1085-1.52574 1.1085.58282-1.79355-1.525713-1.10855h1.885883z" fill="#000"/></g></svg>