<svg fill="none" height="18" viewBox="0 0 18 18" width="18" xmlns="http://www.w3.org/2000/svg" xmlns:xlink="http://www.w3.org/1999/xlink"><clipPath id="a"><path d="m0 0h18v18h-18z"/></clipPath><g clip-path="url(#a)"><path d="m9 18c4.9706 0 9-4.0294 9-9 0-4.97056-4.0294-9-9-9-4.97056 0-9 4.02944-9 9 0 4.9706 4.02944 9 9 9z" fill="#f0f0f0"/><path d="m8.9998-.00073242c-1.59121 0-3.08563.41350742-4.38261 1.13808242v15.72385c1.29702.7246 2.7914 1.1381 4.38261 1.1381 4.9705 0 9-4.0295 9-9.00003s-4.0295-9.00000242-9-9.00000242z" fill="#6da544"/><path d="m4.64432 1.12366c-.56619.31377-1.09487.6867-1.57788 1.11069.04883-.04282.09816-.08515.14787-.12692l6.89289 6.89295-6.89293 6.89292c-.04974-.0417-.09903-.0841-.14786-.1269.48301.424 1.01172.7969 1.57788 1.1107l13.35621-7.87672z" fill="#f0f0f0"/><path d="m3.88402 1.59521c-.27447.19006-.53807.39456-.78926.61313l5.90555 6.79141-5.90558 6.79145c.25119.2185.51479.4231.78925.6131l12.57572-7.40455z" fill="#ffda44"/><path d="m3.21354 2.10742c-.20008.16812-.39316.34436-.5778.52896l5.58138 6.36399-5.58138 6.36403c.18464.1846.37769.3609.5778.5289l6.89296-6.89293z" fill="#000"/><path d="m2.63603 2.63574c-3.514708 3.51471-3.514708 9.21326 0 12.72796 1.45242-1.4524 2.84928-2.8493 6.36399-6.36397z" fill="#d80027"/></g></svg>