<svg fill="none" height="18" viewBox="0 0 18 18" width="18" xmlns="http://www.w3.org/2000/svg" xmlns:xlink="http://www.w3.org/1999/xlink"><clipPath id="a"><path d="m0 0h18v18h-18z"/></clipPath><g clip-path="url(#a)"><path d="m9 18c4.9706 0 9-4.0294 9-9 0-4.97056-4.0294-9-9-9-4.97056 0-9 4.02944-9 9 0 4.9706 4.02944 9 9 9z" fill="#d80027"/><g fill="#f0f0f0"><path d="m9.92954 6.80817c-.20454.85074-.56795.6885-.7463 1.43044-1.05057-.2526-1.69759-1.30905-1.44499-2.35969.25249-1.05058 1.30904-1.69759 2.35965-1.44499-.35673 1.48384.0146 1.61335-.16836 2.37424z"/><path d="m7.20296 7.43818c.74591.45738.47929.75294 1.12975 1.15185-.56489.92113-1.76952 1.20994-2.69068.64509-.92113-.56486-1.21001-1.76956-.64512-2.69069 1.30099.79777 1.53882.48463 2.20605.89375z"/><path d="m6.95935 10.2262c.66554-.56804.86414-.2232 1.44453-.71851.70155.82181.60395 2.05681-.21786 2.75831-.82188.7016-2.05685.6039-2.75829-.2179 1.16065-.9908.93632-1.3138 1.53162-1.8219z"/><path d="m9.53589 11.3186c-.33469-.8085.0547-.8909-.23706-1.5959.99837-.4132 2.14277.0612 2.55607 1.0596.4132.9984-.0613 2.1428-1.0597 2.556-.5835-1.4101-.95999-1.2966-1.25931-2.0197z"/><path d="m11.3716 9.20548c-.8724.06845-.8305-.32741-1.5911-.26771-.08448-1.07715.7204-2.01903 1.7976-2.10358 1.0772-.08434 2.019.72046 2.1035 1.79772-1.5215.11928-1.5299.51244-2.31.57357z"/></g></g></svg>