<svg fill="none" height="18" viewBox="0 0 18 18" width="18" xmlns="http://www.w3.org/2000/svg" xmlns:xlink="http://www.w3.org/1999/xlink"><clipPath id="a"><path d="m0 0h18v18h-18z"/></clipPath><g clip-path="url(#a)"><path d="m9 18c4.9706 0 9-4.0294 9-9 0-4.97056-4.0294-9-9-9-4.97056 0-9 4.02944-9 9 0 4.9706 4.02944 9 9 9z" fill="#f0f0f0"/><g fill="#338af3"><path d="m8.99954 17.9991c3.56816 0 6.65116-2.0765 8.10696-5.087h-16.213922c1.455752 3.0105 4.538812 5.087 8.106962 5.087z"/><path d="m9.00051-.00073242c-3.56814 0-6.65121 2.07650242-8.106955 5.08697242h16.213845c-1.4557-3.01047-4.5388-5.08697242-8.10689-5.08697242z"/><path d="m5.53902 5.86841.29138.8968h.94293l-.76283.5542.29141.8968-.76289-.55424-.76289.55424.29141-.8968-.76285-.5542h.94292z"/><path d="m5.53902 9.78186.29138.89684h.94293l-.76283.5542.29141.8968-.76289-.5543-.76289.5543.29141-.8968-.76285-.5542h.94292z"/><path d="m12.4609 5.86841.2914.8968h.9429l-.7628.5542.2914.8968-.7629-.55424-.7629.55424.2914-.8968-.7628-.5542h.9429z"/><path d="m12.4609 9.78186.2914.89684h.9429l-.7628.5542.2914.8968-.7629-.5543-.7629.5543.2914-.8968-.7628-.5542h.9429z"/><path d="m8.99898 7.82495.29141.89684h.94291l-.76284.5542.29141.89681-.76289-.55428-.76289.55428.29141-.89681-.76285-.5542h.94292z"/></g></g></svg>