<svg fill="none" height="18" viewBox="0 0 18 18" width="18" xmlns="http://www.w3.org/2000/svg" xmlns:xlink="http://www.w3.org/1999/xlink"><clipPath id="a"><path d="m0 0h18v18h-18z"/></clipPath><g clip-path="url(#a)"><path d="m18 9.00001c0-1.10088-.198-2.15546-.5598-3.13041l-8.4402-.39133-8.440207.39129c-.361758.97499-.559793 2.02957-.559793 3.13045 0 1.10089.198035 2.15549.559793 3.13039l8.440207.3914 8.4402-.3913c.3618-.975.5598-2.0296.5598-3.13049z" fill="#f0f0f0"/><path d="m8.99978 17.9996c3.86972 0 7.16852-2.4424 8.44022-5.8696h-16.88043c1.27164 3.4272 4.57052 5.8696 8.44021 5.8696z" fill="#0052b4"/><path d="m.55957 5.87001h16.88043c-1.2717-3.42721-4.5705-5.86958275-8.44022-5.86958275-3.86969 0-7.16857 2.44237275-8.44021 5.86958275z" fill="#d80027"/><path d="m11.3484 6.26065h-1.5652l.2609-1.95655 1.0434-.78262 1.0435.78262v1.56522z" fill="#338af3"/><path d="m6.65269 6.26101h1.56523l-.2609-1.95655-1.04347-.78261-1.04343.78261v1.56523z" fill="#338af3"/><path d="m10.0431 6.26083h-2.08705v-1.95655l1.04351-.78261 1.04354.78261z" fill="#0052b4"/><path d="m5.86914 5.86932v4.30428c0 1.025.49507 1.9364 1.25867 2.5078l.54784-.1371.69131.6955c.20443.0421.41597.0643.63264.0643.2155 0 .42599-.0219.62933-.0636l.78917-.6571.4532.0967c.7633-.5713 1.2587-1.4818 1.2587-2.5065v-4.30428z" fill="#f0f0f0"/><g fill="#d80027"><path d="m7.12228 5.86945h-1.25216v1.25216h1.25216z"/><path d="m9.62619 5.86945h-1.25217v1.25216h1.25217z"/><path d="m12.1311 5.86945h-1.2522v1.25216h1.2522z"/><path d="m8.37423 7.12122h-1.25216v1.25215h1.25216z"/><path d="m10.8791 7.12122h-1.25215v1.25215h1.25215z"/><path d="m7.12228 8.37286h-1.25216v1.25216h1.25216z"/><path d="m8.37423 9.62598h-1.25216v1.25212h1.25216z"/><path d="m9.62619 8.37286h-1.25217v1.25216h1.25217z"/><path d="m12.1311 8.37286h-1.2522v1.25216h1.2522z"/><path d="m10.8791 9.62598h-1.25215v1.25212h1.25215z"/><path d="m9.62619 10.8779h-1.25217v1.2522h1.25217z"/><path d="m7.12254 10.8779h-1.17137c.10744.4655.31866.8914.60827 1.2522h.5631z"/><path d="m10.8789 12.1302h.5631c.2897-.3608.5008-.7867.6082-1.2521h-1.1713z"/><path d="m7.12207 12.1299v.5463c.36418.2741.78978.4706 1.25216.5649v-1.1112z"/><path d="m9.62695 12.1299v1.1112c.46245-.0943.88795-.2908 1.25215-.5649v-.5463z"/></g></g></svg>