<svg fill="none" height="18" viewBox="0 0 18 18" width="18" xmlns="http://www.w3.org/2000/svg" xmlns:xlink="http://www.w3.org/1999/xlink"><clipPath id="a"><path d="m0 0h18v18h-18z"/></clipPath><g clip-path="url(#a)"><path d="m18 9c0 4.9705-4.0295 9-9 9-4.97053 0-9-4.0295-9-9 0-4.97053 9-9 9-9s9 4.02947 9 9z" fill="#a2001d"/><path d="m0 9c0-4.97053 4.02947-9 9-9 4.9705 0 9 4.02947 9 9" fill="#0052b4"/><path d="m12.13 11.3479-3.13044-.3913-3.13042.3913v-4.69568h6.26086z" fill="#f0f0f0"/><path d="m8.9998 10.9561c.86445 0 1.5652-.7007 1.5652-1.56519 0-.86445-.70075-1.56523-1.5652-1.56523s-1.56523.70078-1.56523 1.56523c0 .86449.70078 1.56519 1.56523 1.56519z" fill="#0052b4"/><path d="m9.00039 10.1739c.43223 0 .78262-.35041.78262-.78264s-.35039-.78262-.78262-.78262-.78262.35039-.78262.78262.35039.78264.78262.78264z" fill="#a2001d"/><path d="m7.82617 7.43506h2.34783l-1.17392 1.17393z" fill="#6da544"/><path d="m9.39199 8.21667h-.78261v2.34783h.78261z" fill="#ffda44"/><path d="m10.2517 10.3309h-2.50437l-1.87819 1.0174h6.26086z" fill="#6da544"/></g></svg>