<svg fill="none" height="18" viewBox="0 0 18 18" width="18" xmlns="http://www.w3.org/2000/svg" xmlns:xlink="http://www.w3.org/1999/xlink"><clipPath id="a"><path d="m0 0h18v18h-18z"/></clipPath><g clip-path="url(#a)"><path d="m.559793 5.86892c-.361758.97502-.559793 2.02953-.559793 3.13041 0 1.10087.198035 2.15547.559793 3.13037l8.440207.7827 8.4402-.7827c.3618-.9749.5598-2.0295.5598-3.13037 0-1.10088-.198-2.15539-.5598-3.13041l-8.4402-.78262z" fill="#f0f0f0"/><path d="m9.00072-.00073242c-3.86965 0-7.16857 2.44237242-8.440173 5.86958242h16.880453c-1.2717-3.42721-4.5706-5.86958242-8.44028-5.86958242z" fill="#d80027"/><path d="m9.00072 17.9995c3.86968 0 7.16858-2.4424 8.44028-5.8696h-16.880453c1.271603 3.4272 4.570523 5.8696 8.440173 5.8696z" fill="#6da544"/></g></svg>