<svg fill="none" height="18" viewBox="0 0 18 18" width="18" xmlns="http://www.w3.org/2000/svg" xmlns:xlink="http://www.w3.org/1999/xlink"><clipPath id="a"><path d="m0 0h18v18h-18z"/></clipPath><g clip-path="url(#a)"><path d="m9 18c4.9706 0 9-4.0294 9-9 0-4.97056-4.0294-9-9-9-4.97056 0-9 4.02944-9 9 0 4.9706 4.02944 9 9 9z" fill="#f0f0f0"/><path d="m18.0004 8.99925c0-3.86964-2.4423-7.16857-5.8695-8.440168v16.880418c3.4272-1.2717 5.8695-4.5705 5.8695-8.44025z" fill="#ff9811"/><path d="m0 8.99974c0 3.86976 2.44238 7.16856 5.86958 8.44026v-16.88043c-3.4272 1.2716-5.86958 4.57052-5.86958 8.44017z" fill="#6da544"/></g></svg>