<svg fill="none" height="18" viewBox="0 0 18 18" width="18" xmlns="http://www.w3.org/2000/svg" xmlns:xlink="http://www.w3.org/1999/xlink"><clipPath id="a"><path d="m0 0h18v18h-18z"/></clipPath><g clip-path="url(#a)"><path d="m9 18c4.9706 0 9-4.0294 9-9 0-4.97056-4.0294-9-9-9-4.97056 0-9 4.02944-9 9 0 4.9706 4.02944 9 9 9z" fill="#f0f0f0"/><g fill="#0052b4"><path d="m12.388 7.04404h-2.2593l-1.12953-1.95652-1.12953 1.95652h-2.25929l1.12971 1.95651-1.12971 1.95655h2.25929l1.12953 1.9565 1.12953-1.9565h2.2593l-1.1297-1.95655zm-2.001 1.95651-.69388 1.20195h-1.38779l-.69395-1.20195.69391-1.20192h1.3878zm-1.38783-2.40387.25826.44732h-.51645zm-2.08174 1.20195h.51651l-.25825.44733zm0 2.40387.25829-.44735.25826.44735zm2.08174 1.2019-.25822-.4473h.51648zm2.08173-1.2019h-.5165l.2583-.44735zm-.5165-2.40387h.5165l-.2582.44733z"/><path d="m14.6017 1.95679h-11.20474c-.82136.65418-1.52575 1.44879-2.07665 2.34784h15.35809c-.5509-.89902-1.2553-1.69366-2.0767-2.34784z"/><path d="m3.39696 16.0435h11.20474c.8214-.6542 1.5258-1.4488 2.0767-2.3478h-15.35809c.55094.899 1.25533 1.6936 2.07665 2.3478z"/></g></g></svg>