<svg fill="none" height="18" viewBox="0 0 18 18" width="18" xmlns="http://www.w3.org/2000/svg" xmlns:xlink="http://www.w3.org/1999/xlink"><clipPath id="a"><path d="m0 0h18v18h-18z"/></clipPath><g clip-path="url(#a)"><path d="m9 18c4.9706 0 9-4.0294 9-9 0-4.97056-4.0294-9-9-9-4.97056 0-9 4.02944-9 9 0 4.9706 4.02944 9 9 9z" fill="#d80027"/><path d="m12.3328 6.03294-.6362 2.27007-1.90858-.35244-1.22857-2.53248-3.319 1.17777-.26174-.73758-.86836-.10698.65429 1.84391 2.28407-.58412.64909 1.82914-1.57894 2.33027 2.67951 2.2853-.50787.5955.34151.8055 1.26977-1.4886-1.64791-1.686 1.25954-1.4767 2.80749.2023.6395-3.46323.7696.14214.5269-.69855z" fill="#f0f0f0"/></g></svg>