<svg fill="none" height="18" viewBox="0 0 18 18" width="18" xmlns="http://www.w3.org/2000/svg" xmlns:xlink="http://www.w3.org/1999/xlink"><clipPath id="a"><path d="m0 0h18v18h-18z"/></clipPath><g clip-path="url(#a)"><path d="m9 18c4.9706 0 9-4.0294 9-9 0-4.97056-4.0294-9-9-9-4.97056 0-9 4.02944-9 9 0 4.9706 4.02944 9 9 9z" fill="#f0f0f0"/><path d="m8.99954-.00073242c-3.56815 0-6.65121 2.07650242-8.106962 5.08697242h16.213922c-1.4558-3.01047-4.5388-5.08697242-8.10696-5.08697242z" fill="#ff9811"/><path d="m8.99954 17.9998c3.56816 0 6.65116-2.0765 8.10696-5.087h-16.213922c1.455752 3.0105 4.538812 5.087 8.106962 5.087z" fill="#6da544"/><path d="m8.99956 12.13c1.72884 0 3.13044-1.4016 3.13044-3.13044 0-1.72888-1.4016-3.13042-3.13044-3.13042-1.72888 0-3.13042 1.40154-3.13042 3.13042 0 1.72884 1.40154 3.13044 3.13042 3.13044z" fill="#0052b4"/><path d="m9.00046 10.956c1.08054 0 1.95654-.876 1.95654-1.95652 0-1.08055-.876-1.95651-1.95654-1.95651-1.08055 0-1.95651.87596-1.95651 1.95651 0 1.08052.87596 1.95652 1.95651 1.95652z" fill="#f0f0f0"/><path d="m9.00101 6.58569.6036 1.36892 1.48729-.16176-.8837 1.20716.8837 1.20719-1.48729-.1618-.6036 1.3689-.6036-1.3689-1.48725.1617.88368-1.20709-.88368-1.20716 1.48725.16176z" fill="#0052b4"/></g></svg>