<svg fill="none" height="18" viewBox="0 0 18 18" width="18" xmlns="http://www.w3.org/2000/svg" xmlns:xlink="http://www.w3.org/1999/xlink"><clipPath id="a"><path d="m0 0h18v18h-18z"/></clipPath><g clip-path="url(#a)"><path d="m9 18c4.9706 0 9-4.0294 9-9 0-4.97056-4.0294-9-9-9-4.97056 0-9 4.02944-9 9 0 4.9706 4.02944 9 9 9z" fill="#f0f0f0"/><g fill="#0052b4"><path d="m16.4999 10.0768c-.75 0-.75-.68575-1.5-.68575s-.75.68575-1.5.68575c-.7499 0-.7499-.68575-1.4999-.68575s-.75.68575-1.5.68575c-.75004 0-.75007-.68575-1.50013-.68575-.74999 0-.74999.68575-1.49994.68575-.74988 0-.74988-.68575-1.49987-.68575-.75006 0-.75006.68575-1.50012.68575s-.75006-.68575-1.50012-.68575c-.74988 0-.74988.68575-1.49987.68575-.745942 0-.750266-.67819-1.4882312-.68543.0207773.41164.0699257.81583.1442462 1.21113.597797.0878.650144.6743 1.344055.6743.74999 0 .74999-.6857 1.49987-.6857.75006 0 .75006.6857 1.50012.6857s.75006-.6857 1.50012-.6857c.74999 0 .74999.6857 1.49987.6857.74999 0 .74999-.6857 1.49994-.6857.75006 0 .75006.6857 1.50016.6857.75 0 .75-.6857 1.5-.6857s.75.6857 1.4999.6857c.75 0 .75-.6857 1.5-.6857s.75.6857 1.5.6857c.6939 0 .7463-.5865 1.3441-.6743.0743-.3953.1234-.79945.1443-1.21113-.7381.00728-.7425.68543-1.4885.68543z"/><path d="m15.0004 11.7386c-.7499 0-.7499.6857-1.4999.6857-.7499 0-.75-.6857-1.4999-.6857-.75 0-.75.6857-1.5.6857-.75011 0-.7501-.6857-1.50016-.6857-.74999 0-.74999.6857-1.49994.6857-.74989 0-.74989-.6857-1.49988-.6857-.75005 0-.75005.6857-1.50011.6857s-.75006-.6857-1.50012-.6857c-.74988 0-.74988.6857-1.49987.6857-.552481 0-.698344-.3718-1.036653-.5677.204891.6124.474012 1.1952.799033 1.741.07038.017.14864.0267.23758.0267.74999 0 .74999-.6857 1.49988-.6857.75005 0 .75005.6857 1.50011.6857s.75006-.6857 1.50012-.6857c.74999 0 .74999.6857 1.49987.6857.74999 0 .74999-.6857 1.49994-.6857.75006 0 .75006.6857 1.5001.6857.7501 0 .7501-.6857 1.5-.6857.75 0 .75.6857 1.5.6857.7499 0 .75-.6857 1.4999-.6857.7501 0 .7501.6857 1.5.6857.089 0 .1674-.0097.2378-.0268.325-.5457.5941-1.1285.799-1.7409-.3383.1959-.4842.5678-1.0368.5678-.7499-.0001-.7499-.6858-1.5-.6858z"/><path d="m17.7913 7.06461c-.5482.1138-.6181.66491-1.2907.66491-.75 0-.75-.68576-1.5-.68576s-.75.68576-1.4999.68576c-.75 0-.75-.68576-1.5-.68576s-.75.68576-1.5.68576c-.75001 0-.75005-.68576-1.50011-.68576-.40524 0-.59157.20018-.79551.38426v1.19998c.20394-.18404.39023-.38418.79551-.38418.75006 0 .75006.68568 1.50011.68568.7501 0 .7501-.68568 1.5-.68568.75 0 .75.68568 1.5.68568.7499 0 .75-.68568 1.4999-.68568.7501 0 .7501.68568 1.5.68568.694 0 .7463-.58647 1.3441-.67429.0384 0 .0812-.00039.125-.00092-.0332-.40475-.0933-.80187-.1784-1.18968z"/><path d="m17.1339 5.14297c-.1554.13053-.3351.23895-.6333.23895-.75 0-.75-.68575-1.5-.68575s-.75.68575-1.4999.68575c-.75 0-.75-.68575-1.5-.68575s-.75.68575-1.5.68575c-.75001 0-.75005-.68575-1.50011-.68575-.40524 0-.59157.20018-.79551.38425v1.19999c.20394-.18404.39023-.38419.79551-.38419.75006 0 .75006.68569 1.50011.68569.75 0 .75-.68569 1.5-.68569s.75.68569 1.4999.68569c.75 0 .75-.68569 1.5-.68569s.75.68569 1.5.68569c.5321 0 .6872-.3447 1-.54517-.1066-.30575-.229-.60405-.3667-.89377z"/><path d="m15.0647 2.34948c-.0208-.00112-.042-.00182-.0641-.00182-.7499 0-.7499.68575-1.4999.68575s-.75-.68575-1.4999-.68575c-.75 0-.75.68575-1.5001.68575-.75005 0-.75005-.68575-1.50011-.68575-.40524 0-.59157.20018-.79551.38425v1.19999c.20394-.18404.39023-.38418.79551-.38418.75006 0 .75006.68568 1.50011.68568.7501 0 .7501-.68568 1.5-.68568.75 0 .75.68568 1.5.68568.7499 0 .75-.68568 1.4999-.68568.7501 0 .7501.68568 1.5.68568.0462 0 .0893-.00274.1302-.00763-.4356-.69482-.9631-1.32612-1.5661-1.87629z"/><path d="m11.3004.297202c-.2059.185203-.3919.388617-.8004.388617-.75008 0-.75008-.68568765-1.5001-.68575796h-.00014c-.38785.00003515-.57509.18344496-.76929.36059796v1.200021c.19417-.17715.38148-.3606.76943-.3606.75006 0 .75005.68569 1.5001.68569.75 0 .75-.68569 1.5-.68569s.75.68569 1.5.68569c.3146 0 .4972-.12079.6586-.26093-.8555-.59959-1.8202-1.054017-2.8582-1.327638z"/><path d="m10.5005 17.1205c-.75009 0-.75009-.6858-1.50015-.6858-.74999 0-.74999.6858-1.49995.6858-.74988 0-.74988-.6858-1.49987-.6858-.57449 0-.70924.402-1.07768.5904 1.01602.5173 2.14337.847 3.33658.9443.18453-.1686.37199-.3347.74092-.3347.36903 0 .55649.1661.74106.3347 1.19319-.0972 2.32069-.427 3.33669-.9443-.3685-.1883-.5032-.5904-1.0776-.5904-.75 0-.75.6858-1.5.6858z"/><path d="m13.5007 14.7733c-.75 0-.75-.6858-1.5-.6858-.7499 0-.7499.6858-1.5.6858-.75002 0-.75002-.6858-1.50008-.6858-.74999 0-.74999.6858-1.49994.6858-.74989 0-.74989-.6858-1.49988-.6858-.75005 0-.75005.6858-1.50011.6858s-.75006-.6858-1.50012-.6858c-.53933 0-.69078.3547-1.01229.5539.20152.2503.41576.4898.64248.7169.10157-.0434.22075-.0708.36978-.0708.75005 0 .75005.6857 1.50011.6857s.75006-.6857 1.50012-.6857c.74999 0 .74999.6857 1.49987.6857.74999 0 .74999-.6857 1.49994-.6857.75006 0 .75006.6857 1.50012.6857.7501 0 .7501-.6857 1.5-.6857.75 0 .75.6857 1.5.6857.7499 0 .7499-.6857 1.4999-.6857.1492 0 .2684.0274.37.0709.2268-.2272.441-.4667.6425-.717-.3215-.1991-.473-.5538-1.0125-.5538-.75-.0001-.75.6857-1.4999.6857z"/></g><path d="m8.97656 8.99934h.02413c0-.0081 0-.01598 0-.02412-.00803.00806-.01606.01609-.02413.02412z" fill="#f0f0f0"/><path d="m9.00053 4.6961v2.64421l-3.13041-3.0355z" fill="#0052b4"/><path d="m4.69601 9.00037h2.6441l-2.64413-3.52173-.39129 2.73912z" fill="#0052b4"/><path d="m9 4.69564c0-1.58361 0-2.62125 0-4.69564h-.00152c-4.96986.00084375-8.99848 4.02993-8.99848 9h4.69568v-2.64414l2.6441 2.64414h1.63617c.00801-.00802.01603-.01603.02408-.02408 0-.60634 0-1.14736 0-1.63607l-2.64421-2.64421z" fill="#f0f0f0"/><path d="m4.55319 1.1731c-1.40762.80152-2.57783 1.97173-3.37936 3.37936v4.44674h2.34784v-5.47819-.00007h5.47826c0-.7405 0-1.44595 0-2.34784z" fill="#d80027"/><path d="m8.99967 7.89252-3.19764-3.19757h-1.10672v.00007l4.30429 4.30425h.00007s0-.76314 0-1.10675z" fill="#d80027"/><path d="m11.7393 4.69574h3.5217l-1.7609 1.76087z" fill="#6da544"/><path d="m13.891 6.06482h-.7826v2.15216h.7826z" fill="#a2001d"/><path d="m13.89 11.739h-.7826v2.1521h.7826z" fill="#a2001d"/><path d="m15.848 10.5655c0-.64827-.5256-1.17386-1.1739-1.17386-.3007 0-.5749.11321-.7826.29915v-.69047h.3913v-.78261h-.3913v-.39129h-.7826v.39129h-.3913v.78261h.3913v.69047c-.2078-.18594-.4819-.29915-.7827-.29915-.6483 0-1.1739.52559-1.1739 1.17386 0 .3476.1513.6598.3913.8748v.6905h3.9131v-.6905c.2401-.215.3913-.5272.3913-.8748z" fill="#ffda44"/><path d="m14.6737 10.1737c-.1235 0-.2099.0542-.2607.0996l-.522.4673h-.7825l-.522-.4673c-.0508-.0454-.1372-.0996-.2606-.0996-.2158 0-.3913.1755-.3913.3913 0 .152.0819.248.1308.2918l.2605.2333v.2575h2.3478v-.2575l.2606-.2333c.0488-.0438.1308-.1398.1308-.2918-.0001-.2158-.1757-.3913-.3914-.3913z" fill="#d80027"/></g></svg>