<svg fill="none" height="18" viewBox="0 0 18 18" width="18" xmlns="http://www.w3.org/2000/svg" xmlns:xlink="http://www.w3.org/1999/xlink"><clipPath id="a"><path d="m0 0h18v18h-18z"/></clipPath><g clip-path="url(#a)"><path d="m9 18c4.9706 0 9-4.0294 9-9 0-4.97056-4.0294-9-9-9-4.97056 0-9 4.02944-9 9 0 4.9706 4.02944 9 9 9z" fill="#f0f0f0"/><path d="m8.99978-.00048828c-3.86969 0-7.16857 2.44237828-8.44021 5.86957828h16.88043c-1.2717-3.4272-4.5705-5.86957828-8.44022-5.86957828z" fill="#a2001d"/><path d="m8.99978 18.0004c3.86972 0 7.16852-2.4423 8.44022-5.8695h-16.88043c1.27164 3.4272 4.57052 5.8695 8.44021 5.8695z" fill="#000"/><g fill="#496e2d"><path d="m6.8473 8.41395c-.00492 0-.00973.00031-.01466.00038v-.00038h-1.72044c.08723-.33701.39301-.58697.75685-.58697v-1.1739c-1.07884 0-1.95652.87771-1.95652 1.95651v.95871.01959h2.92011.01466c.1079 0 .19565.08778.19565.19564v.39127h-3.91307v1.1739h5.08697v-1.56521c0-.75515-.61439-1.36954-1.36955-1.36954z"/><path d="m9.7823 10.1743v-3.52171h-1.1739v4.69571h1.9565v-1.174z"/><path d="m13.6952 10.1744v-3.52181h-1.1739v3.52181h-.3913v-1.17394h-1.1739v2.34784h3.5217v-1.1739z"/></g></g></svg>