<svg fill="none" height="18" viewBox="0 0 18 18" width="18" xmlns="http://www.w3.org/2000/svg" xmlns:xlink="http://www.w3.org/1999/xlink"><clipPath id="a"><path d="m0 0h18v18h-18z"/></clipPath><g clip-path="url(#a)"><path d="m9 18c4.9706 0 9-4.0294 9-9 0-4.97056-4.0294-9-9-9-4.97056 0-9 4.02944-9 9 0 4.9706 4.02944 9 9 9z" fill="#f0f0f0"/><path d="m11.9234 6.65226h-1.1775c.0097.12941.0152.25998.0152.39129 0 .87061-.2176 1.71446-.5969 2.31514-.1171.18528-.31374.44691-.57699.6234v-3.32987h-1.17391v3.32987c-.26321-.17649-.45991-.43809-.57694-.6234-.37941-.60068-.59699-1.44453-.59699-2.31514 0-.13131.00555-.26192.01525-.39129h-1.17752c-.00756.12877-.01167.2592-.01167.39129 0 2.41369 1.28911 4.30435 2.93477 4.30435 1.6457 0 2.9348-1.89066 2.9348-4.30435 0-.13209-.0041-.26252-.0116-.39129z" fill="#d80027"/><path d="m3.7179 4.30362h1.1739v.78262h1.17391v-.78262h1.1739v.78262h1.1739v-.78262h1.1739v.78262h1.17389v-.78262h1.1739v.78262h1.1739v-.78262h1.1739v.78262h2.8244c-1.4557-3.01047-4.5388-5.08697242-8.10688-5.08697242-3.56812 0-6.65122 2.07650242-8.106965 5.08697242h2.824345z" fill="#6da544"/><path d="m14.2831 12.9128v.7827h-1.1739v-.7827h-1.1739v.7827h-1.1739v-.7827h-1.17388v.7827h-1.1739v-.7827h-1.17391v.7827h-1.1739v-.7827h-1.17401v.7827h-1.1739v-.7827h-2.824345c1.455745 3.0105 4.538815 5.087 8.106965 5.087 3.56818 0 6.65118-2.0765 8.10698-5.087z" fill="#d80027"/></g></svg>