<svg fill="none" height="18" viewBox="0 0 18 18" width="18" xmlns="http://www.w3.org/2000/svg" xmlns:xlink="http://www.w3.org/1999/xlink"><clipPath id="a"><path d="m0 0h18v18h-18z"/></clipPath><g clip-path="url(#a)"><path d="m9 18c4.9706 0 9-4.0294 9-9 0-4.97056-4.0294-9-9-9-4.97056 0-9 4.02944-9 9 0 4.9706 4.02944 9 9 9z" fill="#f0f0f0"/><path d="m16.1407 14.4804-5.48-5.47997 5.48-5.48005c-.2364-.30713-.4949-.60262-.7762-.88397-.2814-.28132-.5768-.5399-.884-.77618l-5.47995 5.47998-.00003.00004-5.47998-5.48002c-.30709.23632-.60262.49482-.88397.77618-.28136.28135-.5399.57684-.77618.88397l5.47998 5.47994.00003.00004-5.48005 5.48004c.23636.3071.4949.6026.77618.884.28136.2813.57681.5399.88397.7762l5.48002-5.48.00003-.0001 5.47995 5.48c.3071-.2363.6026-.4948.884-.7762.2814-.2813.5399-.5768.7762-.8839z" fill="#d80027"/><path d="m7.43457 2.73966 1.56523.39129 1.5652-.39129v-1.33042l-.62607.31303-.93913-.939128-.93913.939128-.6261-.31303z" fill="#ffda44"/><path d="m7.43457 2.73969v.97832c0 1.19813 1.56523 1.56523 1.56523 1.56523s1.5652-.36714 1.5652-1.56523v-.97832z" fill="#d80027"/></g></svg>