<svg fill="none" height="18" viewBox="0 0 18 18" width="18" xmlns="http://www.w3.org/2000/svg" xmlns:xlink="http://www.w3.org/1999/xlink"><clipPath id="a"><path d="m0 0h18v18h-18z"/></clipPath><g clip-path="url(#a)"><path d="m9 18c4.9706 0 9-4.0294 9-9 0-4.97056-4.0294-9-9-9-4.97056 0-9 4.02944-9 9 0 4.9706 4.02944 9 9 9z" fill="#ffda44"/><path d="m14.4792 1.86059c-1.5176-1.166519-3.4173-1.86046793-5.47935-1.86046793s-3.96175.69398393-5.47934 1.86046793l5.47934 5.47931z" fill="#6da544"/><path d="m1.86043 3.5202c-1.166446 1.51759-1.86043 3.41726-1.86043 5.47932 0 2.06208.693984 3.96178 1.86047 5.47938l5.47935-5.47938z" fill="#000"/><path d="m3.52051 16.1391c1.51762 1.1665 3.41729 1.8605 5.47935 1.8605 2.06204 0 3.96174-.694 5.47934-1.8605l-5.47934-5.4793z" fill="#6da544"/><path d="m16.1395 14.4788c1.1665-1.5176 1.8604-3.4172 1.8604-5.47928 0-2.06206-.6939-3.96173-1.8604-5.47932l-5.4793 5.47932z" fill="#000"/></g></svg>