<svg fill="none" height="18" viewBox="0 0 18 18" width="18" xmlns="http://www.w3.org/2000/svg" xmlns:xlink="http://www.w3.org/1999/xlink"><clipPath id="a"><path d="m0 0h18v18h-18z"/></clipPath><g clip-path="url(#a)"><path d="m9 18c4.9706 0 9-4.0294 9-9 0-4.97056-4.0294-9-9-9-4.97056 0-9 4.02944-9 9 0 4.9706 4.02944 9 9 9z" fill="#f0f0f0"/><path d="m5.47767 5.8697h11.96193c-1.2716-3.4272-4.5705-5.86957793-8.44019-5.86957793-2.48534 0-4.73509 1.00753793-6.36367 2.63632793z" fill="#000"/><path d="m5.47767 12.1309h11.96193c-1.2716 3.4272-4.5705 5.8695-8.44019 5.8695-2.48534 0-4.73509-1.0075-6.36367-2.6363z" fill="#6da544"/><path d="m2.63603 2.63538c-3.514708 3.51471-3.514708 9.21322 0 12.72792 1.45242-1.4524 2.84928-2.8492 6.36399-6.36394z" fill="#d80027"/><path d="m3.57225 7.04382.49391 1.03286 1.11548-.2578-.49957 1.03011.89701.71135-1.11681.25168.00309 1.14478-.89311-.7162-.89314.7162.00313-1.14478-1.11681-.25168.89698-.71135-.4995-1.03011 1.1154.2578z" fill="#f0f0f0"/></g></svg>