<svg fill="none" height="18" viewBox="0 0 18 18" width="18" xmlns="http://www.w3.org/2000/svg" xmlns:xlink="http://www.w3.org/1999/xlink"><clipPath id="a"><path d="m0 0h18v18h-18z"/></clipPath><g clip-path="url(#a)"><path d="m9 18c4.9706 0 9-4.0294 9-9 0-4.97056-4.0294-9-9-9-4.97056 0-9 4.02944-9 9 0 4.9706 4.02944 9 9 9z" fill="#f0f0f0"/><path d="m9.00052-.00048828c-3.56815 0-6.65122 2.07650828-8.106965 5.08696828h16.213845c-1.4557-3.01046-4.5388-5.08696828-8.10688-5.08696828z" fill="#000"/><path d="m9.00052 18.0001c-3.56815 0-6.65122-2.0765-8.106965-5.087h16.213845c-1.4557 3.0105-4.5388 5.087-8.10688 5.087z" fill="#496e2d"/><path d="m17.575 6.26025h-17.149996c-.275695.86376-.425004 1.78397-.425004 2.73913s.149309 1.87542.425004 2.73912h17.149996c.2757-.8637.425-1.78396.425-2.73912s-.1493-1.87537-.425-2.73913z" fill="#a2001d"/><path d="m11.8032 4.15881-1.0658-.49194-1.73668 3.93226-1.73665-3.93226-1.06583.49194 2.15606 4.84098-2.15606 4.84101 1.06583.4919 1.73665-3.9322 1.73668 3.9322 1.0658-.4919-2.15606-4.84101z" fill="#f0f0f0"/><path d="m9.72515 4.62247c-.41259-.4506-.7239-.70963-.7239-.70963s-.31131.259-.72391.70963v8.75463c.4126.4506.72391.7097.72391.7097s.31131-.259.7239-.7097z" fill="#f0f0f0"/><path d="m7.04297 6.30167v5.39693c.43601.7725.96964 1.4058 1.36958 1.8256v-9.04813c-.39994.4198-.93361 1.05307-1.36958 1.8256z" fill="#a2001d"/><path d="m10.9555 6.30215c-.436-.77255-.96962-1.40579-1.36956-1.82559v9.04814c.3999-.4199.93356-1.0531 1.36956-1.8256z" fill="#a2001d"/><g fill="#000"><path d="m10.9561 6.30066v5.39694c.4413-.7822.7826-1.70715.7826-2.69845s-.3413-1.91626-.7826-2.69849z"/><path d="m7.04336 6.30066v5.39694c-.44139-.7822-.78262-1.70715-.78262-2.69845s.34123-1.91626.78262-2.69849z"/></g></g></svg>