<svg fill="none" height="18" viewBox="0 0 18 18" width="18" xmlns="http://www.w3.org/2000/svg" xmlns:xlink="http://www.w3.org/1999/xlink"><clipPath id="a"><path d="m0 0h18v18h-18z"/></clipPath><g clip-path="url(#a)"><path d="m9 18c4.9706 0 9-4.0294 9-9 0-4.97056-4.0294-9-9-9-4.97056 0-9 4.02944-9 9 0 4.9706 4.02944 9 9 9z" fill="#d80027"/><path d="m13.4006 8.99995-1.7984.84593.9576 1.74192-1.953-.3737-.2474 1.9728-1.36032-1.4509-1.36027 1.4509-.24746-1.9728-1.95286.3736.95765-1.74189-1.79848-.84586 1.79848-.84589-.95765-1.74192 1.95279.37371.2476-1.97286 1.3602 1.45093 1.36042-1.45093.2473 1.97286 1.9531-.37371-.9577 1.74203z" fill="#ffda44"/><path d="m8.99987 11.7385c1.51283 0 2.73913-1.2263 2.73913-2.73912 0-1.51278-1.2263-2.73913-2.73913-2.73913-1.51278 0-2.73913 1.22635-2.73913 2.73913 0 1.51282 1.22635 2.73912 2.73913 2.73912z" fill="#d80027"/><g fill="#ffda44"><path d="m7.63098 9.00024c-.06599 0-.13113.00338-.19543.00978.00235.37937.1396.7266.36629.99638.12094-.32546.3015-.62222.52921-.87618-.21748-.08364-.45341-.12998-.70007-.12998z"/><path d="m8.47461 10.4753c.16453.0588.34168.091.52647.091.18478 0 .36193-.0322.52646-.091-.08968-.352-.27485-.66623-.52646-.91317-.25162.24691-.43679.56117-.52647.91317z"/><path d="m10.3554 8.21792c-.2706-.46779-.77604-.78286-1.35542-.78286-.57937 0-1.08482.31503-1.35545.78286.49338.00249.95604.13665 1.35545.36829.39941-.23164.862-.3658 1.35542-.36829z"/><path d="m9.66992 9.13046c.22771.25393.40828.55069.52918.87614.2267-.26973.364-.61697.3663-.99634-.0643-.00643-.1295-.00977-.1954-.00977-.2466-.00004-.48253.0463-.70008.12997z"/></g></g></svg>