<svg fill="none" height="18" viewBox="0 0 18 18" width="18" xmlns="http://www.w3.org/2000/svg" xmlns:xlink="http://www.w3.org/1999/xlink"><clipPath id="a"><path d="m0 0h18v18h-18z"/></clipPath><g clip-path="url(#a)"><path d="m0 9.00066c0 1.55914.396668 3.02574 1.09431 4.30434l7.90569.7826 7.9057-.7826c.6976-1.2786 1.0943-2.7452 1.0943-4.30434 0-1.55918-.3967-3.02568-1.0943-4.30435l-7.9057-.78261-7.90569.78261c-.697642 1.27867-1.09431 2.74517-1.09431 4.30435z" fill="#d80027"/><path d="m1.09473 4.69589h15.81137c-1.5264-2.79759-4.4943-4.69564586-7.90568-4.69564586-3.41139 0-6.37924 1.89805586-7.90569 4.69564586z" fill="#0052b4"/><path d="m9.00042 18.0006c3.41138 0 6.37928-1.8981 7.90568-4.6957h-15.81137c1.52645 2.7976 4.4943 4.6957 7.90569 4.6957z" fill="#0052b4"/><path d="m12.1313 10.7606v-1.17395h-.7825v-1.56523l-.7826-.78261-.78266.78261v-1.56522l-.78261-.78262-.78262.78262v1.56522l-.78261-.78261-.78262.78261v1.56523h-.78258v1.17395h-.78261v1.1739h7.82611v-1.1739z" fill="#f0f0f0"/></g></svg>