<svg fill="none" height="18" viewBox="0 0 18 18" width="18" xmlns="http://www.w3.org/2000/svg" xmlns:xlink="http://www.w3.org/1999/xlink"><clipPath id="a"><path d="m0 0h18v18h-18z"/></clipPath><g clip-path="url(#a)"><path d="m0 9c0-4.97053 4.02947-9 9-9 4.9705 0 9 4.02947 9 9" fill="#d80027"/><path d="m12.13 8.37-1.2792.60163.6812 1.23887-1.389-.26575-.17598 1.40315-.96746-1.032-.9675 1.032-.17596-1.40315-1.38899.26565.68116-1.23877-1.27913-.60163 1.27913-.60173-.68116-1.23873 1.38896.26564.17602-1.40309.96747 1.03194.9675-1.03194.17594 1.40309 1.389-.26564-.6811 1.23883z" fill="#ffda44"/><path d="m11.348 2.93475h-1.76085c0-.32411-.26283-.58697-.58697-.58697s-.58696.26283-.58696.58697h-1.76088c0 .32414.28238.58697.60652.58697h-.01958c0 .32414.26276.58696.58697.58696 0 .32414.26275.58697.58697.58697h1.1739c.3241 0 .58698-.26279.58698-.58697.3241 0 .587-.26279.587-.58696h-.0196c.3241 0 .6065-.2628.6065-.58697z" fill="#ffda44"/><path d="m18 8.99976c0 4.97054-4.0295 9.00004-9 9.00004-4.97053 0-9-4.0295-9-9.00004z" fill="#f0f0f0"/><g fill="#0052b4"><path d="m9.00057 18.0003c2.81323 0 5.32463-1.291 6.97503-3.3127-.2968-.2024-.4571-.5295-.9752-.5295-.75 0-.75.6857-1.4999.6857-.75 0-.75-.6857-1.4999-.6857-.75 0-.75.6857-1.5001.6857-.74998 0-.75002-.6857-1.50007-.6857-.74999 0-.74999.6857-1.49995.6857-.74988 0-.74988-.6857-1.49987-.6857-.75006 0-.75006.6857-1.50011.6857-.75006 0-.75006-.6857-1.50012-.6857-.51799 0-.67827.3271-.97499.5295 1.65038 2.0217 4.16187 3.3127 6.97518 3.3127z"/><path d="m16.4999 10.1484c-.75 0-.75-.68575-1.5-.68575s-.75.68575-1.5.68575c-.7499 0-.7499-.68575-1.4999-.68575s-.75.68575-1.5.68575c-.75004 0-.75007-.68575-1.50013-.68575-.74999 0-.74999.68575-1.49994.68575-.74988 0-.74988-.68575-1.49987-.68575-.75006 0-.75006.68575-1.50012.68575s-.75006-.68575-1.50012-.68575c-.74988 0-.74988.68575-1.49987.68575-.745942 0-.750266-.67819-1.4882312-.68544.0207773.41168.0699257.81584.1442462 1.21104.597797.0879.650144.6744 1.344025.6744.74999 0 .74999-.6857 1.49987-.6857.75006 0 .75006.6857 1.50012.6857s.75006-.6857 1.50011-.6857c.74999 0 .74999.6857 1.49988.6857.74998 0 .74998-.6857 1.49994-.6857.75005 0 .75005.6857 1.50009.6857.7501 0 .7501-.6857 1.5-.6857.75 0 .75.6857 1.5.6857.7499 0 .75-.6857 1.4999-.6857.7501 0 .7501.6857 1.5.6857.694 0 .7463-.5865 1.3442-.6743.0743-.3953.1234-.79942.1443-1.2111-.7381.00727-.7425.6854-1.4885.6854z"/><path d="m15.0003 11.8108c-.75 0-.75.6857-1.4999.6857-.75 0-.75-.6857-1.5-.6857s-.75.6857-1.5.6857c-.75004 0-.75004-.6857-1.5001-.6857-.74999 0-.74999.6857-1.49994.6857-.74988 0-.74988-.6857-1.49987-.6857-.75006 0-.75006.6857-1.50012.6857s-.75006-.6857-1.50012-.6857c-.74988 0-.74988.6857-1.49987.6857-.535884 0-.688954-.35-1.006239-.5499.211218.6102.486 1.1908.816929 1.7334.05755.0107.1202.0165.18931.0165.74999 0 .74999-.6857 1.49987-.6857.75006 0 .75006.6857 1.50012.6857s.75006-.6857 1.50012-.6857c.74999 0 .74999.6857 1.49987.6857.74999 0 .74999-.6857 1.49994-.6857.75006 0 .75006.6857 1.5001.6857.7501 0 .7501-.6857 1.5-.6857.75 0 .75.6857 1.5.6857.7499 0 .75-.6857 1.4999-.6857.7501 0 .7501.6857 1.5.6857.0692 0 .1319-.0058.1894-.0165.3309-.5426.6057-1.1232.817-1.7334-.3173.1999-.4704.5499-1.0064.5499-.7499 0-.7499-.6857-1.5-.6857z"/></g><path d="m17.9721 8.28837c-.7218.01705-.7317.68499-1.4722.68499-.75 0-.75-.68576-1.5-.68576s-.75.68576-1.5.68576c-.7499 0-.75-.68576-1.4999-.68576-.75 0-.75.68576-1.5.68576-.75005 0-.75008-.68576-1.50014-.68576-.74999 0-.74999.68576-1.49994.68576-.74989 0-.74988-.68576-1.49987-.68576-.75006 0-.75006.68576-1.50012.68576s-.75006-.68576-1.50012-.68576c-.74988 0-.74988.68576-1.49987.68576-.740354 0-.750374-.66787-1.4720611-.68499-.0183164.23463-.0278789.47173-.0278789.71104 0 .16393.00464063.32681.0133945.48856.7362775.00827.7411645.68533 1.4865855.68533.74998 0 .74998-.68568 1.49987-.68568.75006 0 .75006.68568 1.50011.68568.75006 0 .75006-.68568 1.50012-.68568.74999 0 .74999.68568 1.49987.68568.74999 0 .74999-.68568 1.49994-.68568.75006 0 .75006.68568 1.50011.68568.7501 0 .7501-.68568 1.5-.68568.75 0 .75.68568 1.5.68568.7499 0 .75-.68568 1.4999-.68568.7501 0 .7501.68568 1.5.68568.7455 0 .7504-.67706 1.4868-.68533.0087-.16179.0133-.32463.0133-.48856 0-.23931-.0096-.47641-.0279-.71104z" fill="#f0f0f0"/></g></svg>