<svg fill="none" height="18" viewBox="0 0 18 18" width="18" xmlns="http://www.w3.org/2000/svg" xmlns:xlink="http://www.w3.org/1999/xlink"><clipPath id="a"><path d="m0 0h18v18h-18z"/></clipPath><g clip-path="url(#a)"><path d="m9 18c4.9706 0 9-4.0294 9-9 0-4.97056-4.0294-9-9-9-4.97056 0-9 4.02944-9 9 0 4.9706 4.02944 9 9 9z" fill="#f0f0f0"/><path d="m18 8.974h-9.75619c-1.93701 1.937-3.10834 3.4325-4.30436 4.6285l5.08697.4584 7.89378-.7826c.6889-1.2725 1.0801-2.7297 1.0801-4.27825 0-.00872-.0003-.01733-.0003-.02605z" fill="#d80027"/><path d="m3.94003 4.66923h12.95197c-1.5306-2.78325-4.4904-4.66959621-7.89112-4.66959621-2.4787 0-4.72293 1.00233621-6.35049 2.62350621z" fill="#ffda44"/><path d="m4.3302 13.278c-.80909.809-1.12177 1.4869-1.70715 2.0723 1.62966 1.6364 3.88476 2.6494 6.37671 2.6494 3.42194 0 6.39774-1.9099 7.91994-4.7217z" fill="#0052b4"/><path d="m2.63603 2.61023c-3.514708 3.51471-3.514708 9.21327 0 12.72797 1.45241-1.4524 2.84928-2.8493 6.36399-6.36399z" fill="#6da544"/><g fill="#f0f0f0"><path d="m2.37511 8.97351c0-1.31126.92155-2.4067 2.15216-2.67543-.18914-.04131-.38538-.0637-.58697-.0637-1.51281 0-2.73913 1.22632-2.73913 2.73913 0 1.51279 1.22632 2.73909 2.73913 2.73909.20155 0 .39779-.0224.58697-.0637-1.23061-.2687-2.15216-1.3641-2.15216-2.67539z"/><path d="m4.49803 6.62598.14572.44838h.47145l-.38145.27714.14572.44838-.38144-.2771-.38145.2771.14572-.44838-.38144-.27714h.47144z"/><path d="m4.49803 7.7998.14572.44842h.47145l-.38145.2771.14572.44842-.38144-.27714-.38145.27714.14572-.44842-.38144-.2771h.47144z"/><path d="m4.49803 8.97339.14572.44838h.47145l-.38145.27714.14572.44839-.38144-.27715-.38145.27715.14572-.44839-.38144-.27714h.47144z"/><path d="m4.49803 10.1472.14572.4484h.47145l-.38145.2771.14572.4484-.38144-.2771-.38145.2771.14572-.4484-.38144-.2771h.47144z"/></g></g></svg>