<svg fill="none" height="18" viewBox="0 0 18 18" width="18" xmlns="http://www.w3.org/2000/svg" xmlns:xlink="http://www.w3.org/1999/xlink"><clipPath id="a"><path d="m0 0h18v18h-18z"/></clipPath><g clip-path="url(#a)"><path d="m8.99998 18c4.97052 0 9.00002-4.0295 9.00002-9.00002 0-4.97055-4.0295-8.99998-9.00002-8.99998-4.97055 0-8.99998 4.02943-8.99998 8.99998 0 4.97052 4.02943 9.00002 8.99998 9.00002z" fill="#ffda44"/><path d="m2.63654 15.3639c.37755.3775.7804.7143 1.20295 1.0107l12.53561-12.53565c-.2964-.42258-.6331-.8254-1.0107-1.20294-.3775-.37755-.7803-.71417-1.2029-1.01064l-12.53552 12.53563c.29636.4226.63302.8254 1.01056 1.2029z" fill="#000"/><path d="m2.6357 2.63622c-2.839332 2.83933-3.384431 7.10354-1.636318 10.49058l12.126818-12.126829c-3.38699-1.748077-7.65128-1.202979-10.4905 1.636249z" fill="#6da544"/><path d="m15.3636 15.3636c2.8393-2.8393 3.3844-7.10349 1.6364-10.49055l-12.12695 12.12685c3.38703 1.7481 7.65125 1.203 10.49055-1.6363z" fill="#d80027"/><g fill="#f0f0f0"><path d="m5.72302 10.6184.84016.4281.66678-.6667-.14752.9312.84013.4281-.93133.1475-.14751.9313-.42806-.8401-.93129.1475.66673-.6667z"/><path d="m10.6175 5.72302.8402.42809.6668-.66673-.1475.93125.8401.42813-.9313.14752-.1475.93129-.4281-.84013-.9313.14748.6667-.66674z"/></g></g></svg>