<svg fill="none" height="18" viewBox="0 0 18 18" width="18" xmlns="http://www.w3.org/2000/svg" xmlns:xlink="http://www.w3.org/1999/xlink"><clipPath id="a"><path d="m0 0h18v18h-18z"/></clipPath><g clip-path="url(#a)"><path d="m9 18c4.9706 0 9-4.0294 9-9 0-4.97056-4.0294-9-9-9-4.97056 0-9 4.02944-9 9 0 4.9706 4.02944 9 9 9z" fill="#f0f0f0"/><path d="m9.00019-.00018311c-2.72781 0-5.17198 1.21373311-6.82246 3.13042311h13.64487c-1.6504-1.91669-4.0946-3.13042311-6.82241-3.13042311z" fill="#0052b4"/><path d="m15.8227 14.8702h-13.64497c1.65048 1.9167 4.09465 3.1305 6.82246 3.1305s5.17201-1.2138 6.82251-3.1305z" fill="#0052b4"/><path d="m16.679 4.30396h-15.35804c-.837737 1.36705-1.32096 2.97485-1.32096 4.69564 0 1.7208.483223 3.3286 1.32096 4.6956h15.35804c.8378-1.367 1.321-2.9748 1.321-4.6956 0-1.72079-.4832-3.32859-1.321-4.69564z" fill="#d80027"/><path d="m5.53725 12.4637c1.91258 0 3.46303-1.5505 3.46303-3.46307 0-1.91258-1.55045-3.46303-3.46303-3.46303s-3.46303 1.55045-3.46303 3.46303c0 1.91257 1.55045 3.46307 3.46303 3.46307z" fill="#f0f0f0"/><path d="m5.53685 5.5376.77699 2.39136h2.51852l-2.03825 1.47804.78306 2.3985-2.04032-1.4851-2.03724 1.4823.77998-2.3957-2.03643-1.47804h2.51666z" fill="#d80027"/></g></svg>