<svg fill="none" height="18" viewBox="0 0 18 18" width="18" xmlns="http://www.w3.org/2000/svg" xmlns:xlink="http://www.w3.org/1999/xlink"><clipPath id="a"><path d="m0 0h18v18h-18z"/></clipPath><g clip-path="url(#a)"><path d="m9 18c4.9706 0 9-4.0294 9-9 0-4.97056-4.0294-9-9-9-4.97056 0-9 4.02944-9 9 0 4.9706 4.02944 9 9 9z" fill="#f0f0f0"/><path d="m12.13 8.99968c0 .78261-1.4016 2.73912-3.13044 2.73912-1.72888 0-3.13042-1.95651-3.13042-2.73912 0-1.72891 1.40154-3.13042 3.13042-3.13042 1.72884 0 3.13044 1.40151 3.13044 3.13042z" fill="#d80027"/><path d="m12.13 8.99963c0 1.72887-1.4016 3.13047-3.13044 3.13047-1.72888 0-3.13042-1.4016-3.13042-3.13047" fill="#0052b4"/><g fill="#000"><path d="m13.1504 10.9369-.8301.8301.5534.5534.8301-.8301z"/><path d="m11.7666 12.3201-.8301.83.5534.5534.8301-.83z"/><path d="m14.8105 12.5961-.83.83.5534.5534.83-.83z"/><path d="m13.4267 13.9807-.83.8301.5534.5534.83-.8301z"/><path d="m13.9805 11.7672-.8301.8301.5534.5534.83-.8301z"/><path d="m12.5976 13.1504-.83.8301.5534.5534.83-.8301z"/><path d="m11.767 4.01866 2.2135 2.21352.5534-.55339-2.2136-2.21351z"/><path d="m10.9375 4.84962.8301.83007.5533-.55336-.83-.83007z"/><path d="m12.3203 6.23244.8301.83006.5533-.55336-.83-.83006z"/><path d="m12.5957 3.18922.8301.83007.5534-.55339-.8301-.83007z"/><path d="m13.9805 4.57325.83.83007.5534-.55339-.83-.83006z"/><path d="m5.40297 14.8109-2.21352-2.2135-.55338.5534 2.21352 2.2135z"/><path d="m6.23339 13.98-.83007-.8301-.55336.5534.83007.83z"/><path d="m4.8496 12.5969-.83007-.8301-.55338.5534.83006.8301z"/><path d="m7.06313 13.1503-2.21352-2.2135-.55339.5534 2.21352 2.2135z"/><path d="m3.1898 5.40346 2.21352-2.21352-.55339-.55338-2.21351 2.21351z"/><path d="m4.0189 6.23232 2.21352-2.21352-.55338-.55339-2.21353 2.21352z"/><path d="m4.84996 7.06276 2.21352-2.21352-.55336-.55336-2.21352 2.21352z"/></g></g></svg>