<svg fill="none" height="18" viewBox="0 0 18 18" width="18" xmlns="http://www.w3.org/2000/svg" xmlns:xlink="http://www.w3.org/1999/xlink"><clipPath id="a"><path d="m0 0h18v18h-18z"/></clipPath><g clip-path="url(#a)"><path d="m17.4402 12.1298c.3618-.975.5598-2.0296.5598-3.13046 0-1.10089-.198-2.15543-.5598-3.13042l-8.4402-.78262-8.440207.78262c-.361758.97499-.559793 2.02953-.559793 3.13042 0 1.10086.198035 2.15546.559793 3.13046l8.440207.7826z" fill="#f0f0f0"/><path d="m9.00079 17.9997c3.86961 0 7.16861-2.4424 8.44021-5.8696h-16.880453c1.271673 3.4272 4.570523 5.8696 8.440243 5.8696z" fill="#d80027"/><path d="m8.99981-.00036621c-3.86972 0-7.16857 2.44237621-8.44024 5.86958621h16.88043c-1.2716-3.42721-4.5705-5.86958621-8.44019-5.86958621z" fill="#6da544"/><path d="m2.63603 2.63586c-3.514708 3.51472-3.514708 9.21324 0 12.72794.91741-.9174 1.81283-1.8128 3.23353-3.2335v-6.26087z" fill="#000"/></g></svg>