<svg fill="none" height="18" viewBox="0 0 18 18" width="18" xmlns="http://www.w3.org/2000/svg" xmlns:xlink="http://www.w3.org/1999/xlink"><clipPath id="a"><path d="m0 0h18v18h-18z"/></clipPath><g clip-path="url(#a)"><path d="m18 9c0 4.9705-4.0295 9-9 9-4.97053 0-9-4.0295-9-9 0 .00214 9-8.99901562 9-9 4.9705 0 9 4.02947 9 9z" fill="#0052b4"/><path d="m8.97656 9.00032h.02413c0-.0081 0-.01599 0-.02412-.00803.00806-.01606.01609-.02413.02412z" fill="#f0f0f0"/><path d="m9 4.69528c0-1.58361 0-2.62125 0-4.69564621h-.00151c-4.9699.00084375-8.99849 4.02992621-8.99849 8.99999621h4.69564v-2.64413l2.64414 2.64413h1.63617c.00802-.00801.01603-.01603.02409-.02408 0-.60634 0-1.14736 0-1.63606l-2.64421-2.64421z" fill="#f0f0f0"/><path d="m12.9129 6.65182c.8644 0 1.5652-.70078 1.5652-1.56523s-.7008-1.56523-1.5652-1.56523c-.8645 0-1.5652.70078-1.5652 1.56523s.7007 1.56523 1.5652 1.56523z" fill="#6da544"/><g fill="#d80027"><path d="m4.55221 1.17407c-1.40762.80153-2.57787 1.97174-3.37936 3.37936v4.44674h2.34784v-5.47819-.00007h5.47826c0-.74049 0-1.44594 0-2.34784z"/><path d="m8.99869 7.893-3.19764-3.19757h-1.10671v.00007l4.30428 4.30425h.00007s0-.76314 0-1.10675z"/><path d="m15.6511 4.69543h-5.4782v2.34784h5.4782z"/></g><path d="m10.1738 10.5652v1.5652h.8235c.4938.4839 1.1697.7826 1.9157.7826.7459 0 1.4218-.2987 1.9156-.7826h.0409.7826v-1.5652z" fill="#ffda44"/><path d="m10.1738 6.65173v2.34785c0 2.09672 2.7392 2.73912 2.7392 2.73912s2.7391-.6424 2.7391-2.73912v-2.34785z" fill="#338af3"/><path d="m12.9128 7.90527c-.6848 0-.6848.6261-1.3695.6261s-.6847-.6261-1.3695-.6261v1.09564c.6848 0 .6848.6261 1.3695.6261s.6847-.6261 1.3695-.6261.6848.6261 1.3696.6261c.6849 0 .6848-.6261 1.3697-.6261v-1.09564c-.6848 0-.6848.6261-1.3697.6261-.6848 0-.6848-.6261-1.3696-.6261z" fill="#f3f3f3"/><path d="m12.9128 5.71252c-.6848 0-.6848.6261-1.3695.6261s-.6847-.6261-1.3695-.6261v1.09565c.6848 0 .6848.6261 1.3695.6261s.6847-.6261 1.3695-.6261.6848.6261 1.3696.6261c.6849 0 .6848-.6261 1.3697-.6261v-1.09565c-.6848 0-.6848.6261-1.3697.6261-.6848 0-.6848-.6261-1.3696-.6261z" fill="#f3f3f3"/></g></svg>