<svg fill="none" height="18" viewBox="0 0 18 18" width="18" xmlns="http://www.w3.org/2000/svg" xmlns:xlink="http://www.w3.org/1999/xlink"><clipPath id="a"><path d="m0 0h18v18h-18z"/></clipPath><g clip-path="url(#a)"><path d="m9 18c4.9706 0 9-4.0294 9-9 0-4.97056-4.0294-9-9-9-4.97056 0-9 4.02944-9 9 0 4.9706 4.02944 9 9 9z" fill="#338af3"/><path d="m14.087 9.0976h-10.17391c0 .70238.61175 1.2717 1.31407 1.2717h-.04233c0 .7024.56935 1.2718 1.27174 1.2718 0 .7024.56936 1.2717 1.27174 1.2717h2.54349c.7024 0 1.2717-.5693 1.2717-1.2717.7024 0 1.2718-.5694 1.2718-1.2718h-.0423c.7022 0 1.314-.56932 1.314-1.2717z" fill="#ffda44"/><path d="m12.522 7.43512c0 1.94498-1.5768 3.52178-3.52174 3.52178-1.94502 0-3.52174-1.5768-3.52174-3.52178" fill="#338af3"/><path d="m11.6895 7.43429-1.0991.51704.5853 1.06453-1.19357-.22834-.15124 1.20572-.83134-.88682-.83137.88682-.15121-1.20572-1.19356.22827.58529-1.06449-1.09913-.51701 1.09916-.51701-.58532-1.0645 1.19352.22831.15128-1.20572.83134.88681.83138-.88681.1512 1.20572 1.19357-.22831-.5853 1.06453z" fill="#ffda44"/></g></svg>