<svg fill="none" height="18" viewBox="0 0 18 18" width="18" xmlns="http://www.w3.org/2000/svg" xmlns:xlink="http://www.w3.org/1999/xlink"><clipPath id="a"><path d="m0 0h18v18h-18z"/></clipPath><g clip-path="url(#a)"><path d="m17.1065 5.08648c-1.4558-3.01046-4.5388-5.08696828-8.10696-5.08696828-3.56815 0-6.65121 2.07650828-8.106962 5.08696828l8.106962.78261z" fill="#d80027"/><path d="m.892578 12.9121c1.455752 3.0105 4.538812 5.087 8.106962 5.087 3.56816 0 6.65116-2.0765 8.10696-5.087l-8.10696-.7826z" fill="#d80027"/><path d="m17.107 5.0863h-16.213961c-.572133 1.18319-.893039 2.51062-.893039 3.91304 0 1.40246.320906 2.72986.893039 3.91306h16.213861c.5722-1.1832.8931-2.5106.8931-3.91306 0-1.40242-.3209-2.72985-.893-3.91304z" fill="#0052b4"/><path d="m8.99956 12.1302c1.72884 0 3.13044-1.4015 3.13044-3.1304 0-1.72888-1.4016-3.13042-3.13044-3.13042-1.72888 0-3.13042 1.40154-3.13042 3.13042 0 1.7289 1.40154 3.1304 3.13042 3.1304z" fill="#f0f0f0"/></g></svg>