<svg fill="none" height="18" viewBox="0 0 18 18" width="18" xmlns="http://www.w3.org/2000/svg" xmlns:xlink="http://www.w3.org/1999/xlink"><clipPath id="a"><path d="m0 0h18v18h-18z"/></clipPath><g clip-path="url(#a)"><path d="m9 18c4.9706 0 9-4.0294 9-9 0-4.97056-4.0294-9-9-9-4.97056 0-9 4.02944-9 9 0 4.9706 4.02944 9 9 9z" fill="#f0f0f0"/><path d="m8.99954-.00061035c-3.56815 0-6.65121 2.07650035-8.106962 5.08697035h16.213922c-1.4558-3.01047-4.5388-5.08697035-8.10696-5.08697035z" fill="#d80027"/><path d="m8.99954 17.9994c3.56816 0 6.65116-2.0765 8.10696-5.0869h-16.213922c1.455752 3.0104 4.538812 5.0869 8.106962 5.0869z" fill="#d80027"/><path d="m11.348 10.5646-2.34782-4.30435-2.34784 4.30435h1.76087v1.1739h1.17394v-1.1739z" fill="#6da544"/></g></svg>