<svg fill="none" height="18" viewBox="0 0 18 18" width="18" xmlns="http://www.w3.org/2000/svg" xmlns:xlink="http://www.w3.org/1999/xlink"><clipPath id="a"><path d="m0 0h18v18h-18z"/></clipPath><g clip-path="url(#a)"><path d="m18 8.99959c0 4.97051-4.0295 9.00001-9 9.00001-4.97053 0-9-4.0295-9-9.00001.391289 0 9-1.17391 9-1.17391z" fill="#d80027"/><path d="m0 9c0-4.97053 4.02947-9 9-9 4.9705 0 9 4.02947 9 9" fill="#0052b4"/><path d="m6.65267 6.26049c0-.64831-.52558-1.1739-1.1739-1.1739-.30076 0-.57487.1132-.78261.29914v-.69047h.39129v-.78261h-.39129v-.39129h-.78261v.39129h-.39129v.78261h.39129v.69047c-.20774-.18594-.48186-.29914-.78262-.29914-.64831 0-1.1739.52559-1.1739 1.1739 0 .34759.15121.65978.39129.87476v.69047h3.91303v-.69047c.24015-.21498.39132-.52717.39132-.87476z" fill="#ffda44"/></g></svg>