<svg fill="none" height="18" viewBox="0 0 18 18" width="18" xmlns="http://www.w3.org/2000/svg" xmlns:xlink="http://www.w3.org/1999/xlink"><clipPath id="a"><path d="m0 0h18v18h-18z"/></clipPath><g clip-path="url(#a)"><path d="m8.99998 18c4.97052 0 9.00002-4.0295 9.00002-9.00002 0-4.97055-4.0295-8.99998-9.00002-8.99998-4.97055 0-8.99998 4.02943-8.99998 8.99998 0 4.97052 4.02943 9.00002 8.99998 9.00002z" fill="#ffda44"/><path d="m7.04362 1.5647h-3.11608c-.13809.09439-.27323.19265-.40567.29436l-.78261 7.14039.78261 7.14035c.13244.1018.26758.2.40567.2944h3.11608z" fill="#ff9811"/><path d="m0 9.00053c0 2.90897 1.38052 5.49517 3.52175 7.14037v-14.28079c-2.14123 1.64524-3.52175 4.23141-3.52175 7.14042z" fill="#6da544"/><path d="m14.4785 5.48645v.22538l.0084.00127z" fill="#ffda44"/><path d="m17.282 11.3473h-1.6957l-.7173.7826v1.5652h-1.5653v-.7826h.7827v-1.5652h-3.5218v.9783h-.78261v-1.8644c-.24012-.215-.39129-.52719-.39129-.87478v-5.08694c0-.64832.52559-1.17391 1.1739-1.17391v7.23913h1.5652l.5371-.4476c-.0938-.22338-.1458-.46873-.1458-.72629v-1.1739h-1.1739v-2.34781h2.3478c0-.39129.587-.78262.587-.78262s.587.39129.587.78262v.58697 1.76087c.4353.00517 1.127-.00612 1.8742 0-.1963-.34312-.309-.75027-.309-1.1739 0-.69051.2981-1.3113.7726-1.74091-.684-1.51576-1.7754-2.80818-3.1348-3.73743h-5.8552v14.8696h5.8552c1.653-1.13 2.9098-2.7968 3.5196-4.7493z" fill="#a2001d"/></g></svg>