<svg fill="none" height="18" viewBox="0 0 18 18" width="18" xmlns="http://www.w3.org/2000/svg" xmlns:xlink="http://www.w3.org/1999/xlink"><clipPath id="a"><path d="m0 0h18v18h-18z"/></clipPath><g clip-path="url(#a)"><g fill="#f0f0f0"><path d="m9 18c4.9706 0 9-4.0294 9-9 0-4.97056-4.0294-9-9-9-4.97056 0-9 4.02944-9 9 0 4.9706 4.02944 9 9 9z"/><path d="m2.05762 3.27233h13.88558c-.5128-.62103-1.1077-1.17175-1.7675-1.63634h-10.35053c-.65985.46452-1.25466 1.01527-1.76755 1.63634z"/><path d="m0 9.00041c0 .27587.0131133.54861.0374063.81819h17.9251937c.0243-.26958.0374-.54232.0374-.81819s-.0131-.54862-.0374-.81816h-17.9251937c-.024293.26954-.0374063.54229-.0374063.81816z"/><path d="m.981383 13.0909h16.037117c.265-.5184.4812-1.0658.6426-1.6363h-17.322233c.161332.5705.377543 1.1179.642516 1.6363z"/><path d="m3.82517 16.3635h10.35043c.6599-.4646 1.2547-1.0153 1.7676-1.6363h-13.88558c.51289.6209 1.1077 1.1717 1.76755 1.6363z"/><path d="m.338867 6.54589h17.322233c-.1613-.57051-.3775-1.11797-.6425-1.63634h-16.037182c-.264973.51837-.481184 1.06583-.642551 1.63634z"/></g><path d="m4.30469 1.63635h9.87091c-1.4639-1.030713-3.2488-1.63635-5.17527-1.63635-1.1739 0-3.23174.605637-4.69564 1.63635z" fill="#d80027"/><path d="m8.6084 4.90893h8.4099c-.2993-.58546-.6608-1.13386-1.0758-1.63635h-7.3341z" fill="#d80027"/><path d="m8.6084 8.18127h9.3539c-.0506-.56187-.1524-1.10904-.3015-1.63635h-9.0524z" fill="#d80027"/><path d="m.338609 11.4552h17.322191c.1491-.5273.2509-1.0745.3015-1.63635h-17.9251906c.050625.56185.1523676 1.10905.3014996 1.63635z" fill="#d80027"/><path d="m2.05723 14.7275h13.88557c.415-.5025.7765-1.0509 1.0758-1.6363h-16.037155c.299285.5854.660765 1.1338 1.075785 1.6363z" fill="#d80027"/><path d="m8.99946 18.0004c1.92644 0 3.71134-.6057 5.17524-1.6364h-10.35048c1.4639 1.0307 3.24879 1.6364 5.17524 1.6364z" fill="#d80027"/><path d="m.338574 6.54522c-.149133.52734-.2508397 1.07448-.3014646 1.63634h8.9625906v-8.18180414c-4.11961 0-7.59266 2.76792414-8.661126 6.54546414z" fill="#0052b4"/><path d="m5.35828 2.3479.58272 1.7935h1.88599l-1.52571 1.10855.58268 1.7936-1.52568-1.10848-1.52574 1.10848.58282-1.7936-1.52571-1.10855h1.88588z" fill="#f0f0f0"/></g></svg>