<svg fill="none" height="18" viewBox="0 0 18 18" width="18" xmlns="http://www.w3.org/2000/svg" xmlns:xlink="http://www.w3.org/1999/xlink"><clipPath id="a"><path d="m0 0h18v18h-18z"/></clipPath><g clip-path="url(#a)"><path d="m0 8.99991c0 1.40239.320871 2.72979.893039 3.91299l8.106961.3914 8.107-.3913c.5721-1.1833.893-2.5107.893-3.91309 0-1.40238-.3209-2.72981-.893-3.91303l-8.107-.39132-8.106961.39129c-.572168 1.18325-.893039 2.51068-.893039 3.91306z" fill="#f0f0f0"/><path d="m9.00052 18.0001c3.56808 0 6.65118-2.0765 8.10698-5.087h-16.213945c1.455745 3.0105 4.538815 5.087 8.106965 5.087z" fill="#6da544"/><path d="m9.00051-.00048828c-3.56814 0-6.65121 2.07650828-8.106955 5.08696828h16.213845c-1.4557-3.01046-4.5388-5.08696828-8.10689-5.08696828z" fill="#0052b4"/><path d="m9.58687 8.80438v-2.15216h-1.1739v2.15216l-1.41785 1.41792c.41234.675 1.15593 1.1256 2.00481 1.1256s1.59247-.4506 2.00477-1.1256z" fill="#000"/></g></svg>