<svg fill="none" height="18" viewBox="0 0 18 18" width="18" xmlns="http://www.w3.org/2000/svg" xmlns:xlink="http://www.w3.org/1999/xlink"><clipPath id="a"><path d="m0 0h18v18h-18z"/></clipPath><g clip-path="url(#a)"><path d="m17.4402 12.1307c.3618-.9749.5598-2.0295.5598-3.13039 0-1.10088-.198-2.15546-.5598-3.13042l-8.4402-.78261-8.440207.78261c-.361793.97496-.559793 2.02954-.559793 3.13042 0 1.10089.198 2.15549.559793 3.13039l8.440207.7826z" fill="#6da544"/><path d="m17.44 5.86934c-1.2717-3.42721-4.5705-5.86958414-8.44022-5.86958414-3.86969 0-7.16857 2.44237414-8.44021 5.86958414z" fill="#ffda44"/><path d="m9.00075 18.0006c3.86965 0 7.16855-2.4424 8.44025-5.8696h-16.880453c1.271633 3.4272 4.570523 5.8696 8.440203 5.8696z" fill="#d80027"/></g></svg>