<svg fill="none" height="18" viewBox="0 0 18 18" width="18" xmlns="http://www.w3.org/2000/svg" xmlns:xlink="http://www.w3.org/1999/xlink"><clipPath id="a"><path d="m0 0h18v18h-18z"/></clipPath><g clip-path="url(#a)"><path d="m9 18c4.9706 0 9-4.0294 9-9 0-4.97056-4.0294-9-9-9-4.97056 0-9 4.02944-9 9 0 4.9706 4.02944 9 9 9z" fill="#f0f0f0"/><path d="m8.99978-.00024414c-3.86969 0-7.16857 2.44237414-8.44021 5.86958414h16.88043c-1.2717-3.42721-4.5705-5.86958414-8.44022-5.86958414z" fill="#d80027"/><path d="m9.00075 18.0006c3.86965 0 7.16855-2.4424 8.44025-5.8696h-16.880453c1.271633 3.4272 4.570523 5.8696 8.440203 5.8696z" fill="#338af3"/></g></svg>