<svg fill="none" height="18" viewBox="0 0 18 18" width="18" xmlns="http://www.w3.org/2000/svg" xmlns:xlink="http://www.w3.org/1999/xlink"><clipPath id="a"><path d="m0 0h18v18h-18z"/></clipPath><g clip-path="url(#a)"><path d="m9 18c4.9706 0 9-4.0294 9-9 0-4.97056-4.0294-9-9-9-4.97056 0-9 4.02944-9 9 0 4.9706 4.02944 9 9 9z" fill="#f0f0f0"/><g fill="#a2001d"><path d="m9.0005-.00048828c-4.15824 0-7.6572 2.82026828-8.689953 6.65215828h17.379953c-1.0328-3.83189-4.5318-6.65215828-8.69-6.65215828z"/><path d="m9.0005 17.999c4.1583 0 7.6572-2.8203 8.69-6.6522h-17.379953c1.032753 3.8319 4.531713 6.6522 8.689953 6.6522z"/></g></g></svg>