<svg fill="none" height="18" viewBox="0 0 18 18" width="18" xmlns="http://www.w3.org/2000/svg" xmlns:xlink="http://www.w3.org/1999/xlink"><clipPath id="a"><path d="m0 0h18v18h-18z"/></clipPath><g clip-path="url(#a)"><path d="m.893039 5.08706c-.572133 1.18322-.893039 2.51061-.893039 3.91303 0 1.40241.320906 2.72981.893039 3.91301l8.106961.7826 8.107-.7826c.5721-1.1832.893-2.5106.893-3.91301 0-1.40242-.3209-2.72981-.893-3.91303l-8.107-.78262z" fill="#000"/><path d="m.893555 12.9126c1.455675 3.0105 4.538495 5.087 8.106645 5.087 3.5681 0 6.651-2.0765 8.1066-5.087z" fill="#496e2d"/><path d="m.893555 5.08721h16.213245c-1.4556-3.01046-4.5385-5.08696586-8.1066-5.08696586-3.56815 0-6.65097 2.07650586-8.106645 5.08696586z" fill="#d80027"/><g fill="#f0f0f0"><path d="m11.0942 7.35364.7384 1.0176 1.1959-.38778-.7396 1.01672.7384 1.01752-1.1955-.3892-.7396 1.0167.0008-1.25721-1.19554-.38925 1.19594-.38777z"/><path d="m9.07938 11.5428c-1.4047 0-2.54349-1.1387-2.54349-2.54345 0-1.4047 1.13879-2.54348 2.54349-2.54348.43798 0 .85011.11074 1.20992.30571-.56449-.55198-1.33638-.89268-2.18818-.89268-1.72891 0-3.13042 1.40154-3.13042 3.13041 0 1.72889 1.40154 3.13039 3.13042 3.13039.85184 0 1.62373-.3407 2.18818-.8927-.35984.1951-.77191.3058-1.20992.3058z"/></g></g></svg>