<svg fill="none" height="18" viewBox="0 0 18 18" width="18" xmlns="http://www.w3.org/2000/svg" xmlns:xlink="http://www.w3.org/1999/xlink"><clipPath id="a"><path d="m0 0h18v18h-18z"/></clipPath><g clip-path="url(#a)"><path d="m9 18c4.9706 0 9-4.0294 9-9 0-4.97056-4.0294-9-9-9-4.97056 0-9 4.02944-9 9 0 4.9706 4.02944 9 9 9z" fill="#e70015"/><path d="m14.3191 7.38584h-4.0632l-1.25554-3.86423-1.25557 3.86423h-4.06315l3.28715 2.38824-1.25561 3.86432 3.28718-2.3883 3.28714 2.3884-1.2556-3.86439zm-6.43031 2.0893.42458-1.30672h1.37394l.42459 1.30672v.00004l-1.11154.80762-1.11154-.80762zm1.54427-2.0893h-.86537l.43267-1.33172zm1.34454 1.60566-.2674-.82305h1.4002zm-3.2871-.82305-.26743.82305-1.13284-.82305zm-.2887 3.42105.4327-1.3317.70014.5087zm2.46428-.823.70012-.5086.4327 1.3316z" fill="#008300"/></g></svg>