<svg fill="none" height="18" viewBox="0 0 18 18" width="18" xmlns="http://www.w3.org/2000/svg" xmlns:xlink="http://www.w3.org/1999/xlink"><clipPath id="a"><path d="m0 0h18v18h-18z"/></clipPath><g clip-path="url(#a)"><path d="m12.9134.893527c-1.1833-.572132-2.5107-.89303872-3.91307-.89303872-1.40238 0-2.72981.32090672-3.91303.89303872l-.78261 8.106963.78261 8.10691c1.18322.5722 2.51065.8931 3.91303.8931 1.40237 0 2.72977-.3209 3.91307-.8931l.7826-8.10691z" fill="#ffda44"/><path d="m5.08697.894043c-3.01043 1.455717-5.08697 4.538527-5.08697 8.106647 0 3.56811 2.07654 6.65091 5.08697 8.10661z" fill="#0052b4"/><path d="m12.9131.894043v16.213257c3.0104-1.4557 5.087-4.5385 5.087-8.10661 0-3.56812-2.0766-6.65093-5.087-8.106647z" fill="#d80027"/><path d="m12.13 7.08177h-2.15218c0-.54028-.43798-.97825-.97826-.97825s-.97826.43797-.97826.97825h-2.15216c0 .53195.4634.96314.99527.96314h-.03206c0 .53199.43123.96325.96321.96325 0 .47099.33828.86235.78504.94602l-.75902 1.71362c.36369.1478.76117.23 1.17798.23.41678 0 .81429-.0822 1.17794-.23l-.75898-1.71362c.44676-.08367.78508-.47503.78508-.94602.5319 0 .9632-.43126.9632-.96325h-.0321c.5319 0 .9953-.43122.9953-.96314z" fill="#ff9811"/><path d="m9.00025 8.41333-1.27173.58697v1.1739l1.27173.7826 1.27175-.7826v-1.1739z" fill="#0052b4"/><path d="m10.272 7.82556h-2.54348v1.17391h2.54348z" fill="#d80027"/></g></svg>