<svg fill="none" height="18" viewBox="0 0 18 18" width="18" xmlns="http://www.w3.org/2000/svg" xmlns:xlink="http://www.w3.org/1999/xlink"><clipPath id="a"><path d="m0 0h18v18h-18z"/></clipPath><g clip-path="url(#a)"><path d="m9 18c4.9706 0 9-4.0294 9-9 0-4.97056-4.0294-9-9-9-4.97056 0-9 4.02944-9 9 0 4.9706 4.02944 9 9 9z" fill="#ffda44"/><path d="m18 8.99971c0-3.08886-1.5563-5.81396-3.9274-7.43477h-10.14519c-2.37104 1.62081-3.92741 4.34591-3.92741 7.43477 0 3.08889 1.55637 5.81399 3.92741 7.43479h10.14519c2.3711-1.6208 3.9274-4.3459 3.9274-7.43479z" fill="#a2001d"/><path d="m7.04395 6.65261h3.91305v-1.56519l-.7826.39129-1.17394-1.1739-1.1739 1.1739-.78261-.39129z" fill="#ffda44"/><path d="m12.5221 9.00021h-1.9558c.0767-.13268.1213-.28621.1213-.45046 0-.49876-.4043-.90302-.90304-.90302-.34457 0-.64382.19308-.79608.47679-.15226-.28375-.45151-.47679-.79608-.47679-.49869 0-.90302.40426-.90302.90302 0 .16429.04465.31781.12129.45046h-1.93215c0 .59846.52126 1.08359 1.11969 1.08359h-.03607c0 .4909.32649.9054.77414 1.0385l-.87951.8796.83008.8301 1.17749-1.1775c.04612.0169.09383.0304.14315.0397l-.71149 1.6064c.34095.1387.71357.2156 1.10433.2156.39072 0 .76335-.0769 1.10437-.2156l-.71154-1.6064c.04929-.0093.097-.0228.14309-.0397l1.17745 1.1775.8301-.8301-.8796-.8796c.4476-.1332.7742-.5476.7742-1.0385h-.0361c.5985 0 1.1198-.48513 1.1198-1.08359z" fill="#ffda44"/><path d="m9.00026 9.58716-1.27174.58694v1.1739l1.27174.7826 1.27174-.7826v-1.1739z" fill="#6da544"/><path d="m10.272 8.99939h-2.54348v1.56521h2.54348z" fill="#0052b4"/></g></svg>