<svg fill="none" height="18" viewBox="0 0 18 18" width="18" xmlns="http://www.w3.org/2000/svg" xmlns:xlink="http://www.w3.org/1999/xlink"><clipPath id="a"><path d="m0 0h18v18h-18z"/></clipPath><g clip-path="url(#a)"><path d="m9 18c4.9706 0 9-4.0294 9-9 0-4.97056-4.0294-9-9-9-4.97056 0-9 4.02944-9 9 0 4.9706 4.02944 9 9 9z" fill="#f0f0f0"/><path d="m5.86914 8.99965v8.44025c.97495.3618 2.02954.5598 3.13042.5598 4.97054 0 9.00004-4.0295 9.00004-9.00005 0-4.97053-12.13046 0-12.13046 0z" fill="#6da544"/><path d="m8.99956.00024414c-1.10088 0-2.15547.19803486-3.13042.55979286v8.440203h12.13046c0-4.97053-4.0295-8.99999586-9.00004-8.99999586z" fill="#d80027"/></g></svg>