<svg fill="none" height="18" viewBox="0 0 18 18" width="18" xmlns="http://www.w3.org/2000/svg" xmlns:xlink="http://www.w3.org/1999/xlink"><clipPath id="a"><path d="m0 0h18v18h-18z"/></clipPath><g clip-path="url(#a)"><path d="m9 18c4.9705 0 9-4.0295 9-9 0-1.51042-.3727-2.93365-1.0301-4.18359l-7.98048 4.19414 4.19418-7.9804c-1.25-.657494-2.6732-1.03015-4.1836-1.03015-4.97053 0-9 4.02947-9 9 0 2.4853 1.00737 4.7353 2.63602 6.364 1.62868 1.6287 3.87868 2.636 6.36398 2.636z" fill="#0052b4"/><path d="m16.9608 4.82575c-.4119-.78412-.9475-1.52033-1.6069-2.17965-.6593-.65932-1.3954-1.19493-2.1796-1.60685l-10.54832 14.33475z" fill="#f0f0f0"/><path d="m2.62598 15.3745 14.33482-10.54824c-.4119-.78413-.9475-1.52033-1.6069-2.17965z" fill="#ff9811"/><path d="m7.81551 5.27764-1.09913.51701.58532 1.06453-1.19356-.22834-.15124 1.20572-.83137-.88682-.83138.88682-.15117-1.20572-1.19355.22827.58524-1.0645-1.09912-.51697 1.09916-.51704-.58528-1.06446 1.19348.22827.15128-1.20572.83134.88682.83137-.88682.15124 1.20572 1.19359-.22827-.58531 1.06449z" fill="#f0f0f0"/></g></svg>