<svg fill="none" height="18" viewBox="0 0 18 18" width="18" xmlns="http://www.w3.org/2000/svg" xmlns:xlink="http://www.w3.org/1999/xlink"><clipPath id="a"><path d="m0 0h18v18h-18z"/></clipPath><g clip-path="url(#a)"><path d="m9 18c4.9706 0 9-4.0294 9-9 0-4.97056-4.0294-9-9-9-4.97056 0-9 4.02944-9 9 0 4.9706 4.02944 9 9 9z" fill="#ffda44"/><g fill="#d80027"><path d="m10.3697 17.8968c1.4637-.2233 2.8111-.7998 3.9535-1.6389l-5.32222-7.25766z"/><path d="m7.63228.103271c-1.46373.223313-2.81113.799735-3.95357 1.638879l5.32231 7.25766z"/><path d="m3.67871 16.2579c1.14237.8391 2.48977 1.4155 3.9535 1.6389l1.36881-8.89656z"/><path d="m1.74337 3.67676c-.839179 1.14244-1.41553 2.4898-1.638878 3.95356l8.896538 1.36874z"/><path d="m.104492 10.3689c.223313 1.4638.799734 2.8112 1.638918 3.9536l7.25762-5.32226z"/><path d="m17.8975 7.63054c-.2233-1.46373-.7997-2.81113-1.6389-3.95354l-7.25762 5.32228z"/><path d="m14.3232 1.74211c-1.1424-.839139-2.4898-1.415526-3.9535-1.638839l-1.36872 8.896539z"/><path d="m16.2587 14.3225c.8391-1.1424 1.4155-2.4898 1.6389-3.9535l-8.89662-1.36876z"/><path d="m9.00151 12.1307c1.72889 0 3.13039-1.4015 3.13039-3.13041 0-1.72888-1.4015-3.13042-3.13039-3.13042-1.72888 0-3.13042 1.40154-3.13042 3.13042 0 1.72891 1.40154 3.13041 3.13042 3.13041z"/></g><path d="m9.00018 11.3473c1.29672 0 2.34782-1.0512 2.34782-2.34785 0-1.29667-1.0511-2.34784-2.34782-2.34784-1.29667 0-2.34784 1.05117-2.34784 2.34784 0 1.29665 1.05117 2.34785 2.34784 2.34785z" fill="#ffda44"/></g></svg>