<svg fill="none" height="18" viewBox="0 0 18 18" width="18" xmlns="http://www.w3.org/2000/svg" xmlns:xlink="http://www.w3.org/1999/xlink"><clipPath id="a"><path d="m0 0h18v18h-18z"/></clipPath><g clip-path="url(#a)"><path d="m12.1313.559427c-.9749-.361758-2.0295-.55979321-3.13037-.55979321-1.10089 0-2.15544.19803521-3.13043.55979321l-.78261 8.440203.78261 8.44017c.97499.3618 2.02954.5598 3.13043.5598 1.10087 0 2.15547-.198 3.13037-.5598l.7827-8.44017z" fill="#ffda44"/><path d="m18.0004 9.00017c0-3.86965-2.4423-7.16857-5.8695-8.440172v16.880402c3.4272-1.2717 5.8695-4.5705 5.8695-8.44023z" fill="#d80027"/><path d="m0 8.99956c0 3.86974 2.44238 7.16854 5.86958 8.44024v-16.880413c-3.4272 1.271603-5.86958 4.570523-5.86958 8.440173z" fill="#6da544"/></g></svg>