<svg fill="none" height="18" viewBox="0 0 18 18" width="18" xmlns="http://www.w3.org/2000/svg" xmlns:xlink="http://www.w3.org/1999/xlink"><clipPath id="a"><path d="m0 0h18v18h-18z"/></clipPath><g clip-path="url(#a)"><path d="m17.4402 12.1307c.3618-.9749.5598-2.0295.5598-3.13039 0-1.10088-.198-2.15546-.5598-3.13042l-8.4402-.78261-8.440207.78261c-.361758.97496-.559793 2.02954-.559793 3.13042 0 1.10089.198035 2.15549.559793 3.13039l8.440207.7826z" fill="#6da544"/><path d="m17.44 5.86946c-1.2717-3.42721-4.5705-5.86958207-8.44022-5.86958207-3.86969 0-7.16857 2.44237207-8.44021 5.86958207z" fill="#ffda44"/><path d="m8.99978 17.9993c3.86972 0 7.16852-2.4423 8.44022-5.8695h-16.88043c1.27164 3.4272 4.57052 5.8695 8.44021 5.8695z" fill="#d80027"/><path d="m15.1714 7.61479h-4.7147l-1.45693-4.48393-1.45695 4.48393h-4.7147l3.81428 2.77121-1.45694 4.484 3.81431-2.7391 3.81433 2.7391-1.4569-4.484z" fill="#f0f0f0"/></g></svg>