<svg fill="none" height="18" viewBox="0 0 18 18" width="18" xmlns="http://www.w3.org/2000/svg" xmlns:xlink="http://www.w3.org/1999/xlink"><clipPath id="a"><path d="m0 0h18v18h-18z"/></clipPath><g clip-path="url(#a)"><path d="m8.99928 18.0005c1.10092 0 2.15542-.198 3.13042-.5598l.3913-8.44021-.3913-8.440209c-.975-.361758-2.0295-.55979272-3.13042-.55979272-1.10088 0-2.15546.19803472-3.13042.55979272l-.39132 8.440209.39129 8.44021c.97499.3618 2.02957.5598 3.13045.5598z" fill="#0052b4"/><path d="m0 9.00014c0 3.86966 2.44238 7.16856 5.86958 8.44026v-16.880463c-3.4272 1.271633-5.86958 4.570523-5.86958 8.440203z" fill="#a2001d"/><path d="m12.1309.559448v16.880452c3.4272-1.2717 5.8695-4.5706 5.8695-8.44024 0-3.86969-2.4423-7.16857-5.8695-8.440212z" fill="#a2001d"/><g fill="#ffda44"><path d="m5.0873 8.99915h-.78261v3.13045h.78261z"/><path d="m1.95644 8.99915h-.78261v3.13045h.78261z"/><path d="m3.13027 10.9563c.43222 0 .78261-.3503.78261-.7826 0-.4322-.35039-.78259-.78261-.78259-.43223 0-.78261.35039-.78261.78259 0 .4323.35038.7826.78261.7826z"/><path d="m3.13055 7.82506c.2161 0 .39129-.17519.39129-.39129s-.17519-.39129-.39129-.39129c-.21611 0-.39129.17519-.39129.39129s.17518.39129.39129.39129z"/><path d="m3.91288 11.3466h-1.56522v.7826h1.56522z"/><path d="m3.91288 8.21631h-1.56522v.78261h1.56522z"/><path d="m3.13093 4.69495.27718.85289h.89676l-.72545.52713.27696.85289-.72545-.52713-.72541.52713.27696-.85289-.72545-.52713h.89677z"/></g></g></svg>