<svg fill="none" height="18" viewBox="0 0 18 18" width="18" xmlns="http://www.w3.org/2000/svg" xmlns:xlink="http://www.w3.org/1999/xlink"><clipPath id="a"><path d="m0 0h18v18h-18z"/></clipPath><g clip-path="url(#a)"><path d="m9 18c4.9706 0 9-4.0294 9-9 0-4.97056-4.0294-9-9-9-4.97056 0-9 4.02944-9 9 0 4.9706 4.02944 9 9 9z" fill="#496e2d"/><path d="m10.5654 8.62522c-.2209 0-.4307.04405-.62542.11415.10672-.23779.17822-.50238.17822-.78493 0-1.118-1.11798-1.95652-1.11798-1.95652s-1.118.83852-1.118 1.95652c0 .28252.07154.54714.17824.78493-.1948-.07003-.40454-.11415-.62543-.11415-1.118 0-1.95651 1.11801-1.95651 1.11801s.83851 1.11807 1.95651 1.11807c.65549 0 1.21454-.3842 1.56523-.7022.35068.3179.90974.7022 1.56524.7022 1.118 0 1.9565-1.11807 1.9565-1.11807s-.8386-1.11801-1.9566-1.11801z" fill="#f0f0f0"/><g fill="#ffda44"><path d="m9.00072 3.521.23094.71072h.74731l-.60451.43931.23077.71072-.60451-.43932-.60451.43932.23076-.71072-.60451-.43931h.74732z"/><path d="m6.15808 4.76367.44431.40001.51774-.2989-.24314.54615.44427.40008-.59456-.06251-.24314.54616-.12438-.58476-.59453-.0625.51771-.29897z"/><path d="m4.07812 6.8444.58479.12427.29894-.51774.06251.59452.58472.12439-.54612.24317.06251.59449-.40012-.4442-.54612.24314.29894-.51778z"/><path d="m11.8419 4.76367-.4443.40001-.5178-.2989.2431.54615-.4442.40008.5946-.06251.2431.54616.1244-.58476.5945-.0625-.5177-.29897z"/><path d="m13.9216 6.8444-.5848.12427-.2989-.51774-.0626.59452-.5847.12439.5461.24317-.0625.59449.4001-.4442.5462.24314-.299-.51778z"/></g><path d="m8.99999 13.9916c.88808 0 1.70661-.2963 2.36331-.7948h-4.72658c.65665.4985 1.47519.7948 2.36327.7948z" fill="#f0f0f0"/><path d="m5.41309 11.6433c.1242.2843.2817.5505.4667.7949h6.24091c.1849-.2443.3424-.5106.4667-.7949z" fill="#f0f0f0"/></g></svg>