<svg fill="none" height="18" viewBox="0 0 18 18" width="18" xmlns="http://www.w3.org/2000/svg" xmlns:xlink="http://www.w3.org/1999/xlink"><clipPath id="a"><path d="m0 0h18v18h-18z"/></clipPath><g clip-path="url(#a)"><path d="m9 18c4.9706 0 9-4.0294 9-9 0-4.97056-4.0294-9-9-9-4.97056 0-9 4.02944-9 9 0 4.9706 4.02944 9 9 9z" fill="#338af3"/><path d="m8.71593 14.6671c-.24261-.0118-.44335-.1695-.522-.3835-.1389.1811-.37761.2723-.61277.2117-.23559-.0607-.40029-.2555-.43436-.4817-.17297.1494-.42497.1901-.6429.0833-.21836-.1072-.34042-.3315-.3279-.5596-.19916.1119-.45429.101-.64642-.0477-.19174-.1487-.26649-.3925-.20858-.6136-.21759.0696-.46487.0078-.62336-.1765-.15848-.1839-.18278-.4379-.08177-.6425-.22697.0242-.45703-.0861-.57523-.2982-.11858-.2121-.09116-.466.04929-.6465-.22736-.0219-.43084-.1764-.50361-.4081-.07316-.2316.00509-.475.17922-.6233-.21835-.0674-.38584-.25991-.41048-.50129-.02465-.24142.10058-.46329.30051-.57365-.19996-.10958-.32596-.33142-.30209-.57248h.00038c.02387-.24184.19136-.43471.40929-.50284-.17413-.14791-.25316-.39091-.18077-.62258.07239-.23204.27545-.38701.50284-.40972-.14049-.18-.16865-.434-.05087-.64641.11777-.2121.34787-.32284.57522-.29897-.10174-.20465-.07787-.45862.08023-.64329.15771-.18429.405-.24652.62297-.17765-.05871-.22071.01564-.46487.20739-.61393.19135-.14913.44648-.16049.64564-.04936-.0129-.22809.10877-.45235.32674-.55997.21759-.10722.46997-.06729.64329.08216.03326-.22612.198-.42177.43316-.48287.23478-.06103.47349.02936.61278.21013.07864-.21403.279-.37213.52161-.38426.24223-.01248.45742.12365.55761.32836.11975-.1941.34749-.30913.58736-.27274.24025.036.42455.21284.48175.43397.1565-.16675.403-.23284.6307-.14913.2282.08412.3729.29464.3839.52316.1866-.13145.4418-.14675.648-.01839.2062.12797.3052.36313.27.5889.2094-.09116.4621-.05477.6382.1119.1761.1671.2262.41713.1464.63116.2234-.04735.4637.03875.603.23791.1393.19877.1381.4539.0172.64761.2281-.00158.4461.13148.5428.35413.0962.22303.0434.4731-.1143.63861.2242.04461.4109.21874.4602.45665.0489.2379-.0533.47151-.2407.60184.2098.08887.3577.29661.358.53922v.00784.0051c0 .24258-.1471.45077-.3568.54039.1878.12955.2907.36313.2418.60099-.0485.2379-.2348.4125-.459.4579.1581.1651.2117.4148.1159.6382-.0959.223-.3139.3565-.5424.3553.1213.1937.1233.4488-.0156.648s-.3788.2861-.6023.2391c.0803.2136.0305.4641-.1451.6316-.1761.1671-.4285.2038-.6379.1135.0356.2253-.063.4609-.2688.5897-.2059.1287-.461.1138-.648-.0173-.0106.2286-.1546.4395-.3823.524 0 0 0 0-.0004 0-.2277.0841-.4742.0184-.6311-.1479-.0564.2215-.2403.3988-.48057.4356-.23987.0363-.468-.0779-.58812-.272-.09549.1968-.29739.3306-.52749.3306-.00981.0002-.01958-.0002-.02939-.0006z" fill="#f3f3f3"/><path d="m9.00093 12.9137c2.16107 0 3.91307-1.7519 3.91307-3.91303 0-2.1611-1.752-3.91302-3.91307-3.91302-2.16111 0-3.91304 1.75192-3.91304 3.91302 0 2.16113 1.75193 3.91303 3.91304 3.91303z" fill="#338af3"/><path d="m9.85627 7.67169c.19223-.1426.31743-.37052.31743-.62828v-.39129c0-.43225-.3504-.78261-.78265-.78261h-.78258c-.43224 0-.78261.35036-.78261.78261v.39129c0 .25776.12516.48568.31739.62828l-.70868 7.19781s.39129.3913 1.56523.3913c1.1739 0 1.5652-.3913 1.5652-.3913z" fill="#bdbcc1"/><path d="m9.00018 5.86951.67986 2.09243h2.20026l-1.78 1.29332.6798 2.09254-1.77992-1.2933-1.78002 1.2933.67995-2.09254-1.77999-1.29332h2.20018z" fill="#f0f0f0"/></g></svg>