<svg fill="none" height="18" viewBox="0 0 18 18" width="18" xmlns="http://www.w3.org/2000/svg" xmlns:xlink="http://www.w3.org/1999/xlink"><clipPath id="a"><path d="m0 0h18v18h-18z"/></clipPath><g clip-path="url(#a)"><path d="m9 18c4.9706 0 9-4.0294 9-9 0-4.97056-4.0294-9-9-9-4.97056 0-9 4.02944-9 9 0 4.9706 4.02944 9 9 9z" fill="#f0f0f0"/><path d="m17.9218 7.82654c-.2483-1.89794-1.1008-3.73191-2.5589-5.19001-1.4581-1.45811-3.2921-2.310681-5.19-2.5589543v7.7489643z" fill="#0052b4"/><path d="m7.82514.078064c-1.89795.248273-3.73195 1.100816-5.19005 2.558916-1.45807 1.45814-2.310645 3.29214-2.5589181 5.19012l7.7489981-.00004z" fill="#0052b4"/><path d="m.0761719 10.1748c.2482731 1.8979 1.1008481 3.732 2.5589181 5.19 1.4581 1.4581 3.29207 2.3107 5.19008 2.559l-.00003-7.7489z" fill="#0052b4"/><path d="m10.1729 17.9237c1.8979-.2482 3.7319-1.1008 5.19-2.5589s2.3106-3.2921 2.5589-5.19h-7.7489z" fill="#0052b4"/><g fill="#f0f0f0"><path d="m12.0728 5.71104c0-.11968.0973-.21695.217-.21695h.4649c.7349 0 1.3328-.59787 1.3328-1.33274s-.5979-1.33278-1.3328-1.33278h-.4415c-.1441-.10824-.3374-.17501-.5507-.17501-.4448 0-.8054.28846-.8054.64431 0 .35241.3537.6383.7926.64386l-.0002.00256h1.0052c.1197 0 .217.09731.217.21699 0 .11967-.0973.21695-.217.21695h-.4649c-.7349 0-1.3328.59786-1.3328 1.33274 0 .73487.5978 1.33277 1.3328 1.33277h1.7976v-1.11579h-1.7976c-.1197.00003-.217-.09724-.217-.21691z"/><path d="m5.0288 5.71116c0-.11967.09728-.21695.21699-.21695h.46491c.7349 0 1.3328-.59787 1.3328-1.33274s-.59786-1.33278-1.3328-1.33278h-.4415c-.1441-.10824-.33743-.175-.55068-.175-.44484 0-.80543.28845-.80543.64431 0 .3524.3537.63829.79259.64385l-.00021.00256h1.00526c.11971 0 .21698.09732.21698.21699s-.09727.21695-.21698.21695h-.46491c-.7349 0-1.33273.59787-1.33273 1.33274s.59779 1.33277 1.33273 1.33277h1.79765v-1.11579h-1.79768c-.11971.00004-.21699-.09724-.21699-.21691z"/><path d="m12.0728 14.0144c0-.1196.0973-.2169.217-.2169h.4649c.7349 0 1.3328-.5979 1.3328-1.3327 0-.7349-.5978-1.3328-1.3328-1.3328h-.4415c-.1441-.1083-.3374-.175-.5507-.175-.4448 0-.8054.2885-.8054.6443 0 .3524.3537.6383.7926.6438l-.0002.0026h1.0052c.1197 0 .217.0973.217.217s-.0973.2169-.217.2169h-.4649c-.7349 0-1.3328.5979-1.3328 1.3328 0 .7348.5978 1.3327 1.3328 1.3327h1.7977v-1.1157h-1.7977c-.1197 0-.217-.0973-.217-.217z"/><path d="m5.02884 14.0144c0-.1196.09728-.2169.21698-.2169h.46491c.7349 0 1.33281-.5979 1.33281-1.3327 0-.7349-.59787-1.3328-1.33281-1.3328h-.44149c-.14411-.1083-.33743-.175-.55069-.175-.44487 0-.80546.2885-.80546.6443 0 .3524.3537.6383.79259.6438l-.00021.0026h1.00526c.11971 0 .21698.0973.21698.217s-.09727.2169-.21698.2169h-.46491c-.7349 0-1.33273.5979-1.33273 1.3328 0 .7348.59779 1.3327 1.33273 1.3327h1.79768v-1.1157h-1.79768c-.1197 0-.21698-.0973-.21698-.217z"/></g></g></svg>