<svg fill="none" height="18" viewBox="0 0 18 18" width="18" xmlns="http://www.w3.org/2000/svg" xmlns:xlink="http://www.w3.org/1999/xlink"><clipPath id="a"><path d="m0 0h18v18h-18z"/></clipPath><g clip-path="url(#a)"><path d="m9 18c4.9706 0 9-4.0294 9-9 0-4.97056-4.0294-9-9-9-4.97056 0-9 4.02944-9 9 0 4.9706 4.02944 9 9 9z" fill="#496e2d"/><g fill="#ffda44"><path d="m9.00054 10.3977c-1.49857 0-2.75049-1.05319-3.05765-2.45962-.04718.21622-.07277.44041-.07277.67082 0 1.729 1.4015 3.1304 3.13042 3.1304 1.72886 0 3.13046-1.4015 3.13046-3.1304 0-.23041-.0256-.4546-.0728-.67085-.3072 1.4065-1.5591 2.45965-3.05766 2.45965z"/><path d="m9.0009 6.2608.29138.8968h.94302l-.76288.55424.29137.89681-.76289-.55428-.76285.55428.29141-.89681-.76286-.55424h.94293z"/></g></g></svg>