<svg fill="none" height="18" viewBox="0 0 18 18" width="18" xmlns="http://www.w3.org/2000/svg" xmlns:xlink="http://www.w3.org/1999/xlink"><clipPath id="a"><path d="m0 0h18v18h-18z"/></clipPath><g clip-path="url(#a)"><path d="m18 9c0 4.9705-4.0295 9-9 9-4.97053 0-9-4.0295-9-9 0 .00214 9-8.99901562 9-9 4.9705 0 9 4.02947 9 9z" fill="#0052b4"/><path d="m8.97559 8.99971h.02412c0-.0081 0-.01599 0-.02412-.00803.00806-.01606.01609-.02412.02412z" fill="#f0f0f0"/><path d="m9 4.69589c0-1.58361 0-2.62125 0-4.69564586h-.00152c-4.96989.00084375-8.99848 4.02992586-8.99848 8.99999586h4.69564v-2.64413l2.64414 2.64413h1.63617c.00801-.00801.01603-.01603.02408-.02408 0-.60634 0-1.14736 0-1.63606l-2.64421-2.64421z" fill="#f0f0f0"/><path d="m4.55319 1.17407c-1.40762.80153-2.57787 1.97174-3.37936 3.37936v4.44674h2.34784v-5.47819-.00007h5.47826c0-.74049 0-1.44594 0-2.34784z" fill="#d80027"/><path d="m9.00064 7.89312-3.19763-3.19756h-1.10672v.00007l4.30428 4.30424h.00007s0-.76313 0-1.10675z" fill="#d80027"/><path d="m10.1738 4.69531v4.30432c0 2.09677 2.7392 2.73917 2.7392 2.73917s2.7391-.6424 2.7391-2.73917v-4.30432z" fill="#338af3"/><path d="m10.1738 8.99939c0 2.09671 2.7392 2.73921 2.7392 2.73921s2.7391-.6425 2.7391-2.73921z" fill="#a2001d"/><path d="m14.0871 6.65179h-.7827v-.78265h-.7826v.78265h-.7825v.78258h.7825v2.3478h.7826v-2.3478h.7827z" fill="#000"/></g></svg>