<svg fill="none" height="18" viewBox="0 0 18 18" width="18" xmlns="http://www.w3.org/2000/svg" xmlns:xlink="http://www.w3.org/1999/xlink"><clipPath id="a"><path d="m0 0h18v18h-18z"/></clipPath><g clip-path="url(#a)"><path d="m9 18c4.9706 0 9-4.0294 9-9 0-4.97056-4.0294-9-9-9-4.97056 0-9 4.02944-9 9 0 4.9706 4.02944 9 9 9z" fill="#f0f0f0"/><path d="m9-.00036621c4.9705 0 9 4.02946621 9 8.99999621 0 4.97057-4.0295 8.99997-9 8.99997" fill="#d80027"/><path d="m6.25995 3.52217v-1.1739h-1.1739v1.1739h-1.17394v1.1739h1.17394v1.17394h1.1739v-1.17394h1.1739v-1.1739z" fill="#acabb1"/></g></svg>