<svg fill="none" height="18" viewBox="0 0 18 18" width="18" xmlns="http://www.w3.org/2000/svg" xmlns:xlink="http://www.w3.org/1999/xlink"><clipPath id="a"><path d="m0 0h18v18h-18z"/></clipPath><g clip-path="url(#a)"><path d="m1.09375 4.69528 7.90569.78261 7.90566-.78261c-1.5264-2.7976-4.4943-4.69564621-7.90566-4.69564621-3.41139 0-6.37924 1.89804621-7.90569 4.69564621z" fill="#d80027"/><path d="m1.09431 13.3038 7.90569.7826 7.9057-.7826c.6976-1.2786 1.0943-2.7451 1.0943-4.30433l-9-.78261-9 .78261c0 1.55923.396668 3.02573 1.09431 4.30433z" fill="#ffda44"/><path d="m1.09431 4.69574c-.697642 1.27867-1.09431 2.74518-1.09431 4.30436h18c0-1.55918-.3967-3.02569-1.0943-4.30436h-7.9057z" fill="#0052b4"/><path d="m8.99944 17.9997c3.41136 0 6.37926-1.8981 7.90566-4.6957h-15.81135c1.52645 2.7976 4.4943 4.6957 7.90569 4.6957z" fill="#6da544"/></g></svg>