<svg fill="none" height="18" viewBox="0 0 18 18" width="18" xmlns="http://www.w3.org/2000/svg" xmlns:xlink="http://www.w3.org/1999/xlink"><clipPath id="a"><path d="m0 0h18v18h-18z"/></clipPath><g clip-path="url(#a)"><path d="m9 18c4.9706 0 9-4.0294 9-9 0-4.97056-4.0294-9-9-9-4.97056 0-9 4.02944-9 9 0 4.9706 4.02944 9 9 9z" fill="#d80027"/><path d="m14.87 4.6958h-11.73914v8.6087h11.73914z" fill="#6da544"/><path d="m10.4495 11.5434c-1.40471 0-2.54349-1.1387-2.54349-2.54344 0-1.4047 1.13878-2.54348 2.54349-2.54348.438 0 .8501.11074 1.2099.30571-.5644-.55198-1.3363-.89268-2.18816-.89268-1.72885 0-3.13042 1.40154-3.13042 3.13041 0 1.72888 1.40157 3.13038 3.13042 3.13038.85186 0 1.62376-.3407 2.18816-.8926-.3598.195-.7719.3057-1.2099.3057z" fill="#f0f0f0"/></g></svg>