<svg fill="none" height="18" viewBox="0 0 18 18" width="18" xmlns="http://www.w3.org/2000/svg" xmlns:xlink="http://www.w3.org/1999/xlink"><clipPath id="a"><path d="m0 0h18v18h-18z"/></clipPath><g clip-path="url(#a)"><path d="m0 8.99977c0 1.10083.198035 2.15543.559793 3.13043l8.440207.3913 8.4402-.3913c.3618-.975.5598-2.0296.5598-3.13043 0-1.10089-.198-2.15543-.5598-3.13042l-8.4402-.39132-8.440207.39129c-.361758.97502-.559793 2.02956-.559793 3.13045z" fill="#d80027"/><path d="m8.99978-.00024414c-3.86969 0-7.16857 2.44237414-8.44021 5.86958414h16.88043c-1.2717-3.42721-4.5705-5.86958414-8.44022-5.86958414z" fill="#000"/><path d="m17.44 12.131h-16.88043c1.27164 3.4272 4.57052 5.8696 8.44021 5.8696 3.86972 0 7.16852-2.4424 8.44022-5.8696z" fill="#496e2d"/><path d="m11.6895 4.30492-1.0991-.517.5853-1.0645-1.19353.22834-.15124-1.20579-.83138.88682-.83134-.88682-.15128 1.20579-1.19352-.22834.58532 1.0645-1.09916.517z" fill="#d80027"/></g></svg>