<svg fill="none" height="18" viewBox="0 0 18 18" width="18" xmlns="http://www.w3.org/2000/svg" xmlns:xlink="http://www.w3.org/1999/xlink"><clipPath id="a"><path d="m0 0h18v18h-18z"/></clipPath><g clip-path="url(#a)"><path d="m9 18c4.9706 0 9-4.0294 9-9 0-4.97056-4.0294-9-9-9-4.97056 0-9 4.02944-9 9 0 4.9706 4.02944 9 9 9z" fill="#f0f0f0"/><path d="m17.9991 8.99978c0-3.56815-2.0765-6.65121-5.087-8.106958v16.213878c3.0105-1.4557 5.087-4.5388 5.087-8.10692z" fill="#d80027"/><path d="m0 8.99978c0 3.56812 2.0765 6.65122 5.08697 8.10692v-16.213878c-3.01047 1.455748-5.08697 4.538808-5.08697 8.106958z" fill="#6da544"/><path d="m6.65234 8.99941c0 1.29669 1.05118 2.34779 2.34784 2.34779 1.29672 0 2.34782-1.0511 2.34782-2.34779v-.78261h-4.69566z" fill="#6da544"/><path d="m12.1301 7.43502h-2.34789c0-.43221-.3504-.78262-.78261-.78262s-.78262.35041-.78262.78262h-2.34784c0 .43224.37649.78261.80867.78261h-.02606c0 .43224.35037.78261.78262.78261 0 .43225.35037.78261.78261.78261h1.56523c.43229 0 .78259-.35036.78259-.78261.4323 0 .7826-.35037.7826-.78261h-.026c.4322 0 .8087-.35037.8087-.78261z" fill="#ff9811"/></g></svg>