<svg fill="none" height="18" viewBox="0 0 18 18" width="18" xmlns="http://www.w3.org/2000/svg" xmlns:xlink="http://www.w3.org/1999/xlink"><clipPath id="a"><path d="m0 0h18v18h-18z"/></clipPath><g clip-path="url(#a)"><path d="m9 18c4.9706 0 9-4.0294 9-9 0-4.97056-4.0294-9-9-9-4.97056 0-9 4.02944-9 9 0 4.9706 4.02944 9 9 9z" fill="#f0f0f0"/><g fill="#d80027"><path d="m8.60938 9.00018h9.39132c0-.81235-.1083-1.59922-.3101-2.34784h-9.08122z"/><path d="m8.60938 4.30402h8.07032c-.5509-.89902-1.2553-1.69366-2.0766-2.34784h-5.99372z"/><path d="m9.00083 18.0001c2.11817 0 4.06497-.7321 5.60237-1.9565h-11.20476c1.53742 1.2244 3.48426 1.9565 5.60239 1.9565z"/><path d="m1.32146 13.695h15.35804c.4423-.7217.7853-1.5106 1.011-2.3478h-17.379953c.225598.8372.568617 1.6261 1.010913 2.3478z"/></g><path d="m9 9c0-4.97053 0-5.55652 0-9-4.97053 0-9 4.02947-9 9z" fill="#0052b4"/><path d="m5.98574 7.70315c-1.22913 0-2.22553-.99643-2.22553-2.22553s.99643-2.22553 2.22553-2.22553c.38324 0 .74384.09692 1.05866.2675-.49387-.48294-1.1693-.78106-1.91464-.78106-1.51274 0-2.73914 1.22635-2.73914 2.73912 0 1.51278 1.2264 2.73913 2.73914 2.73913.74534 0 1.42077-.29812 1.91464-.78106-.31482.1705-.67539.26743-1.05866.26743z" fill="#ffda44"/><path d="m6.61333 3.91296.39512.82625.8923-.20616-.39959.82403.71761.56907-.89346.20141.0025.91586-.71448-.57298-.71452.57298.00246-.91586-.89346-.20141.71761-.56907-.39962-.82403.89237.20616z" fill="#ffda44"/></g></svg>