<svg fill="none" height="18" viewBox="0 0 18 18" width="18" xmlns="http://www.w3.org/2000/svg" xmlns:xlink="http://www.w3.org/1999/xlink"><clipPath id="a"><path d="m0 0h18v18h-18z"/></clipPath><g clip-path="url(#a)"><path d="m9 18c4.9706 0 9-4.0294 9-9 0-4.97056-4.0294-9-9-9-4.97056 0-9 4.02944-9 9 0 4.9706 4.02944 9 9 9z" fill="#f0f0f0"/><path d="m4.86402 12.522-2.22828 2.8419c1.62858 1.6288 3.87833 2.6363 6.36367 2.6363 3.72059 0 6.91329-2.258 8.28389-5.4782z" fill="#ffda44"/><path d="m17.2973 5.51134c-1.363-3.23758-4.5647-5.51085172-8.29789-5.51085172-2.48534 0-4.73509 1.00754172-6.36367 2.63633172l2.25387 2.87452z" fill="#496e2d"/><path d="m1.95605 6.61938v4.72822h15.73345c.2019-.7485.31-1.53543.31-2.34778 0-.82414-.111-1.62218-.3185-2.38044z" fill="#000"/><path d="m2.63603 2.63574c-3.514708 3.51471-3.514708 9.21326 0 12.72796 1.45241-1.4524 2.84928-2.8493 6.36399-6.36397z" fill="#a2001d"/><path d="m3.64246 6.6521.58272 1.79353h1.88599l-1.52571 1.10855.58268 1.79362-1.52568-1.1085-1.52574 1.1085.58282-1.79362-1.52571-1.10855h1.88585z" fill="#ffda44"/><path d="m5.3485 8.99939h-3.411v1.56521h3.411z" fill="#f0f0f0"/><path d="m5.99415 7.20553-.5534-.55343-1.79817 1.79817-1.79817-1.79817-.55339.55343 1.79975 1.79655-1.79975 1.79982.55339.5459 1.79817-1.79496 1.79817 1.79496.5534-.5459-1.79976-1.79982z" fill="#000"/></g></svg>