<svg fill="none" height="18" viewBox="0 0 18 18" width="18" xmlns="http://www.w3.org/2000/svg" xmlns:xlink="http://www.w3.org/1999/xlink"><clipPath id="a"><path d="m0 0h18v18h-18z"/></clipPath><g clip-path="url(#a)"><path d="m9 18c4.9706 0 9-4.0294 9-9 0-4.97056-4.0294-9-9-9-4.97056 0-9 4.02944-9 9 0 4.9706 4.02944 9 9 9z" fill="#f0f0f0"/><path d="m2.63564 15.3637c.37754.3775.78036.7142 1.2029 1.0106l12.53566-12.53564c-.2964-.42254-.6331-.82536-1.0107-1.2029-.3775-.37754-.7804-.7142-1.2029-1.01064l-12.5356 12.53568c.2964.4225.63309.8253 1.01064 1.2029z" fill="#a2001d"/><path d="m2.63669 2.63624c-2.839362 2.83936-3.384425 7.10353-1.63635 10.49056l12.12686-12.126842c-3.38702-1.748074-7.65122-1.202942-10.49051 1.636282z" fill="#0052b4"/><path d="m15.3636 15.3636c2.8393-2.8393 3.3843-7.10349 1.6363-10.49055l-12.12685 12.12685c3.38699 1.7481 7.65115 1.203 10.49055-1.6363z" fill="#496e2d"/><path d="m7.43517 5.08637-1.00849.47436.53705.97671-1.09509-.20946-.13879 1.10619-.76275-.81362-.76279.81362-.13872-1.10619-1.09512.20943.53701-.97672-1.00846-.47432 1.0085-.4744-.53705-.97664 1.09508.20946.1388-1.10626.76275.81365.76278-.81365.13876 1.10626 1.09509-.20946-.53698.97667z" fill="#ffda44"/></g></svg>