<svg fill="none" height="18" viewBox="0 0 18 18" width="18" xmlns="http://www.w3.org/2000/svg" xmlns:xlink="http://www.w3.org/1999/xlink"><clipPath id="a"><path d="m0 0h18v18h-18z"/></clipPath><g clip-path="url(#a)"><path d="m.893039 5.08657c-.572133 1.18322-.893039 2.51061-.893039 3.91303 0 1.4024.320906 2.7298.893039 3.913l8.106961.7826 8.107-.7826c.5721-1.1832.893-2.5106.893-3.913 0-1.40242-.3209-2.72981-.893-3.91303l-8.107-.78261z" fill="#f0f0f0"/><path d="m.892578 12.9137c1.455682 3.0105 4.538492 5.087 8.106642 5.087 3.56818 0 6.65098-2.0765 8.10668-5.087z" fill="#6da544"/><g fill="#ff9811"><path d="m.892578 5.08685h16.213322c-1.4557-3.01047-4.5386-5.08697207-8.10668-5.08697207-3.56811 0-6.65096 2.07650207-8.106642 5.08697207z"/><path d="m8.99956 12.1307c1.72884 0 3.13044-1.4015 3.13044-3.13041 0-1.72888-1.4016-3.13042-3.13044-3.13042-1.72888 0-3.13042 1.40154-3.13042 3.13042 0 1.72891 1.40154 3.13041 3.13042 3.13041z"/></g></g></svg>