<svg fill="none" height="18" viewBox="0 0 18 18" width="18" xmlns="http://www.w3.org/2000/svg" xmlns:xlink="http://www.w3.org/1999/xlink"><clipPath id="a"><path d="m0 0h18v18h-18z"/></clipPath><g clip-path="url(#a)"><path d="m12.9124.892856c-1.1832-.572133-2.5106-.89303911-3.91305-.89303911-1.40241 0-2.72981.32090611-3.91303.89303911l-.78261 8.106964.78261 8.10698c1.18322.5721 2.51062.893 3.91303.893 1.40245 0 2.72985-.3209 3.91305-.893l.7826-8.10698z" fill="#f0f0f0"/><g fill="#6da544"><path d="m5.08697.893433c-3.01047 1.455677-5.08697 4.538497-5.08697 8.106647 0 3.56812 2.0765 6.65092 5.08697 8.10662z"/><path d="m12.9121.893433v16.213267c3.0105-1.4557 5.087-4.5385 5.087-8.10662s-2.0765-6.65097-5.087-8.106647z"/><path d="m11.348 11.7387-2.34782-7.43474-2.34784 7.43474h1.76087v1.9565h1.17394v-1.9565z"/></g></g></svg>