<svg fill="none" height="18" viewBox="0 0 18 18" width="18" xmlns="http://www.w3.org/2000/svg" xmlns:xlink="http://www.w3.org/1999/xlink"><clipPath id="a"><path d="m0 0h18v18h-18z"/></clipPath><g clip-path="url(#a)"><path d="m9 18c4.9706 0 9-4.0294 9-9 0-4.97056-4.0294-9-9-9-4.97056 0-9 4.02944-9 9 0 4.9706 4.02944 9 9 9z" fill="#f0f0f0"/><path d="m9.00052-.00024414c-3.56815 0-6.65122 2.07650414-8.106965 5.08696414h16.213845c-1.4557-3.01046-4.5388-5.08696414-8.10688-5.08696414z" fill="#338af3"/><path d="m9.00052 18.0008c3.56808 0 6.65118-2.0765 8.10698-5.087h-16.213945c1.455745 3.0105 4.538815 5.087 8.106965 5.087z" fill="#338af3"/><path d="m8.99987 6.26074c-1.51277 0-2.73913 1.22636-2.73913 2.73913 0 1.51273 1.22636 2.73913 2.73913 2.73913 1.51273 0 2.73913-1.2264 2.73913-2.73913 0-1.51277-1.2264-2.73913-2.73913-2.73913zm0 4.30436c-.86442 0-1.56523-.70074-1.56523-1.56523s.70077-1.56523 1.56523-1.56523 1.56523.70074 1.56523 1.56523-.70081 1.56523-1.56523 1.56523z" fill="#ffda44"/><path d="m10.3553 9.39165-1.35553-.39128-1.35556.39128-.45183.78265h3.61472z" fill="#0052b4"/><path d="m8.99939 7.04346-.90369 1.56522.90369.39129.90369-.39129z" fill="#338af3"/><path d="m7.64453 9.39085h2.71107l-.45182-.78257h-1.80738z" fill="#6da544"/></g></svg>