<svg fill="none" height="18" viewBox="0 0 18 18" width="18" xmlns="http://www.w3.org/2000/svg" xmlns:xlink="http://www.w3.org/1999/xlink"><clipPath id="a"><path d="m0 0h18v18h-18z"/></clipPath><g clip-path="url(#a)"><path d="m9 18c4.9706 0 9-4.0294 9-9 0-4.97056-4.0294-9-9-9-4.97056 0-9 4.02944-9 9 0 4.9706 4.02944 9 9 9z" fill="#f0f0f0"/><path d="m8.99978-.00036621c-3.86969 0-7.16857 2.44237621-8.44021 5.86958621h16.88043c-1.2717-3.42721-4.5705-5.86958621-8.44022-5.86958621z" fill="#a2001d"/><path d="m8.99978 18.0003c3.86972 0 7.16852-2.4424 8.44022-5.8696h-16.88043c1.27164 3.4272 4.57052 5.8696 8.44021 5.8696z" fill="#0052b4"/></g></svg>