<svg fill="none" height="18" viewBox="0 0 18 18" width="18" xmlns="http://www.w3.org/2000/svg" xmlns:xlink="http://www.w3.org/1999/xlink"><clipPath id="a"><path d="m0 0h18v18h-18z"/></clipPath><g clip-path="url(#a)"><path d="m9 18c4.9706 0 9-4.0294 9-9 0-4.97056-4.0294-9-9-9-4.97056 0-9 4.02944-9 9 0 4.9706 4.02944 9 9 9z" fill="#f0f0f0"/><g fill="#d80027"><path d="m.310547 11.3483c.520734 1.9321 1.668413 3.6068 3.211703 4.7925v-4.7925z"/><path d="m8.21777 17.9662c.25798.0222.51887.0342.78262.0342 4.15821 0 7.65721-2.8202 8.68991-6.6521h-9.47253z"/><path d="m17.6903 6.65253c-1.0327-3.83189-4.5317-6.65216379-8.68991-6.65216379-.26375 0-.52464.01202339-.78262.03424219v6.6179216z"/><path d="m3.52225 1.86023c-1.54329 1.18582-2.690969 2.86042-3.211703 4.79257h3.211703z"/></g><path d="m17.9238 7.82573h-10.88028-.00004v-7.612168c-.83172.18443-1.62024.483363-2.34784.880378v6.73172.00004h-4.6194564c-.0500977.38429-.0761836.77607-.0761836 1.17394 0 .39786.0260859.78964.0761836 1.17386h4.6194264.00003v6.7318c.7276.397 1.51612.696 2.34784.8804v-7.6121h10.88032c.05-.38432.0762-.7761.0762-1.17396 0-.39787-.0262-.78965-.0762-1.17391z" fill="#0052b4"/></g></svg>