<svg fill="none" height="18" viewBox="0 0 18 18" width="18" xmlns="http://www.w3.org/2000/svg" xmlns:xlink="http://www.w3.org/1999/xlink"><clipPath id="a"><path d="m0 0h18v18h-18z"/></clipPath><g clip-path="url(#a)"><path d="m9 18c4.9706 0 9-4.0294 9-9 0-4.97056-4.0294-9-9-9-4.97056 0-9 4.02944-9 9 0 4.9706 4.02944 9 9 9z" fill="#f0f0f0"/><path d="m17.9469 9.9781c0-.00007 0-.00014 0-.00029l-9.86989-9.9311791c-.44526.0453867-.88095.1232231-1.30462.2311171-3.89316.991232-6.77239 8.722092-6.77239 8.722092s12.5999 8.43166 14.0374 7.45886c.2876-.1946.5633-.4054.8259-.6311l-5.84941-5.8495z" fill="#0052b4"/><path d="m15.6522 8.99959-8.75296-8.752886c-3.95708.946296-6.89924 4.505726-6.89924 8.752886 0 4.97051 4.02947 9.00001 9 9.00001 1.8854 0 3.6351-.5802 5.0811-1.5711l-7.42894-7.42891z" fill="#d80027"/><g fill="#f0f0f0"><path d="m8.55968 13.288-1.09916-.5171.58532-1.0644-1.19355.2283-.15125-1.2058-.83134.8868-.83134-.8868-.15127 1.2058-1.19352-.2284.58531 1.0645-1.09919.5171 1.09919.5169-.58531 1.0646 1.19359-.2283.15117 1.2057.83137-.8868.83134.8868.15125-1.2057 1.19351.2283-.58531-1.0645z"/><path d="m7.82615 4.99117-.79945-.37599.42571-.77425-.86812.16608-.11-.87701-.60465.64502-.60466-.64502-.11003.87701-.86812-.16608.42574.77425-.79948.37599 1.95655.39136z"/><path d="m8.21814 4.99146c0 1.29666-1.05117 2.34783-2.34784 2.34783s-2.34784-1.05117-2.34784-2.34783"/></g></g></svg>