<svg fill="none" height="18" viewBox="0 0 18 18" width="18" xmlns="http://www.w3.org/2000/svg" xmlns:xlink="http://www.w3.org/1999/xlink"><clipPath id="a"><path d="m0 0h18v18h-18z"/></clipPath><g clip-path="url(#a)"><path d="m9 18c4.9706 0 9-4.0294 9-9 0-4.97056-4.0294-9-9-9-4.97056 0-9 4.02944-9 9 0 4.9706 4.02944 9 9 9z" fill="#0052b4"/><path d="m9 18c4.9706 0 9-4.0294 9-9 0-4.97056-4.0294-9-9-9-4.97056 0-9 4.02944-9 9 0 4.9706 4.02944 9 9 9z" fill="#ffda44"/><path d="m9.00186-.00036621c-4.70686 0-8.569059 3.61339621-8.9657272 8.21738621h17.9314672c-.3967-4.60399-4.2589-8.21738621-8.96574-8.21738621z" fill="#0052b4"/><path d="m9.00088 18.0001c4.70682 0 8.56902-3.6134 8.96572-8.21739h-17.9314438c.3966678 4.60399 4.2588638 8.21739 8.9657238 8.21739z" fill="#0052b4"/><path d="m7.43521 12.1309-1.00849.4744.53701.9767-1.09508-.2095-.13877 1.1062-.76278-.8136-.76275.8136-.13876-1.1062-1.09512.2094.53705-.9766-1.0085-.4744 1.00853-.4744-.53708-.9766 1.09508.2094.13883-1.10622.76272.81362.76282-.81362.13873 1.10622 1.09511-.2094-.53701.9767z" fill="#f0f0f0"/></g></svg>