<svg fill="none" height="18" viewBox="0 0 18 18" width="18" xmlns="http://www.w3.org/2000/svg" xmlns:xlink="http://www.w3.org/1999/xlink"><clipPath id="a"><path d="m0 0h18v18h-18z"/></clipPath><g clip-path="url(#a)"><path d="m18 9c0 4.9705-4.0295 9-9 9-4.97053 0-9-4.0295-9-9 0 .00214 9-8.99901562 9-9 4.9705 0 9 4.02947 9 9z" fill="#ffda44"/><path d="m9.00053 4.30457v3.03549l-3.13041-3.03549z" fill="#0052b4"/><path d="m4.69598 9.00013h2.64413l-2.64413-3.52174-.39129 2.73913z" fill="#0052b4"/><path d="m8.97656 9.00044h.02413c0-.0081 0-.01599 0-.02412-.00803.00806-.01606.01609-.02413.02412z" fill="#f0f0f0"/><path d="m9 4.69564c0-1.58361 0-2.62125 0-4.69564h-.00152c-4.96989.00084375-8.99848 4.02993-8.99848 9h4.69564v-2.64414l2.64414 2.64414h1.63617c.00801-.00802.01603-.01603.02408-.02408 0-.60634 0-1.14736 0-1.63607l-2.64421-2.64421z" fill="#f0f0f0"/><path d="m8.99869 7.89349-3.19764-3.19757h-1.10671v.00007l4.30428 4.30425h.00007s0-.76313 0-1.10675z" fill="#d80027"/><path d="m4.55221 1.17371c-.34696.19757-.67936.41776-.99548.65812h.36928l-.97601.70924.37273 1.1474-.97601-.7091-.10385.07548c-.40525.46019-.76455.9618-1.07002 1.49822v4.44673h2.34784v-5.47818-.00007h5.47826c0-.7405 0-1.44595 0-2.34784z" fill="#d80027"/><path d="m3.84426 1.62329c-.09706.06796-.19276.13781-.28701.2095l-.60662.70924-.60329.43826-.10473.07608c-.22099.25101-.42823.5144-.62054.78908.2192.10638.46526.16618.72527.16618.9185 0 1.66304-.74454 1.66304-1.66303.00007-.26009-.0597-.50607-.16612-.72531z" fill="#0052b4"/><g fill="#ffda44"><path d="m2.24219 3.05537.10473-.07608.97601.70914-.37277-1.1474.97594-.70924h-.36935c-.47791.36348-.91832.77354-1.31456 1.22358z"/><path d="m6.2204 1.56555.19427.59783h.62859l-.50853.36953.19417.59783-.5085-.36949-.50854.36949.19414-.59783-.50854-.36953h.62863z"/><path d="m2.34732 5.47888.19427.59783h.62859l-.5085.36957.19417.59783-.50853-.36953-.50857.36953.19416-.59783-.5085-.36957h.6286z"/></g></g></svg>