<svg fill="none" height="18" viewBox="0 0 18 18" width="18" xmlns="http://www.w3.org/2000/svg" xmlns:xlink="http://www.w3.org/1999/xlink"><clipPath id="a"><path d="m0 0h18v18h-18z"/></clipPath><g clip-path="url(#a)"><path d="m18 9c0 4.9705-4.0295 9-9 9-4.97053 0-9-4.0295-9-9 0 .00214 9-8.99901562 9-9 4.9705 0 9 4.02947 9 9z" fill="#0052b4"/><path d="m8.97559 9.00032h.02413c0-.0081 0-.01599 0-.02412-.00804.00806-.01607.01609-.02413.02412z" fill="#f0f0f0"/><path d="m9 4.69564c0-1.58361 0-2.62125 0-4.69564h-.00152c-4.96986.00084375-8.99848 4.02993-8.99848 9h4.69564v-2.64414l2.64417 2.64414h1.63614c.00801-.00802.01607-.01603.02408-.02408 0-.60634 0-1.14736 0-1.63607l-2.64421-2.64421z" fill="#f0f0f0"/><g fill="#d80027"><path d="m4.55319 1.17371c-1.40762.80152-2.57783 1.97173-3.37936 3.37936v4.44673h2.34784v-5.47818-.00007h5.47826c0-.7405 0-1.44595 0-2.34784z"/><path d="m9.0006 7.89349-3.19756-3.19757s-1.10675.00007-1.10675 0v.00007l4.30428 4.30425h.00003s0-.76313 0-1.10675z"/><path d="m15.5856 6.67847.1943.59786h.6286l-.5086.3695.1943.59783-.5086-.36946-.5086.36946.1943-.59783-.5086-.3695h.6286z"/><path d="m13.3388 10.9827.2914.8968h.943l-.7629.5542.2914.8968-.7629-.5542-.7629.5542.2915-.8968-.7629-.5542h.9429z"/><path d="m13.4241 3.93884.2428.74739h.7858l-.6358.46178.2429.74735-.6357-.46192-.6357.46192.2428-.74735-.6357-.46178h.7858z"/><path d="m11.2607 6.65234.2914.89684h.9429l-.7629.5542.2915.89681-.7629-.55424-.7629.55424.2915-.89681-.7629-.5542h.9429z"/></g></g></svg>