<svg fill="none" height="18" viewBox="0 0 18 18" width="18" xmlns="http://www.w3.org/2000/svg" xmlns:xlink="http://www.w3.org/1999/xlink"><clipPath id="a"><path d="m0 0h18v18h-18z"/></clipPath><g clip-path="url(#a)"><path d="m9 18c4.9706 0 9-4.0294 9-9 0-4.97056-4.0294-9-9-9-4.97056 0-9 4.02944-9 9 0 4.9706 4.02944 9 9 9z" fill="#f0f0f0"/><path d="m0 9.00042c0 3.41138 1.89808 6.37928 4.69564 7.90568v-15.81137c-2.79756 1.52641-4.69564 4.4943-4.69564 7.90569z" fill="#d80027"/><path d="m17.4403 12.1314c.3617-.975.5597-2.0296.5597-3.13044 0-1.10088-.198-2.15546-.5597-3.13042h-16.880472c-.361793.97496-.559828 2.02954-.559828 3.13042 0 1.10084.198035 2.15544.559828 3.13044l8.440172.7826z" fill="#d80027"/><path d="m9.00072 17.9998c3.86968 0 7.16858-2.4424 8.44028-5.8696h-16.880453c1.271603 3.4272 4.570523 5.8696 8.440173 5.8696z" fill="#6da544"/><path d="m0 8.99971c0 4.15829 2.82027 7.65719 6.65216 8.68999v-17.379947c-3.83189 1.032747-6.65216 4.531707-6.65216 8.689957z" fill="#d80027"/><path d="m5.50619 3.96118-.83007-.83008-.55336.55343-.55336-.55343-.83007.83008.55339.55339-.55346.55343.83007.83008.5534-.55343.55339.55343.83007-.83008-.55339-.55343z" fill="#f0f0f0"/></g></svg>