<svg fill="none" height="18" viewBox="0 0 18 18" width="18" xmlns="http://www.w3.org/2000/svg" xmlns:xlink="http://www.w3.org/1999/xlink"><clipPath id="a"><path d="m0 0h18v18h-18z"/></clipPath><g clip-path="url(#a)"><path d="m9 18c4.9706 0 9-4.0294 9-9 0-4.97056-4.0294-9-9-9-4.97056 0-9 4.02944-9 9 0 4.9706 4.02944 9 9 9z" fill="#f0f0f0"/><path d="m0 8.99976c0 4.97054 4.02947 9.00004 9 9.00004 0-3.4227 0-9.00004 0-9.00004s-5.86958 0-9 0z" fill="#0052b4"/><path d="m9 .00061035c4.9705 0 9 4.02946965 9 8.99999965-3.4226 0-9 0-9 0s0-5.86958 0-8.99999965z" fill="#d80027"/><path d="m5.35832 3.1311.58279 1.7936h1.88588l-1.52571 1.10848.58275 1.7936-1.52571-1.10851-1.52571 1.10851.58275-1.7936-1.52571-1.10848h1.88588z" fill="#0052b4"/><path d="m12.6425 10.1736.5828 1.7936h1.8859l-1.5258 1.1085.5828 1.7936-1.5257-1.1085-1.5257 1.1085.5827-1.7936-1.5257-1.1085h1.8859z" fill="#d80027"/></g></svg>