<svg fill="none" height="18" viewBox="0 0 18 18" width="18" xmlns="http://www.w3.org/2000/svg" xmlns:xlink="http://www.w3.org/1999/xlink"><clipPath id="a"><path d="m0 0h18v18h-18z"/></clipPath><g clip-path="url(#a)"><path d="m9 18c4.9706 0 9-4.0294 9-9 0-4.97056-4.0294-9-9-9-4.97056 0-9 4.02944-9 9 0 4.9706 4.02944 9 9 9z" fill="#f0f0f0"/><g fill="#d80027"><path d="m18.0004 9.00109c0-3.86965-2.4423-7.16858-5.8695-8.440177v16.880487c3.4272-1.2717 5.8695-4.5706 5.8695-8.44031z"/><path d="m0 9.00047c0 3.86973 2.44238 7.16853 5.86958 8.44023v-16.880397c-3.4272 1.271597-5.86958 4.570527-5.86958 8.440167z"/></g></g></svg>