<svg fill="none" height="18" viewBox="0 0 18 18" width="18" xmlns="http://www.w3.org/2000/svg" xmlns:xlink="http://www.w3.org/1999/xlink"><clipPath id="a"><path d="m0 0h18v18h-18z"/></clipPath><g clip-path="url(#a)"><path d="m9 18c4.9706 0 9-4.0294 9-9 0-4.97056-4.0294-9-9-9-4.97056 0-9 4.02944-9 9 0 4.9706 4.02944 9 9 9z" fill="#f0f0f0"/><path d="m1.09473 4.69613h15.81137c-1.5264-2.79759-4.4943-4.69564172-7.90568-4.69564172-3.41139 0-6.37924 1.89805172-7.90569 4.69564172z" fill="#d80027"/><path d="m9.00042 17.9998c3.41138 0 6.37928-1.898 7.90568-4.6956h-15.81137c1.52645 2.7976 4.4943 4.6956 7.90569 4.6956z" fill="#d80027"/><path d="m12.13 8.9998c0 1.7289-1.4016 2.7391-3.13044 2.7391-1.72888 0-3.13042-1.0102-3.13042-2.7391 0-1.72891 1.40154-3.13042 3.13042-3.13042 1.72884 0 3.13044 1.40151 3.13044 3.13042z" fill="#ffda44"/><path d="m12.13 8.99976c0 1.72894-1.4016 3.13044-3.13044 3.13044-1.72888 0-3.13042-1.4015-3.13042-3.13044" fill="#0052b4"/><g fill="#d80027"><path d="m7.82558 8.21692h-.78261v1.56522h.78261z"/><path d="m10.9564 8.21692h-.7826v1.56522h.7826z"/><path d="m9.39102 7.04309h-.78262v2.73913h.78262z"/></g></g></svg>