<svg fill="none" height="18" viewBox="0 0 18 18" width="18" xmlns="http://www.w3.org/2000/svg" xmlns:xlink="http://www.w3.org/1999/xlink"><clipPath id="a"><path d="m0 0h18v18h-18z"/></clipPath><g clip-path="url(#a)"><path d="m15.364 15.3643c-3.5147 3.5147-9.21319 3.5147-12.72797 0-3.514712-3.5147-3.514712-9.21321.00003-12.72796 3.51472-3.514705 8.65984-2.961311 12.17454.55343 3.5146 3.51471 4.0681 8.65983.5534 12.17453z" fill="#000"/><path d="m2.63574 2.636c3.51472-3.514709 9.21316-3.514638 12.72796.00004 3.5147 3.51471 3.5147 9.21316 0 12.72796" fill="#a2001d"/><g fill="#f0f0f0"><path d="m6.87889 12.1305.14568.4484h.47148l-.38144.2771.14572.4484-.38144-.2771-.38145.2771.14569-.4484-.38141-.2771h.47144z"/><path d="m5.67411 7.82629.2429.74735h.78574l-.63573.46185.24282.74735-.63573-.46192-.6357.46192.24286-.74735-.63576-.46185h.78581z"/><path d="m5.67411 13.3041.24283.7473h.78581l-.6358.4618.24289.7474-.63573-.4619-.6357.4619.24279-.7474-.63569-.4618h.78571z"/><path d="m7.97193 9.78296.24289.74734h.78575l-.63574.4618.24283.7474-.63573-.4619-.6357.4619.24286-.7474-.63573-.4618h.78578z"/><path d="m3.37724 9.78296.24289.74734h.78571l-.6357.4618.24279.7474-.63569-.4619-.63574.4619.2429-.7474-.63577-.4618h.78578z"/></g><path d="m15.0657 6.6648c-.4023-.40222-.9249-.63984-1.4865-.68066l1.6812-1.30757c-.6696-.66955-1.567-.97193-2.4427-.90798-.1048-.37673-.3047-.73258-.6009-1.02884l-.6641 1.32813c-.0435-.07938-.0987-.15409-.166-.22134-.3821-.38205-1.0015-.38205-1.3835 0-.38197.38204-.38204 1.00142 0 1.38346.0673.06726.142.12242.2214.16601l-1.32812.66407c.29634.29637.65243.49637 1.02938.60113-.06416.87568.23794 1.77293.90744 2.44252l1.4689-1.88852c.1105-.10881.2564-.16889.4117-.16889.1567 0 .3041.06103.415.17195.1109.11084.1719.25825.1719.41502 0 .15679-.061.30417-.1719.41505l.5534.55343c.2586-.25868.4011-.60261.4011-.96845 0-.29932-.0955-.58387-.2717-.81914.2568.06859.4996.20296.7007.40409.6103.61027.6103 1.6033 0 2.21354l.5534.55343c.4434-.44346.6877-1.03303.6877-1.66019-.0001-.62722-.2444-1.21679-.6878-1.66025z" fill="#ffda44"/></g></svg>