<svg fill="none" height="18" viewBox="0 0 18 18" width="18" xmlns="http://www.w3.org/2000/svg" xmlns:xlink="http://www.w3.org/1999/xlink"><clipPath id="a"><path d="m0 0h18v18h-18z"/></clipPath><g clip-path="url(#a)"><path d="m9 18c4.9706 0 9-4.0294 9-9 0-4.97056-4.0294-9-9-9-4.97056 0-9 4.02944-9 9 0 4.9706 4.02944 9 9 9z" fill="#f0f0f0"/><path d="m8.99973 0v9l-6.36399 6.364c1.62869 1.6286 3.87868 2.636 6.36399 2.636 4.97057 0 8.99997-4.0295 8.99997-9 0-4.97053-8.99997-9-8.99997-9z" fill="#d80027"/><path d="m8.99973 0c-2.48531 0-4.7353 1.00737-6.36399 2.63602 2.20817 2.20816 2.99204 2.99207 6.36399 6.36398h8.99997c0-4.97053-4.0294-9-8.99997-9z" fill="#0052b4"/><g fill="#ffda44"><path d="m6.16316 8.99996-1.09912-.51701.58531-1.06449-1.19355.22834-.15124-1.20576-.83138.88678-.83134-.88678-.15127 1.20576-1.19352-.22838.58531 1.06453-1.099157.51701 1.099157.51701-.58531 1.06453 1.19362-.2283.15114 1.2057.83137-.8868.83138.8868.15124-1.2057 1.19348.2283-.58528-1.0645z"/><path d="m2.40086 3.52148.36577.51128.59923-.18981-.37329.50583.36577.51128-.59646-.19867-.37325.50579.00467-.62859-.59642-.1987.59934-.18981z"/><path d="m2.40086 12.8323.36577.5113.59923-.1899-.37329.5059.36577.5113-.59646-.1987-.37325.5058.00467-.6286-.59642-.1987.59934-.1898z"/><path d="m7.61735 8.17749-.36573.51128-.59928-.18988.37329.50586-.36576.51132.59646-.19871.37329.5058-.00471-.62856.59642-.19871-.59931-.18981z"/></g></g></svg>