<svg fill="none" height="18" viewBox="0 0 18 18" width="18" xmlns="http://www.w3.org/2000/svg" xmlns:xlink="http://www.w3.org/1999/xlink"><clipPath id="a"><path d="m0 0h18v18h-18z"/></clipPath><g clip-path="url(#a)"><path d="m9 18c4.9706 0 9-4.0294 9-9 0-4.97056-4.0294-9-9-9-4.97056 0-9 4.02944-9 9 0 4.9706 4.02944 9 9 9z" fill="#f0f0f0"/><path d="m0 9.00017c0 3.41143 1.89805 6.37923 4.69565 7.90573v-15.81142c-2.7976 1.52645-4.69565 4.49431-4.69565 7.90569z" fill="#f0f0f0"/><path d="m8.99967.00061035c-1.55918 0-3.02569.39666765-4.30436 1.09430965v15.81138c1.27867.6976 2.74518 1.0943 4.30436 1.0943 4.97053 0 9.00003-4.0295 9.00003-8.99999 0-4.97053-4.0295-8.99999965-9.00003-8.99999965z" fill="#496e2d"/><g fill="#f0f0f0"><path d="m12.8488 10.4895c-1.1386.8227-2.7286.5666-3.55128-.57195-.82273-1.13864-.56662-2.72858.57199-3.55124.35499-.2565.75389-.40813 1.15969-.46083-.7807-.11675-1.606.05917-2.29636.558-1.40133 1.01258-1.71658 2.96941-.70404 4.37082 1.01253 1.4013 2.9694 1.7166 4.3708.7039.6904-.4988 1.1166-1.227 1.2508-2.00498-.1774.36865-.4466.69978-.8016.95628z"/><path d="m12.7997 5.87036.6414.69121.8555-.39628-.4592.8235.6413.69127-.9251-.18228-.4592.82357-.1126-.93621-.9252-.18229.8556-.39628z"/></g></g></svg>