<svg fill="none" height="18" viewBox="0 0 18 18" width="18" xmlns="http://www.w3.org/2000/svg" xmlns:xlink="http://www.w3.org/1999/xlink"><clipPath id="a"><path d="m0 0h18v18h-18z"/></clipPath><g clip-path="url(#a)"><path d="m18 9c0 4.9705-4.0295 9-9 9-4.97053 0-9-4.0295-9-9 0 .00214 9-8.99901562 9-9 4.9705 0 9 4.02947 9 9z" fill="#0052b4"/><path d="m8.97559 9.00044h.02412c0-.0081 0-.01599 0-.02412-.00803.00806-.01606.01609-.02412.02412z" fill="#f0f0f0"/><path d="m9 4.69577c0-1.58362 0-2.62125 0-4.69564793h-.00152c-4.96989.00084375-8.99848 4.02992793-8.99848 8.99999793h4.69564v-2.64413l2.64414 2.64413h1.63617l.02408-.02408c0-.60634 0-1.14736 0-1.63607l-2.64421-2.6442z" fill="#f0f0f0"/><path d="m4.55319 1.17383c-1.40762.80153-2.57787 1.97174-3.37936 3.37936v4.44674h2.34784v-5.47819-.00007h5.47826c0-.7405 0-1.44594 0-2.34784z" fill="#d80027"/><path d="m9.00064 7.89361-3.19763-3.19757h-1.10672v.00008l4.30428 4.30425h.00007s0-.76314 0-1.10676z" fill="#d80027"/><path d="m14.0868 5.47788-1.1739.39132-1.174-.39132-.3912-.97826.3912-.97826h2.3479l-.3913.97826z" fill="#acabb1"/><path d="m10.1738 5.47803v4.30432c0 2.09675 2.7392 2.73915 2.7392 2.73915s2.7391-.6424 2.7391-2.73915v-4.30432z" fill="#338af3"/><path d="m10.4209 10.8017c.6733 1.2927 2.4922 1.7195 2.4922 1.7195s1.8189-.4268 2.4922-1.7195l-2.4922-4.15009z" fill="#6da544"/><path d="m15.6521 9.73886-2.7391-4.26083-2.7392 4.26086v.04346c0 .38805.094.72615.2469 1.01975l2.4923-3.87687 2.4922 3.87687c.1529-.2936.2469-.6317.2469-1.01979z" fill="#ffda44"/></g></svg>