<svg fill="none" height="18" viewBox="0 0 18 18" width="18" xmlns="http://www.w3.org/2000/svg" xmlns:xlink="http://www.w3.org/1999/xlink"><clipPath id="a"><path d="m0 0h18v18h-18z"/></clipPath><g clip-path="url(#a)"><path d="m9 18c4.9706 0 9-4.0294 9-9 0-4.97056-4.0294-9-9-9-4.97056 0-9 4.02944-9 9 0 4.9706 4.02944 9 9 9z" fill="#f0f0f0"/><g fill="#d80027"><path d="m9.00019-.00036621c-2.9444 0-5.55845 1.41408621-7.20039 3.59999621h14.4008c-1.642-2.18591-4.256-3.59999621-7.20041-3.59999621z"/><path d="m9.00019 17.9997c2.94441 0 5.55841-1.4141 7.20041-3.6h-14.4008c1.64194 2.1859 4.25599 3.6 7.20039 3.6z"/><path d="m0 8.99959c0 .61646.0621562 1.21841.180246 1.80001h17.639554c.1181-.5816.1802-1.18355.1802-1.80001 0-.61647-.0622-1.21841-.1802-1.80001h-17.639554c-.1180898.5816-.180246 1.18354-.180246 1.80001z"/></g><path d="m2.63603 2.63647c-3.514708 3.51472-3.514708 9.21323 0 12.72793 1.45241-1.4524 2.84928-2.8492 6.36399-6.36394z" fill="#0052b4"/><path d="m3.64246 6.65161.58272 1.79353h1.88599l-1.52571 1.10855.58268 1.79361-1.52568-1.1085-1.52574 1.1085.58282-1.79361-1.52571-1.10855h1.88585z" fill="#f0f0f0"/></g></svg>