<svg fill="none" height="18" viewBox="0 0 18 18" width="18" xmlns="http://www.w3.org/2000/svg" xmlns:xlink="http://www.w3.org/1999/xlink"><clipPath id="a"><path d="m0 0h18v18h-18z"/></clipPath><g clip-path="url(#a)"><path d="m9 18c4.9706 0 9-4.0294 9-9 0-4.97056-4.0294-9-9-9-4.97056 0-9 4.02944-9 9 0 4.9706 4.02944 9 9 9z" fill="#f0f0f0"/><path d="m5.47767 5.87019h11.96193c-1.2716-3.4272-4.5705-5.86957965-8.44019-5.86957965-2.48534 0-4.73509 1.00753965-6.36367 2.63632965z" fill="#000"/><path d="m5.47767 12.1301h11.96193c-1.2716 3.4272-4.5705 5.8696-8.44019 5.8696-2.48534 0-4.73509-1.0075-6.36367-2.6363z" fill="#6da544"/><path d="m2.63603 2.63623c-3.514708 3.51471-3.514708 9.21327 0 12.72797 1.45242-1.4524 2.84928-2.8493 6.36399-6.36399z" fill="#d80027"/></g></svg>