<svg fill="none" height="18" viewBox="0 0 18 18" width="18" xmlns="http://www.w3.org/2000/svg" xmlns:xlink="http://www.w3.org/1999/xlink"><clipPath id="a"><path d="m0 0h18v18h-18z"/></clipPath><g clip-path="url(#a)"><path d="m0 9.00051c0 3.86969 2.44238 7.16849 5.86951 8.44019l.78265-8.44023-.78265-8.440167c-3.42713 1.271667-5.86951 4.570527-5.86951 8.440207z" fill="#6da544"/><path d="m17.9996 9c0-4.97053-4.0294-9-8.99997-9-1.10088 0-2.15547.198035-3.13049.559793v16.880407c.97502.3618 2.02961.5598 3.13049.5598 4.97057 0 8.99997-4.0295 8.99997-9z" fill="#d80027"/><path d="m5.86968 12.1308c1.72888 0 3.13041-1.4015 3.13041-3.13039 0-1.72888-1.40153-3.13041-3.13041-3.13041-1.72889 0-3.13042 1.40153-3.13042 3.13041 0 1.72889 1.40153 3.13039 3.13042 3.13039z" fill="#ffda44"/><path d="m4.1084 7.43445v1.95652c0 .97253.78834 1.76083 1.76087 1.76083s1.76087-.7883 1.76087-1.76083v-1.95652z" fill="#d80027"/><path d="m5.87017 9.97783c-.32365 0-.58697-.26332-.58697-.58697v-.78258h1.1739v.78261c0 .32362-.26332.58694-.58693.58694z" fill="#f0f0f0"/></g></svg>