<svg fill="none" height="18" viewBox="0 0 18 18" width="18" xmlns="http://www.w3.org/2000/svg" xmlns:xlink="http://www.w3.org/1999/xlink"><clipPath id="a"><path d="m0 0h18v18h-18z"/></clipPath><g clip-path="url(#a)"><path d="m9 18c4.9706 0 9-4.0294 9-9 0-4.97056-4.0294-9-9-9-4.97056 0-9 4.02944-9 9 0 4.9706 4.02944 9 9 9z" fill="#f0f0f0"/><path d="m9.00052 0c-3.56815 0-6.65122 2.0765-8.106965 5.08697h16.213845c-1.4557-3.01047-4.5388-5.08697-8.10688-5.08697z" fill="#d80027"/><path d="m9.00052 18.0005c3.56808 0 6.65118-2.0765 8.10698-5.0869h-16.213945c1.455745 3.0104 4.538815 5.0869 8.106965 5.0869z" fill="#0052b4"/><path d="m11.2131 6.39502-.8301.83007c.3541.35406.5731.84319.5731 1.38347 0 1.08057-.876 1.95654-1.95654 1.95654-1.08053 0-1.95652-.87601-1.95652-1.95654 0-.54028.21903-1.02941.57309-1.38347l-.83008-.83007c-.56654.56644-.91691 1.34905-.91691 2.21354 0 1.72894 1.40154 3.13044 3.13042 3.13044 1.72884 0 3.13044-1.4016 3.13044-3.13044-.0001-.86449-.3504-1.6471-.9169-2.21354z" fill="#6da544"/><path d="m8.99996 7.43445.29141.89683h.94293l-.76286.55421.29141.89679-.76289-.55423-.76289.55423.29141-.89679-.76286-.55421h.94293z" fill="#ffda44"/></g></svg>