<svg fill="none" height="18" viewBox="0 0 18 18" width="18" xmlns="http://www.w3.org/2000/svg" xmlns:xlink="http://www.w3.org/1999/xlink"><clipPath id="a"><path d="m0 0h18v18h-18z"/></clipPath><g clip-path="url(#a)"><path d="m9 18c4.9706 0 9-4.0294 9-9 0-4.97056-4.0294-9-9-9-4.97056 0-9 4.02944-9 9 0 4.9706 4.02944 9 9 9z" fill="#f0f0f0"/><path d="m17.9997 9c0-4.97053-4.0294-9-8.99996-9-1.76062 0-3.40291.506074-4.79011 1.37992l1.97273.83816-2.66088 1.13055 2.66088 1.13052-2.66088 1.13049 2.66088 1.13045-2.66088 1.1303 2.66088 1.13024-2.66088 1.13047 2.66088 1.1304-2.66088 1.1303 2.66088 1.1305-2.66088 1.1304 2.66088 1.1303-1.97185.8378c1.38702.8734 3.02896 1.3792 4.78923 1.3792 4.97056 0 8.99996-4.0295 8.99996-9z" fill="#751a46"/></g></svg>