<svg fill="none" height="18" viewBox="0 0 18 18" width="18" xmlns="http://www.w3.org/2000/svg" xmlns:xlink="http://www.w3.org/1999/xlink"><clipPath id="a"><path d="m0 0h18v18h-18z"/></clipPath><g clip-path="url(#a)"><path d="m12.1313.559025c-.975-.361722-2.0295-.55975742-3.13038-.55975742-1.10088-.00003515-2.15543.19803542-3.13042.55975742l-.78261 8.440205.78261 8.44017c.97496.3619 2.0295.5599 3.13042.5599 1.10088 0 2.15538-.198 3.13038-.5599l.7826-8.44013z" fill="#ffda44"/><path d="m18.0004 8.99966c0-3.86965-2.4423-7.16861-5.8695-8.440212v16.880452c3.4272-1.2717 5.8695-4.5705 5.8695-8.44024z" fill="#d80027"/><path d="m0 8.99958c0 3.86972 2.44238 7.16862 5.86951 8.44032l.00004-16.880452c-3.42718 1.271602-5.86955 4.570452-5.86955 8.440132z" fill="#0052b4"/></g></svg>