<svg fill="none" height="18" viewBox="0 0 18 18" width="18" xmlns="http://www.w3.org/2000/svg" xmlns:xlink="http://www.w3.org/1999/xlink"><clipPath id="a"><path d="m0 0h18v18h-18z"/></clipPath><g clip-path="url(#a)"><path d="m9 18c4.9706 0 9-4.0294 9-9 0-4.97056-4.0294-9-9-9-4.97056 0-9 4.02944-9 9 0 4.9706 4.02944 9 9 9z" fill="#f0f0f0"/><path d="m9 0c-4.97053 0-9 4.02947-9 9 0 1.1009.198035 2.1555.559793 3.1304h16.880407c.3618-.9749.5598-2.0295.5598-3.1304 0-4.97053-4.0295-9-9-9z" fill="#0052b4"/><path d="m9.00075.00006104c-3.86968 0-7.16857 2.44237896-8.440203 5.86957896h16.880453c-1.2717-3.4272-4.5706-5.86957896-8.44025-5.86957896z" fill="#d80027"/><path d="m2.32812 5.08734v4.48967c0 2.55389 3.33637 3.33639 3.33637 3.33639s3.33633-.7825 3.33633-3.33639v-4.48967z" fill="#d80027"/><path d="m3.70605 5.86975h3.91307v-1.56523l-.78261.39129-1.1739-1.1739-1.17394 1.1739-.78262-.39129z" fill="#ffda44"/><path d="m8.21685 10.2019-2.54348-2.54351-2.54349 2.54351.83008.83 1.71341-1.71336 1.71341 1.71336z" fill="#ffda44"/><path d="m8.21783 7.82557h-1.18674c.06673-.11518.10554-.24856.10554-.39122 0-.43228-.3504-.78262-.78261-.78262-.29865 0-.558.16728-.68994.41319-.13194-.24588-.39129-.41319-.68994-.41319-.43221 0-.78262.35034-.78262.78262 0 .14266.03882.27608.10554.39122h-1.1662c0 .43224.37649.78261.80866.78261h-.02605c0 .43224.35037.78261.78262.78261 0 .38271.27485.70071.63784.76871l-.61665 1.3923c.29553.1201.61847.1868.9571.1868.33862 0 .66157-.0667.95709-.1868l-.61664-1.3923c.36299-.068.63784-.38596.63784-.76871.43225 0 .78261-.35037.78261-.78261h-.02605c.43214 0 .8086-.3504.8086-.78261z" fill="#f0f0f0"/></g></svg>