<svg fill="none" height="18" viewBox="0 0 18 18" width="18" xmlns="http://www.w3.org/2000/svg" xmlns:xlink="http://www.w3.org/1999/xlink"><clipPath id="a"><path d="m0 0h18v18h-18z"/></clipPath><g clip-path="url(#a)"><path d="m9 18c4.9706 0 9-4.0294 9-9 0-4.97056-4.0294-9-9-9-4.97056 0-9 4.02944-9 9 0 4.9706 4.02944 9 9 9z" fill="#f0f0f0"/><path d="m17.4402 12.13c.3618-.975.5598-2.0296.5598-3.13044 0-1.10088-.198-2.15543-.5598-3.13042h-16.880407c-.361758.97499-.559793 2.02954-.559793 3.13042 0 1.10084.198035 2.15544.559793 3.13044l8.440207.7826z" fill="#0052b4"/><path d="m9.00075 17.9996c3.86965 0 7.16855-2.4424 8.44025-5.8696h-16.880453c1.271633 3.4272 4.570523 5.8696 8.440203 5.8696z" fill="#d80027"/></g></svg>