<svg fill="none" height="18" viewBox="0 0 18 18" width="18" xmlns="http://www.w3.org/2000/svg" xmlns:xlink="http://www.w3.org/1999/xlink"><clipPath id="a"><path d="m0 0h18v18h-18z"/></clipPath><g clip-path="url(#a)"><path d="m0 8.99929c0 1.55921.396668 3.02571 1.09431 4.30431l7.90569.7827 7.9057-.7827c.6976-1.2786 1.0943-2.7451 1.0943-4.30431l-9-.78262z" fill="#ffda44"/><path d="m16.9057 4.69564c-1.5265-2.79759-4.4943-4.69564-7.9057-4.69564-3.41139 0-6.37924 1.89805-7.90569 4.69564-.697642 1.27867-1.09431 2.74518-1.09431 4.30436h18c0-1.55918-.3967-3.02569-1.0943-4.30436z" fill="#338af3"/><path d="m8.99944 17.9994c3.41136 0 6.37926-1.8981 7.90566-4.6957h-15.81135c1.52645 2.7976 4.4943 4.6957 7.90569 4.6957z" fill="#496e2d"/><path d="m10.1738 5.26689 1.0992.51704-.5853 1.06453 1.1936-.2283.1512 1.20568.8313-.88678.8314.88678.1512-1.20568 1.1935.22823-.5852-1.06449 1.0991-.51701-1.0992-.51697.5853-1.06453-1.1935.2283-.1513-1.20568-.8313.88678-.8313-.88678-.1512 1.20568-1.1936-.2283.5853 1.06456z" fill="#ffda44"/></g></svg>