<svg fill="none" height="18" viewBox="0 0 18 18" width="18" xmlns="http://www.w3.org/2000/svg" xmlns:xlink="http://www.w3.org/1999/xlink"><clipPath id="a"><path d="m0 0h18v18h-18z"/></clipPath><g clip-path="url(#a)"><path d="m9 18c4.9706 0 9-4.0294 9-9 0-4.97056-4.0294-9-9-9-4.97056 0-9 4.02944-9 9 0 4.9706 4.02944 9 9 9z" fill="#6da544"/><g fill="#f0f0f0"><path d="m5.08691 10.7607c0 .6484.52559 1.1739 1.17391 1.1739h3.52174c0 .5403.43794.9783.97824.9783h1.1739c.5403 0 .9783-.438.9783-.9783v-1.1739z"/><path d="m13.0092 5.08728v2.73912c0 .43155-.3511.78262-.7826.78262v1.1739c1.0788 0 1.9565-.87771 1.9565-1.95652v-2.73912z"/><path d="m4.59707 7.82622c0 .43154-.35107.78261-.78262.78261v1.1739c1.07884 0 1.95652-.87771 1.95652-1.95651v-2.73912h-1.1739z"/><path d="m12.4229 5.08728h-1.1739v2.73913h1.1739z"/><path d="m9.48882 6.65251c0 .10789-.08778.19564-.19564.19564s-.19565-.08779-.19565-.19564v-1.56523h-1.1739v1.56523c0 .10789-.08779.19564-.19565.19564s-.19564-.08779-.19564-.19564v-1.56523h-1.17394v1.56523c0 .75519.61439 1.36958 1.36958 1.36958.29085 0 .56057-.09141.78262-.24666.22201.15522.49176.24666.78261.24666.05857 0 .11616-.00412.1728-.01132-.08318.34274-.39186.59825-.75977.59825v1.1739c1.07884 0 1.95656-.87771 1.95656-1.95651v-1.1739-1.56523h-1.17394v1.56523z"/><path d="m8.11927 8.60858h-1.76087v1.1739h1.76087z"/></g></g></svg>