<svg fill="none" height="18" viewBox="0 0 18 18" width="18" xmlns="http://www.w3.org/2000/svg" xmlns:xlink="http://www.w3.org/1999/xlink"><clipPath id="a"><path d="m0 0h18v18h-18z"/></clipPath><g clip-path="url(#a)"><path d="m15.365 15.3638c3.3754-3.3754 3.5087-8.76432.4012-12.29959l-6.76542 5.93531-5.93535 6.76548c3.53527 3.1074 8.92417 2.9742 12.29957-.4012z" fill="#496e2d"/><path d="m2.63578 2.6358c3.37538-3.37538 8.76432-3.508657 12.29962-.40124l-5.93543 6.76553-6.76539 5.93531c-3.107455-3.5353-2.974142-8.92422.4012-12.2996z" fill="#0052b4"/><path d="m14.9351 2.23511-12.70072 12.70079c.12839.1461.2617.2894.40123.4288.1395.1395.28283.2729.42894.4013l12.70075-12.70078c-.1284-.14611-.2618-.28941-.4013-.42895-.1394-.13942-.2828-.27277-.4289-.40116z" fill="#ffda44"/><g fill="#f0f0f0"><path d="m3.79263 3.13098.19431.5979h.62862l-.50857.36946.19424.5979-.5086-.36953-.50861.36953.19431-.5979-.5086-.36946h.62866z"/><path d="m7.00357 3.13025.19431.5979h.62859l-.50857.36946.19427.5979-.5086-.36953-.50861.36953.19431-.5979-.50861-.36946h.62863z"/><path d="m3.79263 6.26086.19431.59791h.62862l-.50857.36949.19424.5979-.5086-.36953-.50861.36953.19431-.5979-.5086-.36949h.62866z"/><path d="m7.00357 6.26086.19431.59791h.62859l-.50857.36949.19427.5979-.5086-.36953-.50861.36953.19431-.5979-.50861-.36949h.62863z"/><path d="m5.39813 4.69629.19431.5979h.62859l-.50857.36949.19428.5979-.50861-.36953-.5086.36953.19427-.5979-.5086-.36949h.62866z"/></g></g></svg>