<svg fill="none" height="18" viewBox="0 0 18 18" width="18" xmlns="http://www.w3.org/2000/svg" xmlns:xlink="http://www.w3.org/1999/xlink"><clipPath id="a"><path d="m0 0h18v18h-18z"/></clipPath><g clip-path="url(#a)"><path d="m9 18c4.9706 0 9-4.0294 9-9 0-4.97056-4.0294-9-9-9-4.97056 0-9 4.02944-9 9 0 4.9706 4.02944 9 9 9z" fill="#f0f0f0"/><path d="m15.0757 2.3598c-1.601-1.465738-3.7337-2.36028828-6.07534-2.36028828-.38335 0-.7611.02415238-1.13186.07066408l-4.3464 5.0163042-3.236944 6.16762c.20911.8108.528821 1.577.941314 2.2823l7.77389-4.53689z" fill="#ffda44"/><path d="m16.4922 13.986-12.59181 2.43c1.44946.9984 3.20579 1.5835 5.09896 1.5835 3.12615 0 5.87955-1.5941 7.49285-4.0135z" fill="#6da544"/><path d="m15.0768 2.36108-13.84535 11.18412c.36214.6176.79572 1.1882 1.28956 1.7004l15.47919-6.246c0-2.62824-1.1268-4.99313-2.9234-6.63852z" fill="#d80027"/><path d="m0 9.00001c0 .77861.0989297 1.53409.284801 2.25459l7.583349-11.1839213c-4.43627.5566643-7.86815 4.3421513-7.86815 8.9293313z" fill="#0052b4"/></g></svg>