<svg fill="none" height="18" viewBox="0 0 18 18" width="18" xmlns="http://www.w3.org/2000/svg" xmlns:xlink="http://www.w3.org/1999/xlink"><clipPath id="a"><path d="m0 0h18v18h-18z"/></clipPath><g clip-path="url(#a)"><path d="m9 18c4.9706 0 9-4.0294 9-9 0-4.97056-4.0294-9-9-9-4.97056 0-9 4.02944-9 9 0 4.9706 4.02944 9 9 9z" fill="#ffda44"/><g fill="#0052b4"><path d="m7.043 7.82628h10.8803c-.5753-4.41587-4.3511-7.82609689-8.92382-7.82609689-.67197 0-1.32655.07428519-1.95651.21392589v7.612171z"/><path d="m4.69564 7.82618v-6.73176c-2.47128 1.34838-4.240378 3.82166-4.6194681 6.73179h4.6194681z"/><path d="m4.6956 10.1743h-4.6194281c.3790901 2.9101 2.1481881 5.3834 4.6194681 6.7317z"/><path d="m7.04297 10.1743v7.6121c.62996.1397 1.28454.214 1.95651.214 4.57272 0 8.34852-3.4103 8.92382-7.8261z"/></g></g></svg>