<svg fill="none" height="18" viewBox="0 0 18 18" width="18" xmlns="http://www.w3.org/2000/svg" xmlns:xlink="http://www.w3.org/1999/xlink"><clipPath id="a"><path d="m0 0h18v18h-18z"/></clipPath><g clip-path="url(#a)"><path d="m9 18c4.9706 0 9-4.0294 9-9 0-4.97056-4.0294-9-9-9-4.97056 0-9 4.02944-9 9 0 4.9706 4.02944 9 9 9z" fill="#f0f0f0"/><path d="m0 9.00003c0-4.97056 4.02947-9.00003 9-9.00003 4.9705 0 9 4.02947 9 9.00003" fill="#d80027"/><g fill="#f0f0f0"><path d="m5.47765 4.69576c0-1.31126.92155-2.40666 2.15216-2.67543-.18914-.04127-.38535-.06366-.58697-.06366-1.51281 0-2.73913 1.22632-2.73913 2.73912 0 1.51281 1.22632 2.73913 2.73913 2.73913.20155 0 .39779-.02239.58697-.0637-1.23061-.26877-2.15216-1.36417-2.15216-2.67546z"/><path d="m8.99963 2.15247.19427.59783h.62863l-.50861.36953.19428.59783-.50857-.36946-.50857.36946.19427-.59783-.50857-.36953h.62859z"/><path d="m7.47528 3.32605.19424.59787h.62863l-.50857.36949.19427.59783-.50857-.36946-.50864.36946.19431-.59783-.50861-.36949h.62863z"/><path d="m10.524 3.32605.1944.59787h.6285l-.5086.36949.1943.59783-.5086-.36946-.5085.36946.1942-.59783-.50853-.36949h.62863z"/><path d="m9.9381 5.08765.1943.59786h.6286l-.5086.3695.1943.59783-.5086-.36946-.50857.36946.19427-.59783-.50857-.3695h.62856z"/><path d="m8.06118 5.08765.19424.59786h.62866l-.5086.3695.19431.59783-.50861-.36946-.5086.36946.19427-.59783-.50857-.3695h.62863z"/></g></g></svg>