<svg fill="none" height="18" viewBox="0 0 18 18" width="18" xmlns="http://www.w3.org/2000/svg" xmlns:xlink="http://www.w3.org/1999/xlink"><clipPath id="a"><path d="m0 0h18v18h-18z"/></clipPath><g clip-path="url(#a)"><path d="m9 18c4.9706 0 9-4.0294 9-9 0-4.97056-4.0294-9-9-9-4.97056 0-9 4.02944-9 9 0 4.9706 4.02944 9 9 9z" fill="#f0f0f0"/><path d="m17.4402 5.86981h-9.6141v-2.34784h-4.69568v2.34784h-2.570627c-.361758.97495-.559793 2.02953-.559793 3.13042 0 1.10087.198035 2.15547.559793 3.13037l8.440207.7827 8.4402-.7827c.3618-.9749.5598-2.0295.5598-3.13037 0-1.10089-.198-2.15547-.5598-3.13042z" fill="#0052b4"/><path d="m8.99978 17.9997c3.86972 0 7.16852-2.4424 8.44022-5.8696h-16.88043c1.27164 3.4272 4.57052 5.8696 8.44021 5.8696z" fill="#d80027"/><path d="m3.13086 5.8698v.78258c0 1.79723 2.34784 2.34788 2.34784 2.34788s2.34784-.55065 2.34784-2.34788v-.78258l-.78261.78262-1.56523-1.1739-1.56523 1.1739z" fill="#f0f0f0"/></g></svg>