<svg fill="none" height="18" viewBox="0 0 18 18" width="18" xmlns="http://www.w3.org/2000/svg" xmlns:xlink="http://www.w3.org/1999/xlink"><clipPath id="a"><path d="m0 0h18v18h-18z"/></clipPath><g clip-path="url(#a)"><path d="m9 18c4.9706 0 9-4.0294 9-9 0-4.97056-4.0294-9-9-9-4.97056 0-9 4.02944-9 9 0 4.9706 4.02944 9 9 9z" fill="#f0f0f0"/><path d="m9 17.9997c4.9705 0 9-4.0295 9-9.00002 0-1.10088-.198-2.15546-.5598-3.13042h-16.880407c-.361758.97496-.559793 2.02954-.559793 3.13042 0 4.97052 4.02947 9.00002 9 9.00002z" fill="#0052b4"/><path d="m8.99978 17.9997c3.86972 0 7.16852-2.4424 8.44022-5.8696h-16.88043c1.27164 3.4272 4.57052 5.8696 8.44021 5.8696z" fill="#d80027"/><path d="m2.32715 5.08643v4.48966c0 2.55391 3.33636 3.33641 3.33636 3.33641s3.33633-.7825 3.33633-3.33641v-4.48966z" fill="#f0f0f0"/><path d="m3.10938 5.08643v4.48966c0 .29981.06658.58301.19849.84841h4.71048c.1319-.2654.19849-.5486.19849-.84841v-4.48966z" fill="#d80027"/><path d="m7.22905 8.21707h-1.17387v-.78262h.78262v-.78261h-.78262v-.78258h-.78261v.78258h-.78258v.78261h.78258v.78262h-1.17394v.78261h1.17394v.78261h.78261v-.78261h1.17387z" fill="#f0f0f0"/><path d="m4.37604 11.5179c.50432.317 1.02245.501 1.28771.5828.26525-.0818.78338-.2658 1.2877-.5828.50857-.3196.86509-.6852 1.06752-1.0924-.22328-.158-.4957-.2512-.79-.2512-.10715 0-.21125.0127-.31134.036-.2121-.48189-.69356-.81858-1.25385-.81858-.56028 0-1.04178.33669-1.25385.81858-.10009-.0233-.20422-.036-.31134-.036-.29429 0-.56672.0932-.79.2512.20233.4072.55885.7728 1.06745 1.0924z" fill="#0052b4"/></g></svg>