<svg fill="none" height="18" viewBox="0 0 18 18" width="18" xmlns="http://www.w3.org/2000/svg" xmlns:xlink="http://www.w3.org/1999/xlink"><clipPath id="a"><path d="m0 0h18v18h-18z"/></clipPath><g clip-path="url(#a)"><path d="m17.4402 12.1307c.3618-.975.5598-2.0295.5598-3.13039 0-1.10088-.198-2.15543-.5598-3.13042l-8.4402-.78261-8.440207.78261c-.361793.97499-.559793 2.02954-.559793 3.13042 0 1.10089.198 2.15539.559793 3.13039l8.440207.7826z" fill="#f0f0f0"/><path d="m8.99981 18.0004c3.86969 0 7.16859-2.4423 8.44019-5.8695h-16.88043c1.27167 3.4272 4.57052 5.8695 8.44024 5.8695z" fill="#338af3"/><path d="m8.99981.00012207c-3.86972 0-7.16857 2.44237793-8.44024 5.86957793h16.88043c-1.2716-3.4272-4.5705-5.86957793-8.44019-5.86957793z" fill="#6da544"/></g></svg>