<svg fill="none" height="18" viewBox="0 0 18 18" width="18" xmlns="http://www.w3.org/2000/svg" xmlns:xlink="http://www.w3.org/1999/xlink"><clipPath id="a"><path d="m0 0h18v18h-18z"/></clipPath><g clip-path="url(#a)"><path d="m18 8.99977c0 4.97053-4.0295 9.00003-9 9.00003-4.97053 0-9-4.0295-9-9.00003.391289 0 9-1.1739 9-1.1739z" fill="#338af3"/><path d="m0 9c0-4.97053 4.02947-9 9-9 4.9705 0 9 4.02947 9 9" fill="#f0f0f0"/><path d="m12.5721 6.21069-3.57247 3.57248-3.57243-3.57248c-.46199.6858-.73189 1.51123-.73189 2.39854v1.1739c0 1.88497 1.21799 3.49067 2.9082 4.07177-.2256.4422-.18756.9939.14301 1.4065.43903-.3519.89357-.7161 1.27916-1.0251.38559.309.84016.6733 1.27912 1.0251.3345-.4174.3698-.9774.1353-1.4221 1.6671-.5938 2.8638-2.1878 2.8638-4.05617v-1.17387c.0001-.88734-.2698-1.71274-.7318-2.39857z" fill="#6da544"/><path d="m8.99956 12.9131c-1.72614 0-3.13042-1.4043-3.13042-3.13039v-1.1739c0-1.72614 1.40432-3.13042 3.13042-3.13042 1.72614 0 3.13044 1.40432 3.13044 3.13042v1.1739c0 1.72609-1.4043 3.13039-3.13044 3.13039z" fill="#ffda44"/><path d="m10.957 9.78251v-1.1739c0-1.07884-.8777-1.95651-1.95654-1.95651-1.07881 0-1.95651.87771-1.95651 1.95651v1.1739l1.95651.39129z" fill="#338af3"/><path d="m7.04395 9.78241c0 1.07879.8777 1.95649 1.95651 1.95649 1.07884 0 1.95654-.8777 1.95654-1.95649z" fill="#6da544"/><path d="m11.348 5.47796c0-.64832-.5256-1.1739-1.1739-1.1739-.30077 0-.57489.1132-.78263.29914v-.69047h.39129v-.78261h-.39129v-.39129h-.78261v.39129h-.39129v.78261h.39129v.69047c-.20774-.18594-.48189-.29914-.78261-.29914-.64832 0-1.17391.52558-1.17391 1.1739 0 .34759.15121.65978.39129.87476v.69047h3.91307v-.69047c.2401-.21498.3913-.52717.3913-.87476z" fill="#ffda44"/></g></svg>