<svg fill="none" height="18" viewBox="0 0 18 18" width="18" xmlns="http://www.w3.org/2000/svg" xmlns:xlink="http://www.w3.org/1999/xlink"><clipPath id="a"><path d="m0 0h18v18h-18z"/></clipPath><g clip-path="url(#a)"><path d="m12.9134.893161c-1.1833-.572133-2.5107-.89303893-3.91307-.89303893-1.40238 0-2.72981.32090593-3.91303.89303893l-.78261 8.106959.78261 8.10698c1.18322.5721 2.51065.893 3.91303.893 1.40237 0 2.72977-.3209 3.91307-.893l.7826-8.10698z" fill="#ffda44"/><path d="m9.00045 5.86951.77696 2.39133h2.51469l-2.0343 1.47807.777 2.39139-2.03435-1.4779-2.03431 1.4779.77713-2.39139-2.03429-1.47807h2.51449z" fill="#496e2d"/><path d="m5.08697.893066c-3.01043 1.455714-5.08697 4.538534-5.08697 8.106644 0 3.56809 2.07654 6.65089 5.08697 8.10669z" fill="#496e2d"/><path d="m12.9131.893555v16.213245c3.0104-1.4557 5.087-4.5385 5.087-8.1066 0-3.56811-2.0766-6.65093-5.087-8.106645z" fill="#d80027"/></g></svg>