<svg fill="none" height="18" viewBox="0 0 18 18" width="18" xmlns="http://www.w3.org/2000/svg" xmlns:xlink="http://www.w3.org/1999/xlink"><clipPath id="a"><path d="m0 0h18v18h-18z"/></clipPath><g clip-path="url(#a)"><path d="m9 18c4.9706 0 9-4.0294 9-9 0-4.97056-4.0294-9-9-9-4.97056 0-9 4.02944-9 9 0 4.9706 4.02944 9 9 9z" fill="#f0f0f0"/><path d="m17.4402 5.87012h-16.880442c-.361723.97502-.559758 2.02953-.559758 3.13042 0 1.10086.198035 2.15546.559758 3.13046h16.880442c.3618-.975.5598-2.0296.5598-3.13046 0-1.10089-.198-2.1554-.5598-3.13042z" fill="#a2001d"/><path d="m9.02541 18.0009c3.08259 0 5.80279-1.5501 7.42489-3.913h-14.84971c1.62204 2.3629 4.34221 3.913 7.42482 3.913z" fill="#6da544"/><path d="m9.02541.00024414c3.08259 0 5.80279 1.55010586 7.42489 3.91303586h-14.84971c1.62204-2.36293 4.34221-3.91303586 7.42482-3.91303586z" fill="#6da544"/><path d="m8.99955 5.87012.77699 2.39133h2.51456l-2.0343 1.4781.7771 2.39145-2.03435-1.478-2.03432 1.478.77709-2.39145-2.03431-1.4781h2.51455z" fill="#ffda44"/></g></svg>