<svg fill="none" height="18" viewBox="0 0 18 18" width="18" xmlns="http://www.w3.org/2000/svg" xmlns:xlink="http://www.w3.org/1999/xlink"><clipPath id="a"><path d="m0 0h18v18h-18z"/></clipPath><g clip-path="url(#a)"><path d="m9 18c4.9706 0 9-4.0294 9-9 0-4.97056-4.0294-9-9-9-4.97056 0-9 4.02944-9 9 0 4.9706 4.02944 9 9 9z" fill="#f0f0f0"/><path d="m17.2973 5.51024c-1.363-3.23758-4.5647-5.51085035-8.29789-5.51085035-2.48534 0-4.73509 1.00754035-6.36367 2.63633035l2.25387 2.87452z" fill="#000"/><path d="m4.91517 12.4557-2.27943 2.9071c1.62858 1.6288 3.87833 2.6363 6.36367 2.6363 3.74579 0 6.95669-2.2884 8.31179-5.5434z" fill="#496e2d"/><path d="m1.95605 6.61951v4.72819h15.73345c.2019-.7485.31-1.53541.31-2.34777 0-.82413-.111-1.62217-.3185-2.38042z" fill="#a2001d"/><path d="m2.63603 2.63599c-3.514708 3.51471-3.514708 9.21321 0 12.72801 1.45242-1.4525 2.84928-2.8493 6.36399-6.36403z" fill="#0052b4"/><path d="m2.93167 6.76233 1.09846 1.53285 1.79747-.57112-1.11836 1.51851 1.09846 1.53293-1.78974-.5944-1.11839 1.5185.01231-1.88592-1.78981-.59445 1.79733-.57108z" fill="#ffda44"/></g></svg>