<svg fill="none" height="18" viewBox="0 0 18 18" width="18" xmlns="http://www.w3.org/2000/svg" xmlns:xlink="http://www.w3.org/1999/xlink"><clipPath id="a"><path d="m0 0h18v18h-18z"/></clipPath><g clip-path="url(#a)"><path d="m9 18c4.9706 0 9-4.0294 9-9 0-4.97056-4.0294-9-9-9-4.97056 0-9 4.02944-9 9 0 4.9706 4.02944 9 9 9z" fill="#ffda44"/><path d="m5.47962 5.8697h11.96188c-1.2716-3.4272-4.5705-5.86957793-8.44014-5.86957793-2.48533 0-4.73509 1.00753793-6.36366 2.63632793z" fill="#6da544"/><path d="m5.47864 12.1309h11.96196c-1.2716 3.4272-4.5706 5.8696-8.44021 5.8696-2.48534 0-4.73509-1.0075-6.36367-2.6363z" fill="#6da544"/><path d="m2.63603 2.63538c-3.514708 3.51471-3.514708 9.21322 0 12.72792 1.45242-1.4524 2.84928-2.8492 6.36399-6.36394z" fill="#d80027"/><g fill="#000"><path d="m11.429 7.43457.3885 1.19573h1.2572l-1.0171.73899.3885 1.19571-1.0171-.739-1.0172.739.3885-1.19571-1.0171-.73899h1.2573z"/><path d="m15.3421 7.43457.3885 1.19573h1.2572l-1.0171.73899.3885 1.19571-1.0171-.739-1.0172.739.3885-1.19571-1.0171-.73899h1.2572z"/></g></g></svg>