<svg fill="none" height="18" viewBox="0 0 18 18" width="18" xmlns="http://www.w3.org/2000/svg" xmlns:xlink="http://www.w3.org/1999/xlink"><clipPath id="a"><path d="m0 0h18v18h-18z"/></clipPath><g clip-path="url(#a)"><path d="m9 18c4.9706 0 9-4.0294 9-9 0-4.97056-4.0294-9-9-9-4.97056 0-9 4.02944-9 9 0 4.9706 4.02944 9 9 9z" fill="#f0f0f0"/><path d="m8.99954-.00073242c-3.56815 0-6.65121 2.07650242-8.106962 5.08697242h16.213922c-1.4557-3.01047-4.5388-5.08697242-8.10696-5.08697242z" fill="#0052b4"/><path d="m8.99954 17.9991c3.56816 0 6.65116-2.0765 8.10696-5.0869h-16.213922c1.455752 3.0104 4.538812 5.0869 8.106962 5.0869z" fill="#0052b4"/><path d="m7.19238 9.39183 1.80739-3.13042 1.80733 3.13042z" fill="#ffda44"/><path d="m11.348 10.4247-2.34782 1.1739-2.34784-1.1739v-1.5652h4.69566z" fill="#6da544"/><path d="m11.2131 6.39545-.8301.83007c.3541.35406.5731.84319.5731 1.38347 0 1.08057-.876 1.95651-1.95654 1.95651-1.08053 0-1.95652-.87598-1.95652-1.95651 0-.54028.21903-1.02941.57309-1.38347l-.83008-.83007c-.56654.56643-.91691 1.34905-.91691 2.21354 0 1.72891 1.40154 3.13041 3.13042 3.13041 1.72884 0 3.13044-1.4015 3.13044-3.13041-.0001-.86449-.3504-1.64711-.9169-2.21354z" fill="#ffda44"/></g></svg>