<svg fill="none" height="18" viewBox="0 0 18 18" width="18" xmlns="http://www.w3.org/2000/svg" xmlns:xlink="http://www.w3.org/1999/xlink"><clipPath id="a"><path d="m0 0h18v18h-18z"/></clipPath><g clip-path="url(#a)"><path d="m8.21711 9.782s-5.57609-7.14782-5.58137-7.14656c1.62865-1.62868 3.87868-2.63605035 6.36399-2.63605035 4.97057 0 8.99997 4.02947035 8.99997 9.00000035z" fill="#d80027"/><path d="m8.21711 8.99963s-5.57609 6.36517-5.58137 6.36397c1.62865 1.6287 3.87868 2.636 6.36399 2.636 4.97057 0 8.99997-4.0294 8.99997-8.99997z" fill="#0052b4"/><path d="m2.63603 2.63599c-3.514708 3.51471-3.514708 9.21321 0 12.72801 1.45242-1.4525 2.84928-2.8493 6.36399-6.36403z" fill="#f0f0f0"/><path d="m.986777 8.99963c-.004922.06462-.008261.12973-.008261.19561 0 1.40466 1.138784 2.54346 2.543484 2.54346s2.54348-1.1388 2.54348-2.54346c0-.06588-.00334-.13102-.00826-.19561z" fill="#ffda44"/><path d="m3.52187 7.82536c.43223 0 .78261-.35039.78261-.78261 0-.43223-.35038-.78262-.78261-.78262-.43222 0-.78261.35039-.78261.78262 0 .43222.35039.78261.78261.78261z" fill="#ffda44"/><path d="m1.76074 6.84766v2.54348c0 1.34786 1.76087 1.76086 1.76087 1.76086s1.76087-.413 1.76087-1.76086v-2.54348z" fill="#d80027"/><path d="m3.52308 10.3333c-.32667-.1175-.97913-.41799-.97913-.94182v-1.76086h1.95655v1.76086c0 .52555-.6524.82522-.97742.94182z" fill="#338af3"/><path d="m3.91283 8.60821v-.39132l-.39129-.19565-.39132.19565v.39132l-.19565.19565v.78261h1.17394v-.78261z" fill="#f3f3f3"/></g></svg>