<svg fill="none" height="18" viewBox="0 0 18 18" width="18" xmlns="http://www.w3.org/2000/svg" xmlns:xlink="http://www.w3.org/1999/xlink"><clipPath id="a"><path d="m0 0h18v18h-18z"/></clipPath><g clip-path="url(#a)"><path d="m9 18c4.9706 0 9-4.0294 9-9 0-4.97056-4.0294-9-9-9-4.97056 0-9 4.02944-9 9 0 4.9706 4.02944 9 9 9z" fill="#f0f0f0"/><path d="m8.99978-.00054932c-3.86969 0-7.16857 2.44237932-8.44021 5.86957932h16.88043c-1.2717-3.4272-4.5705-5.86957932-8.44022-5.86957932z" fill="#d80027"/><path d="m8.99978 18.0004c3.86972 0 7.16852-2.4423 8.44022-5.8695h-16.88043c1.27164 3.4272 4.57052 5.8695 8.44021 5.8695z" fill="#000"/><g fill="#6da544"><path d="m5.37849 6.8476.48561 1.49456h1.57159l-1.27142.92384.48565 1.4946-1.27143-.9237-1.27142.9237.48564-1.4946-1.27142-.92384h1.57159z"/><path d="m12.6236 6.8476.4856 1.49456h1.5716l-1.2714.92384.4856 1.4946-1.2714-.9237-1.2714.9237.4856-1.4946-1.2714-.92384h1.5716z"/></g></g></svg>