<svg fill="none" height="18" viewBox="0 0 18 18" width="18" xmlns="http://www.w3.org/2000/svg" xmlns:xlink="http://www.w3.org/1999/xlink"><clipPath id="a"><path d="m0 0h18v18h-18z"/></clipPath><g clip-path="url(#a)"><path d="m17.107 12.9124c.5721-1.1832.893-2.5106.893-3.91303 0-1.40239-.3209-2.72985-.893-3.91304l-8.107-.39132-8.106961.39129c-.572133 1.18322-.893039 2.51068-.893039 3.91307 0 1.40243.320906 2.72983.893039 3.91303l8.106961.3913z" fill="#ffda44"/><path d="m8.99954.00024414c-3.56815 0-6.65121 2.07650586-8.106962 5.08696586h16.213922c-1.4558-3.01046-4.5388-5.08696586-8.10696-5.08696586z" fill="#000"/><path d="m8.99954 17.9995c-3.56815 0-6.65121-2.0765-8.106962-5.087h16.213922c-1.4558 3.0105-4.5388 5.087-8.10696 5.087z" fill="#0052b4"/><path d="m17.575 6.26086h-17.149996c-.275695.86376-.425004 1.78397-.425004 2.73913s.149309 1.87541.425004 2.73911h17.149996c.2757-.8637.425-1.78395.425-2.73911s-.1493-1.87537-.425-2.73913z" fill="#a2001d"/><path d="m14.869 8.60925h-11.73912v.78262h11.73912z" fill="#ffda44"/><path d="m13.304 7.04333h-8.60869v.78262h8.60869z" fill="#ffda44"/><path d="m13.3604 8.99963s-2.0124 2.34787-4.36021 2.34787-2.34785-2.34787-2.34785-2.34787 0-2.34784 2.34785-2.34784c2.34781 0 4.36021 2.34784 4.36021 2.34784z" fill="#f0f0f0"/><path d="m8.99893 11.3475c-2.34784 0-4.36026-2.34787-4.36026-2.34787s2.01242-2.34784 4.36026-2.34784" fill="#000"/><path d="m8.21718 8.21771h-.78261v1.56523h.78261z" fill="#f0f0f0"/><path d="m10.5648 8.21771h-.78257v1.56523h.78257z" fill="#000"/><g fill="#0052b4"><path d="m3.13125 9.78336c.43222 0 .78261-.35039.78261-.78261s-.35039-.78261-.78261-.78261c-.43223 0-.78262.35039-.78262.78261s.35039.78261.78262.78261z"/><path d="m14.8705 9.78306c.4322 0 .7826-.35039.7826-.78261 0-.43223-.3504-.78262-.7826-.78262s-.7826.35039-.7826.78262c0 .43222.3504.78261.7826.78261z"/></g></g></svg>