<svg fill="none" height="18" viewBox="0 0 18 18" width="18" xmlns="http://www.w3.org/2000/svg" xmlns:xlink="http://www.w3.org/1999/xlink"><clipPath id="a"><path d="m0 0h18v18h-18z"/></clipPath><g clip-path="url(#a)"><path d="m18 9c0 4.9705-4.0295 9-9 9-4.97053 0-9-4.0295-9-9 0 .00214 9-8.99901562 9-9 4.9705 0 9 4.02947 9 9z" fill="#0052b4"/><path d="m8.97559 8.99971h.02413c0-.0081 0-.01599 0-.02412-.00804.00806-.01607.01609-.02413.02412z" fill="#f0f0f0"/><path d="m9 4.69589c0-1.58361 0-2.62125 0-4.69564586h-.00151c-4.9699.00084375-8.99849 4.02992586-8.99849 8.99999586h4.69564v-2.64413l2.64414 2.64413h1.63617c.00802-.00801.01603-.01603.02409-.02408 0-.60634 0-1.14736 0-1.63606l-2.64421-2.64421z" fill="#f0f0f0"/><path d="m4.55319 1.17407c-1.40762.80153-2.57787 1.97174-3.37936 3.37936v4.44674h2.34784v-5.47819-.00007h5.47826c0-.74049 0-1.44594 0-2.34784z" fill="#d80027"/><path d="m9.00064 7.89312-3.19763-3.19756h-1.10672v.00007l4.30428 4.30424h.00007s0-.76313 0-1.10675z" fill="#d80027"/><path d="m10.1738 4.69531v4.30432c0 2.09677 2.7392 2.73917 2.7392 2.73917s2.7391-.6424 2.7391-2.73917v-4.30432z" fill="#ffda44"/><path d="m12.5213 6.26076c0 .43225-.3504 1.56523-.7826 1.56523-.4323 0-.7826-1.13298-.7826-1.56523 0-.43224.7826-.78261.7826-.78261s.7826.35037.7826.78261z" fill="#ff9811"/><path d="m14.5982 7.11313c.1262-.30815.2245-.75857.2245-.9828 0-.36021-.4696-.65218-.4696-.65218s-.4696.29201-.4696.65218c0 .22423.0982.67465.2245.9828l-.2711.61207c.1593.06476.3335.10076.5161.10076.1827 0 .3568-.036.5162-.10076z" fill="#a2001d"/><path d="m12.3259 8.99993s-.3913.78261-.3913 1.56527h1.9565c0-.78266-.3913-1.56527-.3913-1.56527l-.587-.39129z" fill="#6da544"/><path d="m13.5001 9.00039v-.19565c0-.32414-.2628-.58697-.587-.58697-.3241 0-.5869.2628-.5869.58697v.19565z" fill="#d80027"/></g></svg>