<svg fill="none" height="18" viewBox="0 0 18 18" width="18" xmlns="http://www.w3.org/2000/svg" xmlns:xlink="http://www.w3.org/1999/xlink"><clipPath id="a"><path d="m0 0h18v18h-18z"/></clipPath><g clip-path="url(#a)"><path d="m9.00026-.00036621c-1.10089 0-2.15547.19803521-3.13042.55979321l-.39132 8.440203.39128 8.44017c.97499.3618 2.02957.5598 3.13046.5598 1.10084 0 2.15544-.198 3.13044-.5598l.3913-8.44017-.3913-8.440203c-.975-.361758-2.0296-.55979321-3.13044-.55979321z" fill="#ffda44"/><path d="m18.0004 9.00027c0-3.86969-2.4423-7.16857-5.8695-8.440211v16.880441c3.4272-1.2717 5.8695-4.5706 5.8695-8.44023z" fill="#d80027"/><path d="m5.86958 17.4405v-16.880441c-3.4272 1.271641-5.86958 4.570521-5.86958 8.440211 0 3.86963 2.44238 7.16853 5.86958 8.44023z" fill="#0052b4"/></g></svg>