<svg fill="none" height="18" viewBox="0 0 18 18" width="18" xmlns="http://www.w3.org/2000/svg" xmlns:xlink="http://www.w3.org/1999/xlink"><clipPath id="a"><path d="m0 0h18v18h-18z"/></clipPath><g clip-path="url(#a)"><path d="m9 18c4.9706 0 9-4.0294 9-9 0-4.97056-4.0294-9-9-9-4.97056 0-9 4.02944-9 9 0 4.9706 4.02944 9 9 9z" fill="#ffda44"/><g fill="#496e2d"><path d="m8.99969.00024414c-.00654.00007031-.39129 3.59999586-.39129 3.59999586h7.5917c-1.642-2.18591-4.256-3.59999586-7.20041-3.59999586z"/><path d="m8.99922 18.0002c2.94438 0 5.55848-1.4141 7.20038-3.6001h-14.40077c1.64194 2.186 4.25598 3.6001 7.20039 3.6001z"/><path d="m17.8195 7.2002h-9.2111l.39129 3.6h8.81981c.1181-.5816.1802-1.18355.1802-1.80001s-.0622-1.21841-.1802-1.79999z"/></g><path d="m9 10.8c0-1.87826 0-8.68697 0-10.8-4.97053 0-9 4.02947-9 9 0 .61646.0621562 1.2184.180211 1.8z" fill="#d80027"/><path d="m4.96665 4.30371.58275 1.7935h1.88596l-1.52568 1.10858.58268 1.79357-1.52571-1.10848-1.52571 1.10848.58278-1.79357-1.52567-1.10858h1.88588z" fill="#f0f0f0"/></g></svg>