<svg fill="none" height="18" viewBox="0 0 18 18" width="18" xmlns="http://www.w3.org/2000/svg" xmlns:xlink="http://www.w3.org/1999/xlink"><clipPath id="a"><path d="m0 0h18v18h-18z"/></clipPath><g clip-path="url(#a)"><path d="m9 18c4.9706 0 9-4.0294 9-9 0-4.97056-4.0294-9-9-9-4.97056 0-9 4.02944-9 9 0 4.9706 4.02944 9 9 9z" fill="#f0f0f0"/><path d="m17.4402 5.86938h-16.880407c-.361793.97499-.559793 2.02954-.559793 3.13042 0 1.1009.198 2.1554.559793 3.1304h16.880407c.3618-.975.5598-2.0295.5598-3.1304 0-1.10088-.198-2.15543-.5598-3.13042z" fill="#0052b4"/><g fill="#d80027"><path d="m9.00117-.00048828c-2.72781 0-5.17198 1.21373828-6.82246 3.13041828h13.64489c-1.6505-1.91668-4.0946-3.13041828-6.82243-3.13041828z"/><path d="m15.8227 14.8695h-13.64497c1.65048 1.9167 4.09465 3.1304 6.82246 3.1304s5.17201-1.2137 6.82251-3.1304z"/></g></g></svg>