<svg fill="none" height="18" viewBox="0 0 18 18" width="18" xmlns="http://www.w3.org/2000/svg" xmlns:xlink="http://www.w3.org/1999/xlink"><clipPath id="a"><path d="m0 0h18v18h-18z"/></clipPath><g clip-path="url(#a)"><path d="m.893039 5.08632c-.572133 1.18322-.893039 2.51065-.893039 3.91304 0 1.40234.320906 2.72984.893039 3.91304l8.106961.7826 8.107-.7826c.5721-1.1832.893-2.5107.893-3.91304 0-1.40239-.3209-2.72982-.893-3.91304l-8.107-.78261z" fill="#f0f0f0"/><path d="m.893555 12.9132c1.455715 3.0104 4.538535 5.087 8.106645 5.087 3.5681 0 6.651-2.0766 8.1066-5.087z" fill="#6da544"/><path d="m.893555 5.08648h16.213245c-1.4556-3.01043-4.5385-5.08696828-8.1066-5.08696828-3.56811 0-6.65093 2.07653828-8.106645 5.08696828z" fill="#d80027"/><g fill="#ffda44"><path d="m7.43555 11.3486h3.13045v-1.3304l-.6261.313-.93913-.93911-.93913.93911-.62609-.313z"/><path d="m5.64451 9.78284.14572.44836h.47145l-.38145.2772.14573.4483-.38145-.2771-.38144.2771.14572-.4483-.38145-.2772h.47145z"/><path d="m6.09666 8.21826.14572.44839h.47145l-.38145.27713.14569.44839-.38141-.27711-.38145.27711.14573-.44839-.38145-.27713h.47145z"/><path d="m7.38767 7.04462.14573.44838h.4714l-.38137.27714.14565.44838-.38141-.2771-.3814.2771.14568-.44838-.38144-.27714h.47148z"/><path d="m12.3574 9.78284-.1457.44836h-.4715l.3815.2772-.1457.4483.3814-.2771.3814.2771-.1457-.4483.3815-.2772h-.4715z"/><path d="m11.9053 8.21826-.1458.44839h-.4714l.3814.27713-.1457.44839.3815-.27711.3814.27711-.1457-.44839.3814-.27713h-.4714z"/><path d="m10.6142 7.04462-.1457.44838h-.47143l.38133.27714-.1456.44838.3814-.2771.3814.2771-.1457-.44838.3814-.27714h-.4714z"/><path d="m9.00096 6.45703.14572.44838h.47145l-.38145.27714.14572.44838-.38144-.2771-.38145.2771.14572-.44838-.38144-.27714h.47144z"/></g></g></svg>