<svg fill="none" height="18" viewBox="0 0 18 18" width="18" xmlns="http://www.w3.org/2000/svg" xmlns:xlink="http://www.w3.org/1999/xlink"><clipPath id="a"><path d="m0 0h18v18h-18z"/></clipPath><g clip-path="url(#a)"><path d="m9 18c4.9706 0 9-4.0294 9-9 0-4.97056-4.0294-9-9-9-4.97056 0-9 4.02944-9 9 0 4.9706 4.02944 9 9 9z" fill="#ffda44"/><path d="m14.4783 4.30436c-.0808.38794-.1174.80114-.1174 1.21303 0 2.37424 1.4153 4.42916 3.4437 5.35421.1277-.6038.1954-1.22979.1954-1.8716 0-4.97053-4.0295-9-9-9-4.97053 0-9 4.02947-9 9 0 4.9705 4.02947 9 9 9 3.0826 0 5.8028-1.5501 7.4249-3.913h-11.33793v-1.1739h12.02003c.123-.2544.2341-.5156.3332-.7826h-12.35323z" fill="#0052b4"/><g fill="#f0f0f0"><path d="m6.61001 4.6958.19428.59787h.62859l-.50853.36953.19427.59783-.50861-.36946-.50853.36946.19424-.59783-.50861-.36953h.62863z"/><path d="m4.05787 8.99988.24286.74739h.78574l-.63573.46173.24286.7474-.63573-.4619-.6357.4619.24282-.7474-.63569-.46173h.78574z"/><path d="m4.05787 2.73926.24286.74738h.78574l-.63573.46178.24286.74735-.63573-.46188-.6357.46188.24282-.74735-.63569-.46178h.78574z"/><path d="m2.10083 6.2605.24286.74738h.78571l-.6357.46178.24286.74735-.63573-.46188-.63569.46188.24282-.74735-.63569-.46178h.7857z"/></g></g></svg>