<svg fill="none" height="18" viewBox="0 0 18 18" width="18" xmlns="http://www.w3.org/2000/svg" xmlns:xlink="http://www.w3.org/1999/xlink"><clipPath id="a"><path d="m0 0h18v18h-18z"/></clipPath><g clip-path="url(#a)"><path d="m9 18c4.9706 0 9-4.0294 9-9 0-4.97056-4.0294-9-9-9-4.97056 0-9 4.02944-9 9 0 4.9706 4.02944 9 9 9z" fill="#ffda44"/><path d="m9.00006-.00024414c-2.20349 0-4.22167.79231614-5.78619 2.10705414l9.69923 6.89295-9.69923 6.89294c1.56452 1.3147 3.5827 2.1071 5.78619 2.1071 4.97054 0 9.00004-4.0295 9.00004-9.00004s-4.0295-9.00000414-9.00004-9.00000414z" fill="#d80027"/><path d="m2.63603 2.6366c-3.514708 3.51471-3.514708 9.2132 0 12.728 1.45242-1.4524 2.84928-2.8493 6.36399-6.36402z" fill="#000"/><path d="m2.49543 6.9386 1.36969 1.29628 1.65614-.90225-.80947 1.70332 1.36972 1.29635-1.8701-.2436-.80958 1.7033-.34618-1.85387-1.8701-.24364 1.65607-.90214z" fill="#f0f0f0"/></g></svg>