<svg fill="none" height="18" viewBox="0 0 18 18" width="18" xmlns="http://www.w3.org/2000/svg" xmlns:xlink="http://www.w3.org/1999/xlink"><clipPath id="a"><path d="m0 0h18v18h-18z"/></clipPath><g clip-path="url(#a)"><path d="m9.00011-.00048828c-.67197 0-1.32655.07428518-1.95648.21392628l-.39129 8.786042.39129 8.78612c.62997.1396 1.28454.2139 1.95648.2139 4.97059 0 8.99999-4.0295 8.99999-9.00002 0-4.97054-4.0294-8.99996828-8.99999-8.99996828z" fill="#496e2d"/><path d="m2.3478 2.93787c-1.458417 1.59947-2.3478 3.72677-2.3478 6.06192 0 2.33511.889418 4.46241 2.34784 6.06201l.39129-6.06201z" fill="#496e2d"/><g fill="#f0f0f0"><path d="m13.1636 6.78873c.4428-1.2342-.0546-2.5765-1.1222-3.24503.192.025.3842.07021.5739.13824 1.424.51089 2.1641 2.07928 1.6533 3.50317-.5109 1.42401-2.0793 2.16412-3.5033 1.65323-.1897-.06807-.3669-.15543-.5309-.25819 1.2491.16267 2.4864-.55723 2.9292-1.79142z"/><path d="m10.7075 3.20581-.3848.49718-.59167-.21231.35387.51954-.3847.49711.6035-.17599.3539.51946.019-.62831.6035-.17602-.5917-.21224z"/><path d="m11.7475 4.82654-.3848.49714-.5916-.21231.3539.51954-.3848.49711.6035-.17606.3539.51957.0191-.62834.6034-.17607-.5916-.21227z"/><path d="m8.87542 3.79541-.38478.49711-.59164-.21224.35391.51951-.38475.49714.60343-.17603.35395.51951.01905-.62832.60346-.17602-.59164-.21231z"/><path d="m8.83347 5.651-.38475.49715-.59168-.21228.35395.51954-.38482.49711.60353-.17599.35392.51947.01901-.62832.6035-.17602-.59172-.21231z"/><path d="m10.5991 6.28516-.3848.49711-.59164-.21228.35396.51954-.38482.49708.6035-.176.3539.51954.0191-.62838.6035-.17599-.5918-.21228z"/></g><path d="m2.34766 2.93811v12.12389c1.22625 1.3449 2.85503 2.316 4.69564 2.7241v-17.572111c-1.84064.408024-3.46936 1.379211-4.69564 2.724121z" fill="#d80027"/><path d="m4.13965 4.73818-.78613-.58564v-.82817l.78613-.5856h1.11181l.78613.5856v.82817l-.78613.58564z" fill="#f0f0f0"/><path d="m4.69557 2.73877h-.55593l-.78612.5856v.40489h1.34205z" fill="#ff9811"/><path d="m4.69531 4.73748h.55589l.78613-.58564v-.42247h-1.34202z" fill="#ff9811"/><path d="m4.13965 15.2614-.78613-.5857v-.8281l.78613-.5856h1.11181l.78613.5856v.8281l-.78613.5857z" fill="#f0f0f0"/><path d="m4.69557 13.262h-.55593l-.78612.5856v.4049h1.34205z" fill="#ff9811"/><path d="m4.69531 15.262h.55589l.78613-.5857v-.4224h-1.34202z" fill="#ff9811"/><path d="m4.13964 9.99929-.78612-.58563v-.82815l.78612-.58563h1.11182l.78613.58563v.82815l-.78613.58563z" fill="#496e2d"/><path d="m6.06527 11.2886h-.34242v-.3424h-.6017l-.42547-.4254-.42542.4254h-.6017v.3424h-.34239v.6848h.34239v.3424h.60166l.4255.4255.42543-.4255h.6017v-.3424h.34242z" fill="#496e2d"/><path d="m6.06527 6.02704h-.34242v-.34242h-.6017l-.42547-.42546-.42542.42546h-.6017v.34242h-.34239v.68477h.34239v.34239h.60166l.4255.42553.42543-.42553h.6017v-.34239h.34242z" fill="#496e2d"/><path d="m5.0873 8.60938h-.78261v.78261h.78261z" fill="#d80027"/><path d="m4.69597 6.76122c.21611 0 .39129-.17519.39129-.39129 0-.21611-.17518-.39129-.39129-.39129-.2161 0-.39128.17518-.39128.39129 0 .2161.17518.39129.39128.39129z" fill="#d80027"/><path d="m4.69597 12.0232c.21611 0 .39129-.1752.39129-.3913s-.17518-.3913-.39129-.3913c-.2161 0-.39128.1752-.39128.3913s.17518.3913.39128.3913z" fill="#d80027"/></g></svg>