<svg fill="none" height="18" viewBox="0 0 18 18" width="18" xmlns="http://www.w3.org/2000/svg" xmlns:xlink="http://www.w3.org/1999/xlink"><clipPath id="a"><path d="m0 0h18v18h-18z"/></clipPath><g clip-path="url(#a)"><path d="m9 18c4.9706 0 9-4.0294 9-9 0-4.97056-4.0294-9-9-9-4.97056 0-9 4.02944-9 9 0 4.9706 4.02944 9 9 9z" fill="#d80027"/><path d="m8.99967 13.304c2.37723 0 4.30433-1.9271 4.30433-4.30433s-1.9271-4.30436-4.30433-4.30436-4.30436 1.92713-4.30436 4.30436 1.92713 4.30433 4.30436 4.30433z" fill="#f0f0f0"/><g fill="#d80027"><path d="m9.5307 7.35376.7384 1.0176 1.1959-.38778-.7395 1.01673.7383 1.01759-1.1955-.38928-.7396 1.01668.00077-1.25719-1.19549-.38925 1.19595-.38777z"/><path d="m9.97879 11.5428c-1.4047 0-2.54348-1.1387-2.54348-2.54345 0-1.4047 1.13878-2.54348 2.54348-2.54348.43801 0 .85011.11074 1.20991.30571-.5644-.55198-1.33629-.89268-2.18816-.89268-1.72885 0-3.13042 1.40154-3.13042 3.13041 0 1.72889 1.40157 3.13039 3.13042 3.13039.85187 0 1.62376-.3407 2.18816-.8927-.3598.1951-.7719.3058-1.20991.3058z"/></g></g></svg>