<svg fill="none" height="18" viewBox="0 0 18 18" width="18" xmlns="http://www.w3.org/2000/svg" xmlns:xlink="http://www.w3.org/1999/xlink"><clipPath id="a"><path d="m0 0h18v18h-18z"/></clipPath><g clip-path="url(#a)"><path d="m9 18c4.9706 0 9-4.0294 9-9 0-4.97056-4.0294-9-9-9-4.97056 0-9 4.02944-9 9 0 4.9706 4.02944 9 9 9z" fill="#f0f0f0"/><g fill="#d80027"><path d="m5.86933 4.696v-1.17391h-1.17394v1.17391h-1.17391v1.17394h1.17391v1.1739h1.17394v-1.1739h1.1739v-1.17394z"/><path d="m9 0v9c-4.97053.00004-6.946 0-9 .00004 0 4.97046 4.02947 8.99996 9 8.99996 4.9705 0 9-4.0295 9-9 0-4.97053-4.0295-9-9-9z"/></g></g></svg>