<svg fill="none" height="18" viewBox="0 0 18 18" width="18" xmlns="http://www.w3.org/2000/svg" xmlns:xlink="http://www.w3.org/1999/xlink"><clipPath id="a"><path d="m0 0h18v18h-18z"/></clipPath><g clip-path="url(#a)"><path d="m9 18c4.9706 0 9-4.0294 9-9 0-4.97056-4.0294-9-9-9-4.97056 0-9 4.02944-9 9 0 4.9706 4.02944 9 9 9z" fill="#d80027"/><g fill="#f0f0f0"><path d="m8.63129 7.35376.73846 1.0176 1.19595-.38778-.73966 1.01673.73836 1.01759-1.1955-.38928-.73958 1.01668.00077-1.25719-1.19552-.38925 1.19595-.38777z"/><path d="m6.61649 11.543c-1.4047 0-2.54349-1.1388-2.54349-2.54353 0-1.4047 1.13879-2.54348 2.54349-2.54348.43798 0 .85008.11078 1.20987.30572-.56444-.55203-1.33636-.89269-2.18813-.89269-1.72891 0-3.13042 1.40154-3.13042 3.13042 0 1.72886 1.40154 3.13046 3.13042 3.13046.85184 0 1.62373-.3407 2.18813-.8927-.35979.195-.77189.3058-1.20987.3058z"/></g></g></svg>