<svg fill="none" height="18" viewBox="0 0 18 18" width="18" xmlns="http://www.w3.org/2000/svg" xmlns:xlink="http://www.w3.org/1999/xlink"><clipPath id="a"><path d="m0 0h18v18h-18z"/></clipPath><g clip-path="url(#a)"><path d="m4.87383.998901c-.80571.415859-1.56203.960959-2.23745 1.636379-.67545.67546-1.22055 1.43178-1.63638 2.23749l5.78696 6.34043 6.34044 5.7869c.8057-.4158 1.562-.9609 2.2374-1.6363.6755-.6755 1.2206-1.4318 1.6364-2.2375l-5.7869-6.34043z" fill="#f0f0f0"/><path d="m15.3641 15.3645c.3776-.3775.7143-.7804 1.0107-1.2029l-12.53615-12.53623c-.42254.2964-.8254.63313-1.20294 1.01067-.37755.37754-.71427.7804-1.01071 1.20298l12.5362 12.53618c.4225-.2964.8254-.6331 1.2029-1.0107z" fill="#000"/><g fill="#d80027"><path d="m2.63573 15.3649c2.83947 2.8395 7.10381 3.3845 10.49097 1.6364l-12.127316-12.1274c-1.748145 3.38716-1.202977 7.6515 1.636346 10.491z"/><path d="m15.364 2.63602c-2.8394-2.839429-7.10379-3.384491-10.49095-1.636417l12.12735 12.127397c1.7482-3.38713 1.2031-7.65155-1.6364-10.49098z"/></g></g></svg>