<svg fill="none" height="18" viewBox="0 0 18 18" width="18" xmlns="http://www.w3.org/2000/svg" xmlns:xlink="http://www.w3.org/1999/xlink"><clipPath id="a"><path d="m0 0h18v18h-18z"/></clipPath><g clip-path="url(#a)"><path d="m18 9c0 4.9705-4.0295 9-8.99996 9-4.97057 0-9.00004-4.0295-9.00004-9 0 .00214 9.00004-8.99901562 9.00004-9 4.97046 0 8.99996 4.02947 8.99996 9z" fill="#338af3"/><path d="m4.30469 9.00078h3.03546l-2.64417-3.13042-.39129 1.1739z" fill="#0052b4"/><path d="m9.00057 7.33994-3.13045-3.0355h3.13042z" fill="#0052b4"/><path d="m8.97559 8.99971h.02412c0-.0081 0-.01599 0-.02412-.00803.00806-.01606.01609-.02412.02412z" fill="#f0f0f0"/><path d="m9.00004 4.69589c0-1.58361 0-2.62129 0-4.69564586h-.00152c-4.9699.00084375-8.99852 4.02992586-8.99852 8.99999586h4.69568v-2.64413l2.64414 2.64413h1.63617c.00801-.00801.01603-.01603.02408-.02408 0-.60634 0-1.14736 0-1.63606l-2.64424-2.64421z" fill="#f0f0f0"/><path d="m4.55319 1.17407c-1.40762.80153-2.57783 1.97174-3.37936 3.37936v4.44674h2.34784v-5.47819-.00007h5.47826c0-.74049 0-1.44594 0-2.34784z" fill="#d80027"/><path d="m9.00065 7.89312-3.19764-3.19756h-1.10672v.00007l4.30429 4.30424h.00007s0-.76313 0-1.10675z" fill="#d80027"/><g fill="#ffda44"><path d="m9.82286 14.8689.19424.5979h.6287l-.5086.3695.1943.5978-.50864-.3695-.50853.3695.19427-.5978-.5086-.3695h.62859z"/><path d="m14.8297 10.957.1943.5979h.6286l-.5085.3695.1943.5979-.5087-.3695-.5085.3695.1943-.5979-.5087-.3695h.6287z"/><path d="m16.0836 5.08691.1943.59787h.6286l-.5085.36949.1942.59783-.5086-.36945-.5085.36945.1942-.59783-.5086-.36949h.6287z"/><path d="m16.3952 9.39111.1942.59791h.6286l-.5085.36948.1943.5978-.5086-.3694-.5086.3694.1943-.5978-.5086-.36948h.6286z"/><path d="m10.7245 13.4635.5602.2854.4445-.4445-.0983.6209.5601.2854-.621.0983-.0983.6209-.2853-.5601-.621.0984.4445-.4445z"/><path d="m10.7245 11.1161.5602.2854.4445-.4445-.0983.6209.5601.2853-.621.0984-.0983.6209-.2853-.5601-.621.0984.4445-.4445z"/><path d="m12.6815 12.6204.5602.2854.4445-.4445-.0983.6208.5601.2854-.6209.0984-.0984.6209-.2853-.5602-.6209.0985.4444-.4445z"/><path d="m12.6815 7.59365.5602.2854.4445-.44448-.0983.62086.5601.28536-.6209.09837-.0984.62089-.2853-.56011-.6209.09837.4444-.44448z"/><path d="m14.577 7.53335.5602.2854.4445-.44448-.0983.62086.5601.28536-.6209.09837-.0984.62089-.2853-.56011-.6209.09837.4444-.44448z"/></g></g></svg>