<svg fill="none" height="18" viewBox="0 0 18 18" width="18" xmlns="http://www.w3.org/2000/svg" xmlns:xlink="http://www.w3.org/1999/xlink"><clipPath id="a"><path d="m0 0h18v18h-18z"/></clipPath><g clip-path="url(#a)"><path d="m18 9c0 4.9705-4.0295 9-9 9-4.97053 0-9-4.0295-9-9l9-9c4.9705 0 9 4.02947 9 9z" fill="#d80027"/><path d="m9 9c0-4.97053 0-5.55652 0-9-4.97053 0-9 4.02947-9 9z" fill="#0052b4"/><path d="m7.82625 5.26726-1.09916.51707.58528 1.0645-1.19352-.22837-.15128 1.20575-.8313-.88678-.83138.88678-.1512-1.20575-1.19356.2283.58528-1.0645-1.09912-.517 1.09916-.51698-.58532-1.06453 1.19352.22834.15128-1.20572.83134.88679.83134-.88679.15124 1.20572 1.19356-.22834-.58532 1.06457z" fill="#f0f0f0"/><path d="m5.13624 6.94252c.92524 0 1.6753-.75006 1.6753-1.6753s-.75006-1.6753-1.6753-1.6753c-.92525 0-1.6753.75006-1.6753 1.6753s.75005 1.6753 1.6753 1.6753z" fill="#0052b4"/><path d="m5.13679 6.16049c-.49222 0-.89265-.40046-.89265-.89268s.40047-.89269.89265-.89269c.49223 0 .89269.40047.89269.89269-.00003.49222-.40053.89268-.89269.89268z" fill="#f0f0f0"/></g></svg>