<svg fill="none" height="18" viewBox="0 0 18 18" width="18" xmlns="http://www.w3.org/2000/svg" xmlns:xlink="http://www.w3.org/1999/xlink"><clipPath id="a"><path d="m0 0h18v18h-18z"/></clipPath><g clip-path="url(#a)"><path d="m9 18c4.9706 0 9-4.0294 9-9 0-4.97056-4.0294-9-9-9-4.97056 0-9 4.02944-9 9 0 4.9706 4.02944 9 9 9z" fill="#ffda44"/><path d="m2.6356 15.3642c.37754.3775.78036.7142 1.20291 1.0107l12.53569-12.53575c-.2964-.42254-.6331-.82536-1.0107-1.2029-.3775-.37755-.7803-.7142-1.2029-1.01064l-12.5356 12.53569c.29637.4224.63309.8253 1.0106 1.2029z" fill="#000"/><path d="m2.63567 2.63538c-2.839291 2.83936-3.384389 7.1035-1.636315 10.49052l12.126845-12.126796c-3.38704-1.748075-7.65121-1.202942-10.49053 1.636276z" fill="#6da544"/><path d="m15.3636 15.3638c2.8393-2.8392 3.3843-7.10345 1.6363-10.49051l-12.12685 12.12691c3.38699 1.748 7.65115 1.2029 10.49055-1.6364z" fill="#338af3"/></g></svg>