<svg fill="none" height="18" viewBox="0 0 18 18" width="18" xmlns="http://www.w3.org/2000/svg" xmlns:xlink="http://www.w3.org/1999/xlink"><clipPath id="a"><path d="m0 0h18v18h-18z"/></clipPath><g clip-path="url(#a)"><path d="m15.7076 15c1.4253-1.5923 2.2924-3.6947 2.2924-5.99994 0-2.30526-.8671-4.40771-2.2925-6.00001l-6.7075-.65215-6.70753.65215c-1.425341 1.5923-2.29247 3.69475-2.29247 6.00001 0 2.30524.867094 4.40764 2.29243 5.99994l6.70757.6522z" fill="#ffda44"/><path d="m2.29297 3.00036h13.41513c-1.648-1.84103-4.0423-2.99999379-6.7076-2.99999379s-5.05962 1.15896379-6.70753 2.99999379z" fill="#000"/><path d="m0 9.00051 9 .78261 9-.78261c0-1.05202-.1811-2.06163-.5129-3.00002h-16.974241c-.331769.93839-.512859 1.948-.512859 3.00002z" fill="#d80027"/><path d="m.512859 11.9995h16.974341c.3317-.9384.5128-1.948.5128-2.99999h-18c0 1.05199.18109 2.06159.512859 2.99999z" fill="#000"/><path d="m15.7081 14.9996h-13.41513c1.64791 1.8411 4.04223 3.0001 6.70757 3.0001 2.66536 0 5.05966-1.159 6.70756-3.0001z" fill="#d80027"/><path d="m12.0026 9.00057c0 1.65883-1.3445 3.00323-3.00325 3.00323-1.65877 0-3.00326-1.3444-3.00326-3.00323 0-1.65877 1.34449-3.00326 3.00326-3.00326 1.65875 0 3.00325 1.34449 3.00325 3.00326z" fill="#f0f0f0"/><path d="m10.0997 9.15273-1.10025-.47675s.25741-.8544.27112-.91287c.01002-.04271.01536-.08726.01536-.13303 0-.16211-.0657-.30885-.17195-.41502l.27668-.27668c-.17701-.17701-.42159-.28652-.69173-.28652s-.51473.10947-.69174.28652l.27668.27668c-.10624.10621-.17191.25295-.17191.41502 0 .05927.00896.1164.02531.17037l-.41657.41653h.75713s-.31303.47018-.48393.8563c-.17089.38609.00236.85743.39731 1.03302l.22837.1015.37987.357v.3913l-.3913.3913h.78262v-.7826l.35708-.3571h.73855c.0036-.0073.0073-.0145.0107-.022.1754-.39495-.0025-.85747-.3974-1.03297z" fill="#000"/></g></svg>