<svg fill="none" height="18" viewBox="0 0 18 18" width="18" xmlns="http://www.w3.org/2000/svg" xmlns:xlink="http://www.w3.org/1999/xlink"><clipPath id="a"><path d="m0 0h18v18h-18z"/></clipPath><g clip-path="url(#a)"><path d="m9 18c4.9706 0 9-4.0294 9-9 0-4.97056-4.0294-9-9-9-4.97056 0-9 4.02944-9 9 0 4.9706 4.02944 9 9 9z" fill="#f0f0f0"/><g fill="#d80027"><path d="m8.60938 8.99994h9.39132c0-.81232-.1083-1.59926-.3101-2.34784h-9.08122z"/><path d="m8.60938 4.30389h8.07032c-.5509-.89901-1.2554-1.69365-2.0767-2.34784h-5.99362z"/><path d="m9.0008 18c2.1181 0 4.065-.7321 5.6024-1.9565h-11.20476c1.53738 1.2244 3.48423 1.9565 5.60236 1.9565z"/><path d="m1.32146 13.6949h15.35804c.4423-.7217.7854-1.5106 1.011-2.3479h-17.379953c.225598.8373.568617 1.6262 1.010913 2.3479z"/></g><path d="m4.16897 1.40548h.82016l-.76289.55423.29141.89681-.76286-.55424-.76285.55424.25172-.77474c-.6717.55951-1.26043 1.21503-1.74558 1.94544h.26279l-.48561.35279c-.07566.12621-.14822.25443-.21776.38454l.23189.71371-.432632-.31433c-.107543.22784-.20591.46082-.294328.69866l.25548.78637h.94296l-.76289.55424.29141.8968-.762855-.55424-.4569608.33202c-.0457383.36766-.0695742.74215-.0695742 1.12222h9c0-4.97053 0-5.55652 0-9-1.77792 0-3.43529.515742-4.83103 1.40548zm.34868 6.69452-.76286-.55424-.76285.55424.29141-.8968-.76289-.55424h.94296l.29137-.8968.29138.8968h.94296l-.76289.55424zm-.29141-3.51854.29141.8968-.76286-.55424-.76285.55424.29141-.8968-.76289-.55424h.94296l.29137-.8968.29138.8968h.94296zm3.51967 3.51854-.76286-.55424-.76285.55424.29141-.8968-.7629-.55424h.94297l.29137-.8968.29138.8968h.94296l-.76289.55424zm-.29141-3.51854.29141.8968-.76286-.55424-.76285.55424.29141-.8968-.7629-.55424h.94297l.29137-.8968.29138.8968h.94296zm0-2.62175.29141.89681-.76286-.55424-.76285.55424.29141-.89681-.7629-.55423h.94297l.29137-.896804.29138.896804h.94296z" fill="#0052b4"/></g></svg>