<svg fill="none" height="18" viewBox="0 0 18 18" width="18" xmlns="http://www.w3.org/2000/svg" xmlns:xlink="http://www.w3.org/1999/xlink"><clipPath id="a"><path d="m0 0h18v18h-18z"/></clipPath><g clip-path="url(#a)"><path d="m9 18c4.9706 0 9-4.0294 9-9 0-4.97056-4.0294-9-9-9-4.97056 0-9 4.02944-9 9 0 4.9706 4.02944 9 9 9z" fill="#f0f0f0"/><g fill="#338af3"><path d="m9 6.65155h8.69c-.2257-.83721-.5687-1.62615-1.011-2.34784h-7.679z"/><path d="m3.39696 16.0423h11.20474c.8214-.6542 1.5258-1.4488 2.0767-2.3478h-15.35809c.55094.899 1.25533 1.6936 2.07665 2.3478z"/><path d="m9-.00073242v1.95651242h5.6024c-1.5374-1.224419-3.4843-1.95651242-5.6024-1.95651242z"/><path d="m9 6.65155h8.69c-.2257-.83721-.5687-1.62615-1.011-2.34784h-7.679z"/><path d="m0 9.00012c0 .81236.108281 1.59918.310043 2.34788h17.379957c.2017-.7487.31-1.53552.31-2.34788z"/></g><path d="m7.82625 5.26738-1.0992.51704.58532 1.06453-1.19355-.2283-.15125 1.20568-.8313-.88678-.83138.88678-.1512-1.20568-1.19356.22823.58528-1.06449-1.09912-.51701 1.09916-.51697-.58532-1.06454 1.19352.22831.15128-1.20568.83134.88678.83134-.88678.15121 1.20568 1.19359-.22831-.58532 1.06457z" fill="#ffda44"/></g></svg>