<svg fill="none" height="18" viewBox="0 0 18 18" width="18" xmlns="http://www.w3.org/2000/svg" xmlns:xlink="http://www.w3.org/1999/xlink"><clipPath id="a"><path d="m0 0h18v18h-18z"/></clipPath><g clip-path="url(#a)"><path d="m.424969 6.26095c-.275695.86372-.42500415 1.78387-.42496899 2.73903-.00003516.95519.14930899 1.87542.42500399 2.73912l8.574996.3914 8.575-.3913c.2757-.8638.425-1.78403.425-2.73915 0-.9552-.1493-1.87538-.425-2.73913l-8.575-.39129z" fill="#f0f0f0"/><path d="m17.5749 6.26092-8.57499-.39129-8.575035.39129c-.081703.25608-.152051.51718-.211008.78261h17.571933c-.0589-.26546-.1292-.5266-.2109-.78261z" fill="#d80027"/><path d="m.213867 10.9568c.058887.2654.129235.5265.210938.7826h.000843l8.574122.3913 8.57503-.3913c.0817-.2561.152-.5172.2109-.7826z" fill="#d80027"/><path d="m9.00074 18.0005c4.01536 0 7.41606-2.6298 8.57496-6.2609h-17.149919c1.158929 3.6311 4.559659 6.2609 8.574959 6.2609z" fill="#6da544"/><path d="m8.9998-.00061035c-4.01533.00003515-7.416 2.62983035-8.574995 6.26087035l17.149995.00004c-1.1589-3.63112-4.5596-6.26094551-8.575-6.26091035z" fill="#338af3"/><g fill="#f0f0f0"><path d="m4.11209 3.71714c0-.84295.59241-1.54713 1.38353-1.71988-.12157-.02658-.24774-.04096-.37733-.04096-.97249 0-1.76087.78834-1.76087 1.76087s.78831 1.76087 1.76087 1.76087c.12959 0 .25573-.01441.37733-.04095-.79108-.17283-1.38353-.87701-1.38353-1.71995z"/><path d="m6.53624 4.51685.11918.36685h.38573l-.31205.22676.11919.36686-.31205-.22673-.31212.22673.11921-.36686-.31208-.22676h.38574z"/><path d="m7.76761 4.51685.11921.36685h.38574l-.31208.22676.11921.36686-.31208-.22673-.31208.22673.11921-.36686-.31204-.22676h.38569z"/><path d="m8.99913 4.51685.11918.36685h.38577l-.31208.22676.11918.36686-.31205-.22673-.31212.22673.11925-.36686-.31212-.22676h.38577z"/><path d="m10.2296 4.51685.1192.36685h.3857l-.312.22676.1192.36686-.3121-.22673-.31212.22673.11922-.36686-.31209-.22676h.38569z"/><path d="m11.461 4.51685.1192.36685h.3857l-.312.22676.1192.36686-.3121-.22673-.3121.22673.1192-.36686-.312-.22676h.3857z"/><path d="m7.76761 3.23633.11921.36682h.38574l-.31208.22679.11921.36682-.31208-.22672-.31208.22672.11921-.36682-.31204-.22679h.38569z"/><path d="m8.99913 3.23633.11918.36682h.38577l-.31208.22679.11918.36682-.31205-.22672-.31212.22672.11925-.36682-.31212-.22679h.38577z"/><path d="m10.2296 3.23633.1192.36682h.3857l-.312.22679.1192.36682-.3121-.22672-.31212.22672.11922-.36682-.31209-.22679h.38569z"/><path d="m11.461 3.23633.1192.36682h.3857l-.312.22679.1192.36682-.3121-.22672-.3121.22672.1192-.36682-.312-.22679h.3857z"/><path d="m8.99913 1.95605.11918.3669h.38577l-.31208.22672.11918.36689-.31205-.22672-.31212.22672.11925-.36689-.31212-.22672h.38577z"/><path d="m10.2296 1.95605.1192.3669h.3857l-.312.22672.1192.36689-.3121-.22672-.31212.22672.11922-.36689-.31209-.22672h.38569z"/><path d="m11.461 1.95605.1192.3669h.3857l-.312.22672.1192.36689-.3121-.22672-.3121.22672.1192-.36689-.312-.22672h.3857z"/></g></g></svg>