<svg fill="none" height="18" viewBox="0 0 18 18" width="18" xmlns="http://www.w3.org/2000/svg" xmlns:xlink="http://www.w3.org/1999/xlink"><clipPath id="a"><path d="m0 0h18v18h-18z"/></clipPath><g clip-path="url(#a)"><path d="m13.3044 1.09455c-1.2787-.697638-2.7452-1.09430586-4.30435-1.09430586-1.55918 0-3.02568.39666786-4.30435 1.09430586l-.78261 7.90569.78261 7.90566c1.27867.6977 2.74517 1.0943 4.30435 1.0943 1.55915 0 3.02565-.3966 4.30435-1.0943l.7826-7.90566z" fill="#ffda44"/><path d="m4.69564 16.9056v-15.81136c-2.79759 1.52648-4.69564 4.49434-4.69564 7.90573 0 3.41143 1.89805 6.37923 4.69564 7.90563z" fill="#338af3"/><g fill="#6da544"><path d="m18.0003 9.00021c0-3.41139-1.898-6.37924-4.6956-7.90573v15.81132c2.7976-1.5263 4.6956-4.4942 4.6956-7.90559z"/><path d="m7.04378 11.3473-1.56526-2.34785 1.56522-2.34784 1.5653 2.34784z"/><path d="m10.9568 11.3473-1.5652-2.34785 1.5652-2.34784 1.5652 2.34784z"/><path d="m9.00077 14.4778-1.56522-2.3479 1.56522-2.3478 1.56523 2.3478z"/></g></g></svg>