<svg fill="none" height="18" viewBox="0 0 18 18" width="18" xmlns="http://www.w3.org/2000/svg" xmlns:xlink="http://www.w3.org/1999/xlink"><clipPath id="a"><path d="m0 0h18v18h-18z"/></clipPath><g clip-path="url(#a)"><path d="m17.107 12.9125c.5721-1.1832.893-2.5106.893-3.91302s-.3209-2.72981-.893-3.91303l-8.107-.78262-8.106961.78262c-.572168 1.18322-.893039 2.51061-.893039 3.91303s.320871 2.72982.893039 3.91302l8.106961.7826z" fill="#0052b4"/><path d="m8.99954 18.0003c3.56816 0 6.65116-2.0765 8.10696-5.087h-16.213922c1.455752 3.0105 4.538812 5.087 8.106962 5.087z" fill="#d80027"/><g fill="#f0f0f0"><path d="m15.5873 10.7669-.4754.3715.2063.5667-.5001-.3372-.4754.3714.1662-.5799-.5001-.3374.6029-.021.1663-.5799.2064.5668z"/><path d="m14.3696 8.65833-.3196.51163.3878.46202-.5853-.14575-.3198.51148-.0421-.60177-.5853-.146.5594-.22602-.0421-.6018.3878.4622z"/><path d="m12.5048 7.09375-.1254.5901.5224.30164-.5999.06325-.1254.58992-.2454-.55104-.6.06296.4483-.40366-.2453-.55104.5224.30157z"/><path d="m10.2171 6.26099.0841.59741.594.10469-.5422.26459.084.59737-.419-.43397-.54235.26445.28329-.53272-.4191-.4339.59414.10473z"/><path d="m7.78353 6.26099.28325.53265.594-.1048-.41896.43407.28312.53269-.54218-.26452-.41914.43387.08406-.59727-.54221-.26445.5941-.10483z"/><path d="m5.49461 7.09375.44838.4037.52232-.30157-.24529.55125.44828.40359-.59994-.0631-.24546.55104-.12527-.59003-.59997-.063.52242-.30171z"/><path d="m3.63053 8.65823.55944.22599.38763-.4621-.04194.60191.55926.22602-.58531.14587-.04215.6017-.31957-.51149-.58539.14586.38777-.46213z"/><path d="m2.41309 10.7671.603.021.20622-.5668.16647.58.60282.021-.50013.3374.16622.5798-.47532-.3714-.50016.3373.20633-.5669z"/></g><path d="m17.1065 5.08672c-1.4558-3.01046-4.5388-5.08696414-8.10696-5.08696414-3.56815 0-6.65121 2.07650414-8.106962 5.08696414z" fill="#ffda44"/></g></svg>