<svg fill="none" height="18" viewBox="0 0 18 18" width="18" xmlns="http://www.w3.org/2000/svg" xmlns:xlink="http://www.w3.org/1999/xlink"><clipPath id="a"><path d="m0 0h18v18h-18z"/></clipPath><g clip-path="url(#a)"><path d="m18 9c0 4.9705-4.0295 9-9 9-4.97053 0-9-4.0295-9-9 0 .00214 9-8.99901562 9-9 4.9705 0 9 4.02947 9 9z" fill="#0052b4"/><path d="m8.97656 9.00057h.02413c0-.00811 0-.01599 0-.02413-.00803.00807-.01606.0161-.02413.02413z" fill="#f0f0f0"/><path d="m9 4.69656c0-1.58361 0-2.62125 0-4.69564447h-.00152c-4.96989.00084375-8.99848 4.02992447-8.99848 9.00000447h4.69564v-2.64414l2.64414 2.64414h1.63617c.00801-.00802.01603-.01604.02408-.02409 0-.60634 0-1.14736 0-1.63606l-2.64421-2.64421z" fill="#f0f0f0"/><path d="m4.55319 1.1731c-1.40762.80152-2.57787 1.97173-3.37936 3.37936v4.44674h2.34784v-5.47819-.00007h5.47826c0-.7405 0-1.44595 0-2.34784z" fill="#d80027"/><path d="m12.913 8.99976-2.4325 2.43254c.4559.8793 1.3737 1.4805 2.4325 1.4805s1.9767-.6012 2.4326-1.4805z" fill="#ffda44"/><path d="m8.99967 7.89331-3.19764-3.19757h-1.10672v.00007l4.30429 4.30425h.00007s0-.76313 0-1.10675z" fill="#d80027"/><path d="m10.1738 4.69574v4.30432.00004c.0001 2.0967 2.7392 2.7391 2.7392 2.7391s2.739-.6424 2.7391-2.7391v-.00004-4.30432z" fill="#6da544"/><path d="m13.5001 6.6524h-1.1739v3.13043h1.1739z" fill="#f0f0f0"/><path d="m12.9131 7.23882c.3242 0 .587-.26279.587-.58697 0-.32417-.2628-.58697-.587-.58697-.3241 0-.5869.2628-.5869.58697 0 .32418.2628.58697.5869.58697z" fill="#a2001d"/><g fill="#ffda44"><path d="m11.7406 5.47858h-.7826v.78261h.7826z"/><path d="m11.7396 7.23895h-.7826v.78262h.7826z"/><path d="m11.7396 9.00037h-.7826v.78261h.7826z"/><path d="m14.8705 5.47906h-.7826v.78262h.7826z"/><path d="m14.8705 7.23895h-.7826v.78262h.7826z"/><path d="m14.8705 9.00037h-.7826v.78261h.7826z"/></g></g></svg>