<svg fill="none" height="18" viewBox="0 0 18 18" width="18" xmlns="http://www.w3.org/2000/svg" xmlns:xlink="http://www.w3.org/1999/xlink"><clipPath id="a"><path d="m0 0h18v18h-18z"/></clipPath><g clip-path="url(#a)"><path d="m9 18c4.9706 0 9-4.0294 9-9 0-4.97056-4.0294-9-9-9-4.97056 0-9 4.02944-9 9 0 4.9706 4.02944 9 9 9z" fill="#fcfcfc"/><path d="m10.5273 6.28768c0-.84417-.68438-1.52852-1.52859-1.52852-.8442 0-1.52856.68435-1.52856 1.52852h-3.36273c0 .83112.72401 1.50496 1.55514 1.50496h-.05006c0 .8312.67373 1.50507 1.505 1.50507 0 .73589.52854 1.34739 1.22657 1.47819l-.0039.0087h1.31712l-.0039-.0087c.69811-.1308 1.22661-.7423 1.22661-1.47819.8312 0 1.505-.67387 1.505-1.50507h-.0502c.8312 0 1.5552-.67384 1.5552-1.50496z" fill="#ffda44"/><path d="m8.32665 10.6294-.94774 2.1397c.50006.2033 1.04663.3163 1.61971.3163.57309 0 1.11968-.113 1.61968-.3163l-.9477-2.1397z" fill="#ffda44"/><path d="m7.04395 7.03906v2.63289c0 1.49755 1.95651 1.95655 1.95651 1.95655s1.95654-.459 1.95654-1.95655v-2.63289z" fill="#f0f0f0"/><path d="m2.18195 9.06335 1.05817 2.95955 1.04716-2.95955h.79917l-1.52669 3.91305h-.63932l-1.53763-3.91305z" fill="#338af3"/><path d="m14.4775 12.9764v-3.91305h.7606v3.91305z" fill="#338af3"/><path d="m7.82617 7.88965v3.19055c.26898.198.55839.3341.78262.4213v-3.61185z" fill="#d80027"/><path d="m10.1742 7.88965v3.19055c-.26897.198-.55837.3341-.7826.4213v-3.61185z" fill="#d80027"/><path d="m10.957 7.03906h-3.91305v1.24158h3.91305z" fill="#0052b4"/></g></svg>