<svg fill="none" height="18" viewBox="0 0 18 18" width="18" xmlns="http://www.w3.org/2000/svg" xmlns:xlink="http://www.w3.org/1999/xlink"><clipPath id="a"><path d="m0 0h18v18h-18z"/></clipPath><g clip-path="url(#a)"><path d="m18 9.0002c0-.39786-.0261-.78964-.0762-1.1739h-10.0978c-1.83871-1.8386-5.19011-5.18979-5.18997-5.19007-3.514706 3.5147-3.514706 9.21317 0 12.72797l5.19007-5.1901h10.0977c.05-.38425.0762-.77603.0762-1.1739z" fill="#000"/><path d="m17.9983 9.20435c-.0003.01738-.0007.03483-.0012.05222.0004-.01746.0008-.03484.0012-.05222z" fill="#f0f0f0"/><path d="m17.9893 9.45032c-.0009.01721-.0021.03435-.003.05152.0009-.01714.0021-.03431.003-.05152z" fill="#f0f0f0"/><path d="m17.9773 9.64746c-.0018.02531-.0036.05062-.0056.07587.002-.02525.0037-.05056.0056-.07587z" fill="#f0f0f0"/><path d="m17.9473 8.01917c.0033.03013.0066.06023.0096.09043-.003-.03024-.0064-.0603-.0096-.09043z" fill="#f0f0f0"/><path d="m17.9863 8.49744c.001.01717.0021.03431.003.05152-.0009-.01721-.002-.03438-.003-.05152z" fill="#f0f0f0"/><path d="m17.9971 8.74268c.0005.01738.0008.03484.0012.05222-.0003-.01745-.0008-.03484-.0012-.05222z" fill="#f0f0f0"/><path d="m17.9717 8.27673c.002.02524.0038.05056.0056.07587-.0019-.02531-.0036-.05063-.0056-.07587z" fill="#f0f0f0"/><path d="m17.9236 7.8258c.004.03083.0076.06184.0113.09274-.5342-4.46068-4.3305-7.91878414-8.93512-7.91878414-2.48533 0-4.73536 1.00740414-6.36404 2.63615414l5.1899 5.18993h10.09796z" fill="#d80027"/><path d="m17.9236 10.174h-10.09796l-5.1899 5.19c1.62868 1.6287 3.87871 2.6361 6.36404 2.6361 4.60462 0 8.40102-3.4581 8.93512-7.9188-.0037.0309-.0073.0619-.0113.0927z" fill="#6da544"/><path d="m17.9559 9.89087c-.003.0302-.0063.0603-.0096.09043.0033-.03013.0066-.06019.0096-.09043z" fill="#f0f0f0"/><g fill="#000"><path d="m17.9766 8.35278c.0034.04815.0065.09641.0091.14477-.0027-.04836-.0057-.09662-.0091-.14477z"/><path d="m17.9346 7.9187c.004.0334.0079.06687.0114.10037-.0036-.0335-.0075-.06694-.0114-.10037z"/><path d="m17.9561 8.10925c.0054.05591.0104.11195.0149.16821-.0045-.05626-.0094-.11234-.0149-.16821z"/><path d="m18.0006 9c0 .06851-.001.13674-.0026.20483.0016-.06812.0026-.13635.0026-.20483z"/><path d="m17.9857 9.50171c-.0027.04836-.0058.09662-.0091.14478.0033-.04816.0064-.09642.0091-.14478z"/><path d="m17.971 9.72314c-.0045.05619-.0095.11227-.0149.16814.0055-.05587.0104-.11195.0149-.16814z"/><path d="m17.946 9.98108c-.0035.03352-.0074.06692-.0114.10042.0039-.0334.0078-.0669.0114-.10042z"/><path d="m17.998 8.79553c.0016.06813.0026.13639.0026.20484 0-.06845-.001-.13671-.0026-.20484z"/><path d="m17.9893 8.54858c.0031.06447.0055.12918.0073.194-.0018-.06485-.0041-.12953-.0073-.194z"/><path d="m17.9967 9.25659c-.0019.06482-.0043.12953-.0074.194.0032-.0645.0056-.12918.0074-.194z"/></g><path d="m17.9919 8.60499h-10.49602l-5.39145-5.39063c-.17427.18379-.36316.44043-.47999.62321l5.15597 5.15868-5.16029 5.16035c.10216.1818.32473.4508.481.6259l5.39486-5.39489h10.49722c.0056-.1298.0073-.26016.0073-.39129 0-.17571-.0048-.30526-.0086-.39133z" fill="#ffda44"/><path d="m2.18612 10.9181v-.7539c.75227 0 1.36423-.61201 1.36423-1.36422 0-.53223-.43302-.96521-.96521-.96521-.36257 0-.65756.29496-.65756.6576 0 .23185.18861.4205.4205.4205.13106 0 .23769-.1067.23769-.23776h.75382c0 .54678-.4448.99158-.99148.99158-.64754.00004-1.17428-.52682-1.17428-1.17425 0-.77826.63316-1.41139 1.41134-1.41139.94788 0 1.71907.77119 1.71907 1.71904-.00004 1.16778-.9502 2.11801-2.11812 2.11801z" fill="#ffda44"/></g></svg>