<svg fill="none" height="18" viewBox="0 0 18 18" width="18" xmlns="http://www.w3.org/2000/svg" xmlns:xlink="http://www.w3.org/1999/xlink"><clipPath id="a"><path d="m0 0h18v18h-18z"/></clipPath><g clip-path="url(#a)"><path d="m18 9c0 4.9705-4.0295 9-9 9-4.97053 0-9-4.0295-9-9l9-9c4.9705 0 9 4.02947 9 9z" fill="#d80027"/><path d="m9 9c0-4.97053 0-5.55652 0-9-4.97053 0-9 4.02947-9 9z" fill="#0052b4"/><g fill="#f0f0f0"><path d="m7.20799 5.86963.14572.44842h.47145l-.38145.27706.14572.44842-.38144-.27714-.38145.27714.14573-.44842-.38145-.27706h.47145z"/><path d="m4.8411 2.34839.24283.74739h.78581l-.63577.46177.2429.74736-.63577-.46192-.63573.46192.24286-.74736-.63573-.46177h.78574z"/><path d="m7.18876 3.13123.24282.74742h.78578l-.63573.46178.24283.74735-.6357-.46192-.63573.46192.24286-.74735-.63573-.46178h.78574z"/><path d="m5.33329 6.26172.24286.74739h.78574l-.63573.46177.24286.74735-.63573-.46188-.63573.46188.24286-.74735-.63573-.46177h.78577z"/><path d="m3.27564 4.30493.24286.74739h.78578l-.63577.46178.24286.74735-.63573-.46189-.6357.46189.24283-.74735-.6357-.46178h.78574z"/></g></g></svg>