<svg fill="none" height="18" viewBox="0 0 18 18" width="18" xmlns="http://www.w3.org/2000/svg" xmlns:xlink="http://www.w3.org/1999/xlink"><clipPath id="a"><path d="m0 0h18v18h-18z"/></clipPath><g clip-path="url(#a)"><path d="m9 18c4.9706 0 9-4.0294 9-9 0-4.97056-4.0294-9-9-9-4.97056 0-9 4.02944-9 9 0 4.9706 4.02944 9 9 9z" fill="#f0f0f0"/><path d="m2.63603 15.364c-3.514708-3.5148-3.514708-9.21327 0-12.72801-.00024.00038 5.19009 6.36398 5.19009 6.36398z" fill="#000"/><path d="m7.82658 9.00015-6.63244-4.48196c-.205624.35743-.38696.73051-.542773 1.11667l3.357743 3.36533-3.357637 3.36551c.155672.3859.336832.7587.542317 1.1159z" fill="#ffda44"/><path d="m17.9239 7.82605h-10.098l-5.1899-5.18994c-.55927.55926-1.04516 1.19176-1.44229 1.88191l4.47325 4.48193-4.4736 4.48135c.39712.6903.88323 1.3231 1.44264 1.8825l5.1899-5.1899h10.098c.05-.3843.0761-.77609.0761-1.17395s-.0261-.78964-.0761-1.1739z" fill="#6da544"/><path d="m3.51953 16.1385c1.51766 1.1666 3.4174 1.8606 5.47953 1.8606 4.15824 0 7.65724-2.8203 8.68994-6.6522h-9.37785z" fill="#0052b4"/><path d="m17.689 6.65155c-1.0327-3.83189-4.5317-6.65216035-8.68994-6.65216035-2.06213 0-3.96187.69401935-5.47953 1.86057035l4.79159 4.79159z" fill="#d80027"/></g></svg>