<svg fill="none" height="18" viewBox="0 0 18 18" width="18" xmlns="http://www.w3.org/2000/svg" xmlns:xlink="http://www.w3.org/1999/xlink"><clipPath id="a"><path d="m0 0h18v18h-18z"/></clipPath><g clip-path="url(#a)"><path d="m9 18c4.9706 0 9-4.0294 9-9 0-4.97056-4.0294-9-9-9-4.97056 0-9 4.02944-9 9 0 4.9706 4.02944 9 9 9z" fill="#496e2d"/><path d="m12.5217 8.99951h-3.5217v8.99999c1.052 0 2.0616-.1811 3-.5128z" fill="#d80027"/><path d="m15.0002 15.7071c1.8411-1.6479 3.0001-4.0423 3.0001-6.70759h-3.5218z" fill="#ff9811"/><path d="m12 8.99951v8.48719c1.1179-.3952 2.1344-1.0047 3-1.7796v-6.70759z" fill="#000"/><path d="m16.63 5.87002h-2.3478c0-.43222-.3504-.78262-.7826-.78262s-.7826.3504-.7826.78262h-2.3479c0 .43224.3765.78261.8087.78261h-.026c0 .43225.3503.78261.7826.78261 0 .43225.3503.78262.7826.78262h1.5652c.4322 0 .7826-.35037.7826-.78262.4322 0 .7826-.35036.7826-.78261h-.026c.4322-.00004.8086-.3504.8086-.78261z" fill="#ff9811"/></g></svg>