<svg fill="none" height="18" viewBox="0 0 18 18" width="18" xmlns="http://www.w3.org/2000/svg" xmlns:xlink="http://www.w3.org/1999/xlink"><clipPath id="a"><path d="m0 0h18v18h-18z"/></clipPath><g clip-path="url(#a)"><path d="m9 18c4.9706 0 9-4.0294 9-9 0-4.97056-4.0294-9-9-9-4.97056 0-9 4.02944-9 9 0 4.9706 4.02944 9 9 9z" fill="#f0f0f0"/><path d="m17.1394 5.15428c-.4572-.96588-1.0813-1.83716-1.835-2.57702l-6.30356-.62047-6.30352.6205c-.02011.01973-.03973.03991-.05962.05984l2.51718 2.51719 3.84596.11745z" fill="#ffda44"/><path d="m2.63672 15.364c.03312.0331.06616.0662.09977.0989l6.26347.5813 6.26344-.5813c.7615-.7383 1.3932-1.6097 1.8568-2.5771l-11.64201-.3633c-1.00171 1.0017-2.15708 2.157-2.84147 2.8415z" fill="#ffda44"/><path d="m17.9103 7.73108-10.47573-.29627 1.56523 1.56523c-.46361.46361-1.15569 1.15566-1.56523 1.56526l10.47023-.2572c.0622-.42708.095-.86372.095-1.30806 0-.4308-.0309-.8543-.0895-1.26896z" fill="#000"/><path d="m9.00078.00048828c-2.45489 0-4.67979.98332072-6.30351 2.57702172h12.60703c-1.6237-1.593701-3.8486-2.57702172-6.30352-2.57702172z" fill="#6da544"/><path d="m7.73132 7.73144h10.17948c-.1284-.90981-.3927-1.77585-.7719-2.57702h-11.9846z" fill="#d80027"/><path d="m5.11523 12.8862h12.00547c.3837-.8006.6521-1.6667.7847-2.577h-10.21314c-.99798.998-1.84377 1.8438-2.57703 2.577z" fill="#d80027"/><path d="m8.99973 18.0003c2.43477 0 4.64327-.9672 6.26337-2.5379h-12.52677c1.62014 1.5707 3.82865 2.5379 6.2634 2.5379z" fill="#6da544"/><path d="m3.21354 2.10742c-.20008.16812-.39312.34436-.5778.52896l6.36399 6.36399-6.36399 6.36403c.18464.1846.37772.3608.5778.5289l6.89296-6.89293z" fill="#000"/><path d="m3.61899 6.65186.58272 1.79353h1.88596l-1.52572 1.10854.58275 1.79357-1.52571-1.1085-1.52574 1.1085.58282-1.79357-1.52568-1.10854h1.88585z" fill="#d80027"/><path d="m5.22138 9.14598-1.51868-.53803s-.11222-1.05268-.119-1.08837c-.05154-.27151-.29015-.47686-.57667-.47686-.32414 0-.58697.2628-.58697.58697 0 .05376.00784.10554.02138.15504l-.42582.42866h.75713c0 .78585-.58641.78585-.58641 1.56846l.3253.78265h1.95652l.32611-.78265h-.00014c.03266-.0751.05249-.15254.06068-.22992.28111-.1137.36657-.40595.36657-.40595z" fill="#ffda44"/></g></svg>